<svg width="40" height="36" viewBox="0 0 40 36" fill="none" xmlns="http://www.w3.org/2000/svg">
<path fill-rule="evenodd" clip-rule="evenodd" d="M13.3861 2.096C15.089 2.01745 15.632 2 19.9701 2C24.3081 2 24.8511 2.01891 26.5527 2.096C28.2542 2.17309 29.4157 2.44509 30.4319 2.83927C31.4961 3.24218 32.4616 3.872 33.2601 4.68655C34.0731 5.48509 34.7003 6.45091 35.101 7.51855C35.4959 8.53673 35.7659 9.70036 35.8443 11.4022C35.9227 13.1113 35.9402 13.6553 35.9402 18C35.9402 22.3462 35.9213 22.8902 35.8443 24.5964C35.7674 26.2982 35.4959 27.4618 35.101 28.48C34.7003 29.5478 34.0721 30.5152 33.2601 31.3149C32.4616 32.1295 31.4961 32.7578 30.4319 33.1593C29.4157 33.5549 28.2542 33.8255 26.5556 33.904C24.8511 33.9825 24.3081 34 19.9701 34C15.632 34 15.089 33.9811 13.3861 33.904C11.6874 33.8269 10.526 33.5549 9.50968 33.1593C8.44392 32.7578 7.47831 32.1284 6.68007 31.3149C5.8676 30.5159 5.23886 29.5489 4.8377 28.4815C4.44426 27.4633 4.17422 26.2996 4.09582 24.5978C4.01742 22.8887 4 22.3447 4 18C4 13.6538 4.01887 13.1098 4.09582 11.4051C4.17277 9.70036 4.44426 8.53673 4.8377 7.51855C5.23946 6.45103 5.86867 5.48409 6.68152 4.68509C7.47863 3.87127 8.44327 3.24137 9.50823 2.83927C10.5245 2.44509 11.686 2.17455 13.3846 2.096H13.3861ZM26.4234 4.976C24.7393 4.89891 24.2341 4.88291 19.9701 4.88291C15.7061 4.88291 15.2008 4.89891 13.5167 4.976C11.9589 5.04727 11.1139 5.30764 10.5506 5.52727C9.80585 5.81818 9.27303 6.16291 8.71408 6.72291C8.18423 7.23935 7.77646 7.86805 7.52068 8.56291C7.30145 9.12727 7.04157 9.97382 6.97044 11.5345C6.89349 13.2218 6.87752 13.728 6.87752 18C6.87752 22.272 6.89349 22.7782 6.97044 24.4655C7.04157 26.0262 7.30145 26.8727 7.52068 27.4371C7.7762 28.1309 8.18416 28.7607 8.71408 29.2771C9.22948 29.808 9.85812 30.2167 10.5506 30.4727C11.1139 30.6924 11.9589 30.9527 13.5167 31.024C15.2008 31.1011 15.7046 31.1171 19.9701 31.1171C24.2355 31.1171 24.7393 31.1011 26.4234 31.024C27.9813 30.9527 28.8262 30.6924 29.3895 30.4727C30.1343 30.1818 30.6671 29.8371 31.2261 29.2771C31.756 28.7607 32.164 28.1309 32.4195 27.4371C32.6387 26.8727 32.8986 26.0262 32.9697 24.4655C33.0467 22.7782 33.0626 22.272 33.0626 18C33.0626 13.728 33.0467 13.2218 32.9697 11.5345C32.8986 9.97382 32.6387 9.12727 32.4195 8.56291C32.1291 7.81673 31.785 7.28291 31.2261 6.72291C30.7106 6.1921 30.0831 5.78358 29.3895 5.52727C28.8262 5.30764 27.9813 5.04727 26.4234 4.976V4.976ZM17.9303 22.9324C19.0695 23.4075 20.3379 23.4716 21.5191 23.1138C22.7002 22.756 23.7207 21.9984 24.4063 20.9705C25.0919 19.9426 25.4 18.7082 25.278 17.478C25.1561 16.2478 24.6116 15.0981 23.7376 14.2255C23.1804 13.6676 22.5067 13.2405 21.765 12.9748C21.0233 12.7091 20.232 12.6114 19.4481 12.6889C18.6643 12.7664 17.9073 13.017 17.2317 13.4227C16.556 13.8285 15.9786 14.3793 15.541 15.0354C15.1034 15.6916 14.8164 16.4368 14.7007 17.2174C14.585 17.998 14.6436 18.7946 14.8721 19.5498C15.1006 20.3051 15.4934 21.0002 16.0222 21.5851C16.551 22.1699 17.2026 22.6301 17.9303 22.9324ZM14.1657 12.1847C14.9279 11.4211 15.8328 10.8153 16.8288 10.402C17.8247 9.98868 18.8921 9.77596 19.9701 9.77596C21.0481 9.77596 22.1155 9.98868 23.1114 10.402C24.1073 10.8153 25.0122 11.4211 25.7745 12.1847C26.5367 12.9484 27.1414 13.855 27.5539 14.8528C27.9664 15.8506 28.1787 16.92 28.1787 18C28.1787 19.08 27.9664 20.1494 27.5539 21.1472C27.1414 22.145 26.5367 23.0516 25.7745 23.8153C24.2351 25.3576 22.1472 26.224 19.9701 26.224C17.793 26.224 15.7051 25.3576 14.1657 23.8153C12.6263 22.273 11.7614 20.1812 11.7614 18C11.7614 15.8188 12.6263 13.727 14.1657 12.1847V12.1847ZM29.9993 11.0007C30.1882 10.8222 30.3394 10.6075 30.444 10.3694C30.5486 10.1313 30.6044 9.87457 30.6082 9.61444C30.612 9.35431 30.5637 9.09607 30.466 8.855C30.3684 8.61392 30.2235 8.39492 30.0399 8.21097C29.8563 8.02701 29.6377 7.88183 29.3971 7.78403C29.1564 7.68622 28.8987 7.63778 28.639 7.64158C28.3794 7.64537 28.1231 7.70131 27.8855 7.8061C27.6478 7.91089 27.4335 8.06239 27.2553 8.25164C26.9088 8.61968 26.7191 9.10854 26.7264 9.61444C26.7338 10.1203 26.9377 10.6035 27.2948 10.9612C27.6519 11.319 28.1341 11.5232 28.639 11.5306C29.144 11.538 29.6319 11.3479 29.9993 11.0007V11.0007Z" fill="black"/>
</svg>
