<?xml version="1.0" standalone="no"?>
<!DOCTYPE svg PUBLIC "-//W3C//DTD SVG 20010904//EN"
 "http://www.w3.org/TR/2001/REC-SVG-20010904/DTD/svg10.dtd">
<svg version="1.0" xmlns="http://www.w3.org/2000/svg"
 width="512.000000pt" height="512.000000pt" viewBox="0 0 512.000000 512.000000"
 preserveAspectRatio="xMidYMid meet">
<metadata>
Created by potrace 1.14, written by Peter Selinger 2001-2017
</metadata>
<g transform="translate(0.000000,512.000000) scale(0.100000,-0.100000)"
fill="#000000" stroke="none">
<path d="M0 2560 l0 -2560 1965 0 c1081 0 1965 2 1965 4 0 3 -556 416 -602
447 -4 3 17 62 47 132 62 142 123 336 127 399 l3 42 -1135 183 c-624 100
-1158 182 -1186 182 -73 1 -161 -45 -215 -112 -22 -29 -45 -52 -50 -52 -5 0
-162 112 -348 249 l-340 249 22 31 c111 157 1250 1701 1254 1700 13 -2 683
-499 683 -506 0 -5 -38 -61 -85 -125 -47 -64 -83 -118 -80 -121 4 -5 1079
-222 1081 -219 6 8 -351 706 -372 728 -43 45 -120 79 -178 79 -78 -1 -127 -28
-183 -104 -26 -36 -52 -65 -57 -66 -11 0 -685 493 -686 502 0 4 239 333 531
730 293 398 538 733 547 746 l14 22 -1361 0 -1361 0 0 -2560z"/>
<path d="M2736 5112 c5 -5 155 -116 334 -247 179 -130 329 -241 334 -246 5 -4
-1 -27 -13 -51 -23 -49 -27 -124 -11 -196 6 -23 200 -475 431 -1005 232 -529
459 -1054 504 -1167 188 -467 270 -786 294 -1140 7 -114 6 -139 -6 -159 -9
-13 -159 -219 -334 -458 -176 -238 -319 -435 -319 -438 0 -3 263 -5 585 -5
l585 0 0 2560 0 2560 -1197 0 c-658 0 -1193 -4 -1187 -8z"/>
</g>
</svg>
