<svg fill="none" height="316" viewBox="0 0 654 316" width="654" xmlns="http://www.w3.org/2000/svg" xmlns:xlink="http://www.w3.org/1999/xlink"><filter id="a" color-interpolation-filters="sRGB" filterUnits="userSpaceOnUse" height="252.429" width="695.999" x="-20.2811" y="11.0127"><feFlood flood-opacity="0" result="BackgroundImageFix"/><feGaussianBlur in="BackgroundImage" stdDeviation="15"/><feComposite in2="SourceAlpha" operator="in" result="effect1_backgroundBlur"/><feBlend in="SourceGraphic" in2="effect1_backgroundBlur" mode="normal" result="shape"/></filter><clipPath id="b"><path d="m.726562.737305h653.273v314.789h-653.273z"/></clipPath><g clip-path="url(#b)"><path d="m466.653 69.9567 173.012-69.108001-32.155 106.475301 39.699 12.392-.319 53.796c-4.16 1.769-42.976 16.257-42.976 16.257l32.187 101.231-175.221-57.002c-41.065 10.423-44.701 11.978-76.234 18.854l-77.033 16.425c-53.784 8.82-166.25 28.835-237.1538-14.463-70.904159-43.298-60.76399-108.606-44.716-134.261 19.1686-30.6426 64.4678-84.8236 174.7978-86.0522 109.757-1.2222 223.109 23.6927 266.112 35.4559z" fill="#ff4f99"/><g fill="#000" filter="url(#a)"><path d="m102.487 151.803-37.2164 20.979 4.4328 45.619-19.12-10.1-3.2548-34.687-8.0605-4.258-13.6158 25.774-15.93343-8.417 34.65863-65.608 15.9334 8.417-13.6159 25.775 8.0604 4.258 30.2054-17.011z"/><path d="m83.7436 217.972c-4.7008-6.344-6.4024-13.527-5.1049-21.549 1.2975-8.023 5.171-14.268 11.6206-18.737 6.5306-4.528 13.9467-6.12 22.2477-4.777 8.302 1.342 14.803 5.185 19.504 11.529 4.782 6.286 6.524 13.44 5.226 21.462-1.297 8.023-5.211 14.297-11.742 18.825-6.449 4.469-13.825 6.032-22.126 4.689-8.3019-1.342-14.8436-5.156-19.6254-11.442zm17.1034-27.407c-2.6275 2.081-4.2401 4.97-4.838 8.667-.598 3.697.0161 6.982 1.8422 9.855 1.9072 2.814 4.5698 4.497 7.9878 5.05 3.419.553 6.441-.211 9.069-2.292 2.708-2.139 4.361-5.057 4.959-8.754s-.057-6.953-1.964-9.767c-1.826-2.872-4.448-4.585-7.866-5.138-3.419-.553-6.482.24-9.19 2.379z"/><path d="m212.083 174.028 3.469 55.011-15.869 1.001-1.908-30.256-10.787 31.056-12.694.801-14.603-29.456 1.908 30.256-15.869 1.001-3.468-55.011 21.898-1.381 15.542 30.883 11.54-32.59z"/><path d="m245.147 223.19-16.633 3.314-10.771-54.057 53.018-10.564 10.771 54.058-16.633 3.314-7.871-39.504-19.752 3.936z"/><path d="m296.97 204.504c-6.973-3.702-11.602-9.453-13.884-17.253-2.282-7.799-1.475-15.104 2.423-21.914 3.945-6.898 9.954-11.528 18.025-13.89 8.07-2.361 15.593-1.691 22.567 2.011 7.021 3.615 11.674 9.322 13.956 17.122s1.451 15.148-2.495 22.046c-3.897 6.81-9.882 11.396-17.953 13.758-8.07 2.361-15.617 1.735-22.639-1.88zm3.64-32.1c-1.476 3.009-1.688 6.311-.636 9.905 1.052 3.595 3.02 6.296 5.905 8.102 2.933 1.719 6.061 2.092 9.384 1.12 3.323-.973 5.723-2.964 7.198-5.972 1.524-3.097 1.76-6.443.708-10.037-1.052-3.595-3.044-6.252-5.977-7.97-2.885-1.807-5.989-2.224-9.312-1.251-3.323.972-5.747 3.007-7.27 6.103z"/><path d="m384.293 154.173c6.623.779 10.834 3.585 12.633 8.42 1.774 4.769 1.047 9.299-2.182 13.592-3.228 4.292-8.254 7.707-15.075 10.246-5.034 1.872-10.053 2.873-15.057 3-5.029.062-9.485-.769-13.368-2.491l4.552-13.908c2.95 1.24 6.166 1.778 9.648 1.613 3.549-.189 6.615-.765 9.198-1.726 4.305-1.601 6.038-3.528 5.201-5.78-.518-1.391-1.558-2.059-3.122-2.005-1.563.053-3.769.61-6.617 1.67l-7.749 2.883-4.805-12.915 7.749-2.883c2.848-1.06 4.881-2.08 6.1-3.061 1.218-.981 1.569-2.167 1.051-3.558-.838-2.252-3.409-2.577-7.714-.976-2.583.961-5.279 2.53-8.089 4.706-2.743 2.152-4.826 4.661-6.247 7.527l-12.536-7.55c1.813-3.842 4.655-7.349 8.525-10.524 3.847-3.24 8.286-5.797 13.32-7.67 6.822-2.538 12.857-3.238 18.106-2.099 5.249 1.138 8.761 4.092 10.535 8.86 1.799 4.835.447 9.712-4.057 14.629z"/><path d="m418.387 142.715 8.373-36.818 14.972-6.7649 22.696 50.2299-15.455 6.984-12.396-27.434-8.372 36.818-14.973 6.765-22.696-50.23 15.455-6.984z"/><path d="m515.767 124.107-42.049 20.178-23.848-49.6937 15.291-7.3378 17.427 36.3145 19.113-9.172-17.427-36.3147 15.29-7.3377 17.427 36.3144 6.69-3.21 13.3 27.714-14.335 6.879z"/><path d="m543.301 85.1469 13.699-35.1848 15.805-4.4884 15.058 53.0233-16.314 4.633-8.224-28.9587-13.7 35.1847-15.805 4.489-15.058-53.0238 16.315-4.6332z"/><path d="m615.783 41.0808 29.935 1.9432-3.57 55.0043-16.925-1.0987 1.03-15.8666-5.077-.3296-12.877 15.0976-19.463-1.2635 14.481-16.9054c-3.495-1.7849-6.167-4.2598-8.015-7.4249-1.844-3.2355-2.633-6.8983-2.368-10.9884.376-5.7825 2.655-10.3438 6.837-13.6838 4.258-3.4061 9.595-4.9008 16.012-4.4842zm12.05 15.6534-12.059-.7828c-1.551-.1007-2.815.2776-3.791 1.1348-.906.8618-1.405 1.9979-1.496 3.4083-.087 1.3398.262 2.4956 1.049 3.4672.862.9058 2.069 1.409 3.62 1.5097l12.059.7828z"/></g></g></svg>