<svg width="474" height="88" viewBox="0 0 474 88" fill="none" xmlns="http://www.w3.org/2000/svg">
<path d="M44.5286 50.4067H16.2867L9.94382 68H0.77676L26.5186 0.589698H34.2967L60.0849 68H50.9641L44.5286 50.4067ZM18.972 43.0915H41.8896L30.4077 11.5624L18.972 43.0915ZM108.744 68H100.179V46.6102H77.1689V68H68.5574V17.9053H77.1689V39.6192H100.179V17.9053H108.744V68ZM120.273 42.4896C120.273 37.582 121.229 33.1683 123.143 29.2483C125.088 25.3284 127.773 22.3036 131.199 20.1739C134.656 18.0442 138.591 16.9793 143.005 16.9793C149.826 16.9793 155.336 19.3405 159.534 24.0629C163.762 28.7854 165.876 35.0665 165.876 42.9063V43.5082C165.876 48.385 164.935 52.7679 163.052 56.6569C161.2 60.5151 158.53 63.5245 155.043 65.6851C151.586 67.8457 147.604 68.926 143.098 68.926C136.307 68.926 130.798 66.5648 126.569 61.8423C122.371 57.1199 120.273 50.8696 120.273 43.0915V42.4896ZM128.884 43.5082C128.884 49.064 130.165 53.5241 132.727 56.8884C135.32 60.2528 138.777 61.9349 143.098 61.9349C147.45 61.9349 150.907 60.2373 153.468 56.8421C156.03 53.416 157.311 48.6319 157.311 42.4896C157.311 36.9956 155.999 32.5509 153.376 29.1557C150.783 25.7297 147.326 24.0166 143.005 24.0166C138.777 24.0166 135.366 25.6988 132.773 29.0631C130.18 32.4275 128.884 37.2425 128.884 43.5082ZM218.934 43.5082C218.934 51.132 217.19 57.2742 213.703 61.9349C210.215 66.5956 205.492 68.926 199.535 68.926C193.455 68.926 188.671 66.9969 185.183 63.1387V87.2601H176.618V17.9053H184.442L184.859 23.4611C188.347 19.1399 193.192 16.9793 199.396 16.9793C205.415 16.9793 210.168 19.2479 213.656 23.7851C217.175 28.3224 218.934 34.6344 218.934 42.7211V43.5082ZM210.369 42.5359C210.369 36.8876 209.165 32.4275 206.758 29.1557C204.35 25.884 201.048 24.2481 196.85 24.2481C191.665 24.2481 187.776 26.5476 185.183 31.1466V55.0828C187.745 59.6509 191.665 61.9349 196.943 61.9349C201.048 61.9349 204.304 60.3145 206.712 57.0736C209.15 53.8019 210.369 48.956 210.369 42.5359ZM250.649 68.926C243.858 68.926 238.333 66.7036 234.074 62.259C229.814 57.7835 227.685 51.811 227.685 44.3416V42.7674C227.685 37.7981 228.626 33.3689 230.509 29.4798C232.423 25.5599 235.077 22.5042 238.472 20.3128C241.898 18.0904 245.602 16.9793 249.584 16.9793C256.096 16.9793 261.158 19.1244 264.77 23.4148C268.381 27.7051 270.186 33.8473 270.186 41.8415V45.4064H236.25C236.373 50.3449 237.809 54.342 240.556 57.3977C243.333 60.4225 246.852 61.9349 251.112 61.9349C254.136 61.9349 256.698 61.3176 258.797 60.083C260.896 58.8484 262.732 57.2125 264.307 55.1754L269.538 59.2496C265.341 65.7005 259.044 68.926 250.649 68.926ZM249.584 24.0166C246.127 24.0166 243.225 25.2821 240.88 27.8131C238.534 30.3132 237.083 33.8319 236.528 38.3691H261.621V37.7209C261.374 33.3689 260.201 30.0045 258.103 27.6279C256.004 25.2204 253.164 24.0166 249.584 24.0166ZM295.743 46.6565H289.493V68H280.881V17.9053H289.493V39.1099H295.095L311.948 17.9053H322.318L302.503 41.9804L323.985 68H313.105L295.743 46.6565ZM350.699 61.9349C353.755 61.9349 356.425 61.009 358.709 59.157C360.993 57.3051 362.258 54.9902 362.505 52.2123H370.607C370.453 55.0828 369.465 57.8144 367.644 60.4071C365.823 62.9998 363.385 65.0678 360.329 66.6111C357.304 68.1543 354.094 68.926 350.699 68.926C343.878 68.926 338.446 66.6573 334.402 62.1201C330.39 57.552 328.383 51.3172 328.383 43.4156V41.9804C328.383 37.1036 329.279 32.767 331.069 28.9705C332.859 25.1741 335.421 22.2264 338.754 20.1276C342.119 18.0287 346.085 16.9793 350.653 16.9793C356.27 16.9793 360.931 18.6615 364.635 22.0258C368.37 25.3901 370.361 29.7576 370.607 35.1282H362.505C362.258 31.8873 361.024 29.2329 358.801 27.1649C356.61 25.0661 353.894 24.0166 350.653 24.0166C346.301 24.0166 342.921 25.5908 340.514 28.7391C338.137 31.8565 336.949 36.3783 336.949 42.3045V43.9249C336.949 49.6967 338.137 54.1414 340.514 57.2588C342.89 60.3762 346.285 61.9349 350.699 61.9349ZM412.646 17.9053H421.211V68H412.646V31.4707L389.543 68H380.978V17.9053H389.543V54.4809L412.646 17.9053ZM473.251 17.9053V68H464.639V48.5084H451.722L439.916 68H430.656L443.249 47.2121C440.039 46.0392 437.57 44.2335 435.842 41.7952C434.144 39.3259 433.295 36.4554 433.295 33.1837C433.295 28.6156 435.008 24.9426 438.434 22.1647C441.861 19.3559 446.444 17.9361 452.185 17.9053H473.251ZM441.907 33.2763C441.907 35.7147 442.74 37.6901 444.407 39.2025C446.074 40.684 448.281 41.4402 451.028 41.4711H464.639V24.85H452.324C449.145 24.85 446.614 25.6371 444.731 27.2112C442.848 28.7545 441.907 30.7762 441.907 33.2763Z" fill="black"/>
</svg>
