<svg width="694" height="66" viewBox="0 0 694 66" fill="none" xmlns="http://www.w3.org/2000/svg">
<path d="M2.76931 0.496835L0.0380859 52H0.896472L1.83289 33.2716H5.1884L6.20286 52H46.0008L43.3476 0.496835H2.76931ZM5.11037 32.4912H1.98896L3.47163 1.27719H3.54967L5.11037 32.4912ZM91.08 52H130.878V14.153H91.08V32.4912H87.9586V14.153H48.1607V52H87.9586V33.2716H91.08V52ZM133.969 41.8554C133.969 49.815 136.31 52 143.723 52H206.932C214.345 52 216.686 49.815 216.686 41.8554V24.2975C216.686 16.338 214.345 14.153 206.932 14.153H143.723C136.31 14.153 133.969 16.338 133.969 24.2975V41.8554ZM173.767 16.494C173.767 15.3235 174.157 14.9333 174.937 14.9333H175.718C176.498 14.9333 176.888 15.4015 176.888 16.494V49.6589C176.888 50.5954 176.576 51.2196 175.718 51.2196H174.937C174.079 51.2196 173.767 50.5954 173.767 49.6589V16.494ZM259.575 65.6561V52H292.74C300.309 52 302.494 49.6589 302.494 42.2456V23.9074C302.494 16.338 300.153 14.153 292.74 14.153H268.939C261.76 14.153 259.731 16.1039 258.716 23.049H258.638V22.6588L259.419 14.153H219.777V65.6561H259.575ZM262.696 50.0491C262.696 50.8295 262.228 51.2196 261.526 51.2196H259.575V24.2975C259.575 21.0981 259.965 19.6154 260.745 19.6154H261.526C262.306 19.6154 262.696 20.864 262.696 24.1415V50.0491ZM387.912 35.2225V23.9074C387.912 16.338 385.805 14.153 378.158 14.153H315.34C307.77 14.153 305.585 16.2599 305.585 23.9074V42.2456C305.585 49.815 307.692 52 315.34 52H373.085V51.2196H354.357C347.334 51.2196 345.383 49.3468 345.383 42.1676V35.2225H387.912ZM345.383 16.1039C345.383 15.3235 345.695 14.9333 346.632 14.9333H346.944C347.724 14.9333 348.114 15.2455 348.114 16.1819V34.4421H345.383V16.1039ZM433.932 52H473.729L470.764 32.4912L473.729 14.153H434.166L431.2 32.4912H430.81V14.153H391.012V52H430.81V33.2716H431.122L433.932 52ZM522.099 14.9333V14.153H485.813C478.243 14.153 476.058 16.2599 476.058 23.9074V42.2456C476.058 49.815 478.165 52 485.813 52H522.099V51.2196H519.368C517.027 51.2196 515.856 50.1272 515.856 46.0693V20.0056C515.856 16.1039 516.949 14.9333 519.446 14.9333H522.099ZM567.759 52H607.557V14.153H566.9L564.325 51.2196H564.247V14.153H524.449V52H565.105L567.681 14.9333H567.759V52ZM653.634 52H693.432V14.153H620.469C612.899 14.153 610.715 16.2599 610.715 23.9074V25.4681C610.715 33.0375 612.041 35.2225 616.177 35.2225L609.934 52H649.732L652.073 35.2225H653.634V52ZM650.512 16.1039C650.512 15.3235 650.825 14.9333 651.761 14.9333H653.634V34.4421H651.683C650.903 34.4421 650.512 34.13 650.512 33.1935V16.1039Z" fill="black"/>
</svg>
