<svg width="526" height="100" viewBox="0 0 526 100" fill="none" xmlns="http://www.w3.org/2000/svg">
<path d="M10.267 75.9226L21.9763 76.2281C22.6891 75.719 22.9945 75.0062 22.9945 74.1917C22.9945 73.3771 22.6891 72.6644 21.9763 72.2571H14.4417C13.7289 72.2571 13.2198 71.748 13.2198 71.1371C13.2198 70.7298 13.4235 70.3225 13.6271 69.6098L20.2454 49.7549H40.5076L46.6168 69.1007C46.9222 69.9152 47.3295 71.2389 47.3295 71.5443C47.3295 71.9516 47.0241 72.2571 46.6168 72.2571H38.4712C37.7584 72.6644 37.453 73.3771 37.453 74.1917C37.453 75.0062 37.7584 75.719 38.4712 76.2281L53.3369 75.9226L66.1662 76.2281C66.9808 75.719 67.1844 75.0062 67.1844 74.1917C67.1844 73.3771 66.879 72.6644 66.1662 72.2571H60.2607C59.7516 72.2571 59.4461 71.8498 59.3443 71.3407L36.5366 2.20491C36.1293 0.983069 35.3148 0.270332 33.8893 0.270332C32.4638 0.270332 31.6492 0.983069 31.242 2.20491L8.63792 70.7298C8.33246 71.748 7.61972 72.2571 6.70334 72.2571H1.10324C0.288681 72.6644 0.0850409 73.3771 0.0850409 74.1917C0.0850409 75.0062 0.288681 75.719 1.10324 76.2281L10.267 75.9226ZM21.5691 45.5802L30.5292 17.987L39.0821 45.5802H21.5691ZM71.3137 76.2281L82.8194 75.9226L94.325 76.2281C95.0378 75.719 95.3432 75.0062 95.3432 74.1917C95.3432 73.3771 95.0378 72.6644 94.325 72.2571H88.7249C88.4195 72.2571 88.114 71.9516 88.114 71.5443V52.0967H107.867V71.5443C107.867 71.9516 107.562 72.2571 107.154 72.2571H101.656C100.943 72.6644 100.638 73.3771 100.638 74.1917C100.638 75.0062 100.943 75.719 101.656 76.2281L113.162 75.9226L124.667 76.2281C125.38 75.719 125.686 75.0062 125.686 74.1917C125.686 73.3771 125.38 72.6644 124.667 72.2571H119.067C118.762 72.2571 118.456 71.9516 118.456 71.5443V29.7981C118.456 29.3909 118.762 29.0854 119.067 29.0854H124.667C125.38 28.5763 125.686 27.8636 125.686 27.049C125.686 26.2344 125.38 25.5217 124.667 25.1144L113.162 25.3181L101.656 25.1144C100.943 25.5217 100.638 26.2344 100.638 27.049C100.638 27.8636 100.943 28.5763 101.656 29.0854H107.154C107.562 29.0854 107.867 29.3909 107.867 29.7981V48.533H88.114V29.7981C88.114 29.3909 88.4195 29.0854 88.7249 29.0854H94.325C95.0378 28.5763 95.3432 27.8636 95.3432 27.049C95.3432 26.2344 95.0378 25.5217 94.325 25.1144L82.8194 25.3181L71.3137 25.1144C70.601 25.5217 70.2955 26.2344 70.2955 27.049C70.2955 27.8636 70.601 28.5763 71.3137 29.0854H76.812C77.2193 29.0854 77.5247 29.3909 77.5247 29.7981V71.5443C77.5247 71.9516 77.2193 72.2571 76.812 72.2571H71.3137C70.601 72.6644 70.2955 73.3771 70.2955 74.1917C70.2955 75.0062 70.601 75.719 71.3137 76.2281ZM133.649 50.5694C133.649 66.7588 144.544 77.6535 157.984 77.6535C171.424 77.6535 182.217 66.7588 182.217 50.5694C182.217 34.38 171.424 23.4853 157.984 23.4853C144.544 23.4853 133.649 34.38 133.649 50.5694ZM145.562 50.5694C145.562 33.0564 150.551 27.049 157.984 27.049C165.417 27.049 170.406 33.0564 170.406 50.5694C170.406 68.1843 165.417 74.0898 157.984 74.0898C150.551 74.0898 145.562 68.1843 145.562 50.5694ZM201.514 98.8321L214.955 99.1376C215.667 98.7303 215.973 98.0175 215.973 97.203C215.973 96.3884 215.667 95.5739 214.955 95.1666H207.42C207.013 95.1666 206.809 94.8611 206.809 94.4538V71.8498C209.965 75.5153 214.344 77.6535 219.944 77.6535C231.959 77.6535 242.242 66.657 242.242 50.3658C242.242 34.1764 233.995 23.4853 222.286 23.4853C215.056 23.4853 209.049 28.6781 205.689 34.8891V27.1508C205.689 25.3181 205.078 24.4017 203.347 24.4017C201.413 24.4017 200.191 25.2162 197.543 25.2162C195.813 25.2162 192.656 25.0126 189.907 24.9108C189.092 25.4199 188.889 26.1326 188.889 26.9472C188.889 27.7617 189.092 28.4745 189.907 28.8818H195.405C195.813 28.8818 196.118 29.1872 196.118 29.6963V94.4538C196.118 94.8611 195.914 95.1666 195.507 95.1666H189.907C189.092 95.5739 188.889 96.3884 188.889 97.203C188.889 98.0175 189.092 98.7303 189.907 99.1376L201.514 98.8321ZM220.657 27.9654C226.664 27.9654 230.431 33.26 230.431 50.3658C230.431 67.6752 225.544 73.3771 218.111 73.3771C213.631 73.3771 209.558 71.2389 206.809 65.7406V38.9619C211.086 31.5291 215.667 27.9654 220.657 27.9654ZM251.082 50.7731C251.082 67.2679 261.163 77.6535 274.094 77.6535C283.156 77.6535 290.487 72.2571 293.44 65.4351C294.356 63.5006 295.272 60.6496 295.272 59.2241C295.272 58.0023 294.661 57.2895 293.643 57.2895C292.523 57.2895 291.912 58.2059 291.505 59.835C289.876 67.3697 283.563 73.1735 276.436 73.1735C267.374 73.1735 263.097 65.537 263.097 52.4022V49.7549H291.607C294.051 49.7549 295.374 48.533 295.374 46.0893C295.374 32.14 285.803 23.4853 274.297 23.4853C261.163 23.4853 251.082 35.7037 251.082 50.7731ZM263.301 45.8857C263.81 34.38 267.985 27.1508 274.399 27.1508C281.323 27.1508 284.887 34.5837 284.887 44.0529C284.887 45.2748 284.276 45.8857 283.054 45.8857H263.301ZM346.026 77.1444C353.357 77.1444 355.8 70.1189 355.8 64.8242C355.8 63.1951 354.884 61.8714 353.866 61.8714C352.746 61.8714 352.644 62.9915 352.542 63.9078C352.44 68.3879 350.913 72.9698 348.368 72.9698C346.738 72.9698 345.822 71.6462 345.517 68.3879C345.313 66.0461 345.517 64.1115 345.007 60.2423C344.193 52.9113 339.815 50.3658 332.076 49.653C331.567 49.653 331.364 49.4494 331.364 49.2458C331.364 48.8385 331.669 48.8385 332.382 48.4312C334.52 47.3112 336.047 45.3766 336.964 40.9983C337.269 39.8783 338.186 35.3982 338.593 33.3618C339.204 29.6963 340.222 27.8636 341.851 27.8636C342.666 27.8636 343.277 28.4745 343.378 29.3909C343.48 30.9182 342.055 32.0382 342.156 34.2782C342.258 36.7219 344.091 38.351 347.146 38.351C350.404 38.351 352.237 36.0092 352.237 32.0382C352.237 27.5581 349.386 24.198 343.684 24.198C338.695 24.198 336.149 27.6599 335.131 33.4637L334.011 39.471C332.789 45.4784 330.04 48.0239 325.458 48.0239H321.385V29.7981C321.385 29.3909 321.691 29.0854 321.996 29.0854H327.087C327.902 28.5763 328.105 27.8636 328.105 27.049C328.105 26.2344 327.902 25.5217 327.087 25.1144L316.091 25.3181L304.585 25.1144C303.872 25.5217 303.567 26.2344 303.567 27.049C303.567 27.8636 303.872 28.5763 304.585 29.0854H310.083C310.49 29.0854 310.796 29.3909 310.796 29.7981V71.5443C310.796 71.9516 310.49 72.2571 310.083 72.2571H304.585C303.872 72.6644 303.567 73.3771 303.567 74.1917C303.567 75.0062 303.872 75.719 304.585 76.2281L316.091 75.9226L327.087 76.2281C327.902 75.719 328.105 75.0062 328.105 74.1917C328.105 73.3771 327.902 72.6644 327.087 72.2571H321.996C321.691 72.2571 321.385 71.9516 321.385 71.5443V51.2822H324.949C331.669 51.2822 333.807 53.8277 334.418 60.5478L334.825 65.4351C335.742 73.1735 338.593 77.1444 346.026 77.1444ZM361.255 50.7731C361.255 67.2679 371.335 77.6535 384.266 77.6535C392.921 77.6535 399.845 72.5625 402.797 65.4351C403.714 63.6024 404.528 60.6496 404.528 59.2241C404.528 58.0023 404.019 57.2895 402.899 57.2895C401.779 57.2895 401.168 58.2059 400.761 59.835C399.234 67.3697 393.43 73.1735 386.303 73.1735C377.75 73.1735 373.371 66.3515 373.371 50.3658C373.371 34.5837 378.462 27.2526 386.303 27.2526C390.375 27.2526 394.856 29.1872 394.856 33.0564C394.856 35.0928 392.208 37.7401 392.208 40.2856C392.208 43.2384 394.448 45.3766 397.706 45.3766C401.881 45.3766 403.917 42.1184 403.917 38.9619C403.917 36.8237 403.001 34.0746 401.677 32.2418C398.419 27.049 392.717 23.4853 384.877 23.4853C371.233 23.4853 361.255 35.7037 361.255 50.7731ZM412.968 76.2281L424.473 75.9226L435.979 76.2281C436.692 75.719 436.997 75.0062 436.997 74.1917C436.997 73.3771 436.692 72.6644 435.979 72.2571H430.379C430.073 72.2571 429.768 71.9516 429.768 71.5443V71.0352L450.335 36.9255V71.5443C450.335 71.9516 450.132 72.2571 449.725 72.2571H444.226C443.412 72.6644 443.106 73.3771 443.106 74.1917C443.106 75.0062 443.412 75.719 444.226 76.2281L455.63 75.9226L467.136 76.2281C467.95 75.719 468.256 75.0062 468.256 74.1917C468.256 73.3771 467.95 72.6644 467.136 72.2571H461.637C461.23 72.2571 461.027 71.9516 461.027 71.5443V29.7981C461.027 29.3909 461.23 29.0854 461.637 29.0854H467.136C467.95 28.5763 468.256 27.8636 468.256 27.049C468.256 26.2344 467.95 25.5217 467.136 25.1144L455.63 25.3181L444.226 25.1144C443.412 25.5217 443.106 26.2344 443.106 27.049C443.106 27.8636 443.412 28.5763 444.226 29.0854H449.725C450.132 29.0854 450.335 29.289 450.335 29.6963V30.3072L429.768 64.4169V29.7981C429.768 29.3909 430.073 29.0854 430.379 29.0854H435.979C436.692 28.5763 436.997 27.8636 436.997 27.049C436.997 26.2344 436.692 25.5217 435.979 25.1144L424.473 25.3181L412.968 25.1144C412.255 25.5217 411.949 26.2344 411.949 27.049C411.949 27.8636 412.255 28.5763 412.968 29.0854H418.466C418.873 29.0854 419.179 29.3909 419.179 29.7981V71.5443C419.179 71.9516 418.873 72.2571 418.466 72.2571H412.968C412.255 72.6644 411.949 73.3771 411.949 74.1917C411.949 75.0062 412.255 75.719 412.968 76.2281ZM482.818 77.1444C490.048 77.1444 492.695 73.2753 493.917 65.537L494.63 60.7514C495.546 54.2349 497.481 52.3004 503.284 52.3004H507.357V71.4425C507.357 71.8498 507.153 72.1553 506.746 72.1553H500.637C499.924 72.6644 499.619 73.3771 499.619 74.1917C499.619 75.0062 499.924 75.719 500.637 76.2281C500.942 76.1262 512.448 75.9226 512.754 75.9226C512.957 75.9226 524.056 76.1262 524.361 76.2281C525.074 75.719 525.379 75.0062 525.379 74.1917C525.379 73.3771 525.074 72.6644 524.361 72.1553H518.659C518.252 72.1553 518.048 71.8498 518.048 71.5443V29.7981C518.048 29.3909 518.252 29.0854 518.659 29.0854H524.361C525.074 28.5763 525.379 27.8636 525.379 27.049C525.379 26.2344 525.074 25.5217 524.361 25.1144L512.754 25.3181L500.535 25.1144C487.909 25.0126 481.291 30.8163 481.291 38.6565C481.291 46.293 486.178 49.8567 494.324 50.1621C494.833 50.1621 495.037 50.4676 495.037 50.6712C495.037 50.9767 494.935 51.1803 494.426 51.2822C488.724 51.5876 485.466 54.4386 484.142 60.1405C483.429 63.3987 483.328 65.8424 483.022 68.3879C482.615 71.6462 481.902 72.868 480.273 72.868C478.033 72.868 477.015 68.1843 476.811 63.806C476.811 62.8896 476.709 61.8714 475.691 61.8714C474.571 61.8714 473.756 63.1951 473.756 64.8242C473.96 70.2207 475.589 77.1444 482.818 77.1444ZM501.961 48.7367C495.037 48.7367 492.288 45.9875 492.288 39.2674C492.288 31.7327 495.648 29.0854 501.553 29.0854H506.746C507.153 29.0854 507.357 29.289 507.357 29.6963V48.7367H501.961Z" fill="black"/>
</svg>
