<svg width="357" height="82" viewBox="0 0 357 82" fill="none" xmlns="http://www.w3.org/2000/svg">
<path d="M85.3687 68.4311V69H59.0087V68.4311H62.0429C64.5083 68.4311 66.1834 68.0518 67.0684 67.2932C68.0166 66.5347 68.4907 65.0808 68.4907 62.9315V4.5224L40.5188 57.7164H38.9069L10.5557 4.04829V45.2002C10.5557 57.3371 11.6619 65.0808 13.8744 68.4311H19.3739V69H0.978868V68.4311H6.47843C8.69089 65.144 9.79713 56.4205 9.79713 42.2608V6.03952C9.79713 2.68921 8.37483 1.01406 5.53023 1.01406H0.694408V0.445136H16.8138L43.2686 50.5101L69.6286 0.445136H85.3687V1.01406H82.2396C80.2168 1.01406 78.7313 1.23531 77.7831 1.6778C76.5188 2.24672 75.8867 3.79544 75.8867 6.32398V62.9315C75.8867 65.0808 76.2976 66.5347 77.1193 67.2932C77.9411 68.0518 79.6163 68.4311 82.1448 68.4311H85.3687ZM110.953 22.2537C116.642 22.2537 121.004 24.2134 124.038 28.1326C127.072 32.115 128.621 36.7296 128.684 41.9763H97.2989C97.2989 59.5496 102.324 68.3363 112.375 68.3363C118.697 68.3363 123.817 65.2072 127.736 58.9491L128.21 59.2335C123.975 66.4399 118.096 70.043 110.574 70.043C108.298 70.043 106.022 69.6637 103.747 68.9052C101.534 68.0834 99.385 66.8507 97.2989 65.2072C95.2129 63.5004 93.5061 61.0351 92.1787 57.8112C90.9144 54.5874 90.2823 50.7946 90.2823 46.4328C90.2823 39.0369 92.1155 33.158 95.7818 28.7963C99.5114 24.4346 104.568 22.2537 110.953 22.2537ZM97.2989 41.4074H122.047C122.047 36.0342 121.067 31.6093 119.108 28.1326C117.085 24.5926 114.114 22.8227 110.194 22.8227C102.419 22.8227 98.1207 29.0176 97.2989 41.4074ZM175.54 68.4311V81.6111H174.971V78.5768C174.971 72.1923 170.325 69 161.033 69H142.258C137.328 69 133.756 69.7902 131.544 71.3705C129.395 73.014 128.32 75.4162 128.32 78.5768V81.6111H127.751V68.4311H130.88C134.357 68.4311 137.328 65.0176 139.793 58.1905C140.931 55.1563 141.879 51.0474 142.638 45.8639C143.586 39.669 144.06 34.6119 144.06 30.6927C144.123 28.6699 143.776 27.0896 143.017 25.9517C142.322 24.8139 140.805 24.1501 138.466 23.9605H136.664V23.3916H175.066V23.9605H172.316C170.42 23.9605 169.124 24.2766 168.429 24.9087C167.797 25.4776 167.481 26.6155 167.481 28.3222V64.0694C167.481 65.6497 167.797 66.7875 168.429 67.4829C169.124 68.115 170.325 68.4311 172.032 68.4311H175.54ZM161.507 64.6383V27.6585C161.507 25.1932 159.863 23.9605 156.576 23.9605H152.499C149.781 23.9605 147.916 24.403 146.905 25.288C145.893 26.2994 145.261 28.6383 145.008 32.3047C144.566 37.9306 144.06 42.5768 143.491 46.2432C142.543 51.9324 141.468 56.2309 140.267 59.1387C138.56 63.7533 136.569 66.8507 134.294 68.4311H157.24C158.378 68.4311 159.168 68.3995 159.611 68.3363C160.053 68.273 160.464 67.957 160.843 67.3881C161.286 66.8191 161.507 65.9025 161.507 64.6383ZM206.301 44.0623V44.3468C210.6 44.5997 214.076 45.8323 216.731 48.0448C219.45 50.194 220.809 53.0702 220.809 56.6734C220.809 60.1501 219.292 63.0896 216.257 65.4917C213.223 67.8306 209.209 69 204.215 69H178.045V68.4311H180.795C182.944 68.4311 184.271 68.2098 184.777 67.7673C185.346 67.2616 185.63 65.9974 185.63 63.9745V28.417C185.63 26.6471 185.314 25.4776 184.682 24.9087C184.05 24.2766 182.754 23.9605 180.795 23.9605H178.045V23.3916H202.698C213.571 23.3916 219.007 26.5839 219.007 32.9684C219.007 36.1923 217.743 38.784 215.214 40.7436C212.749 42.64 209.778 43.7463 206.301 44.0623ZM212.465 33.158C212.465 29.1756 210.789 26.5522 207.439 25.288C204.847 24.403 202.382 23.9605 200.043 23.9605C194.48 23.9605 191.699 25.5092 191.699 28.6067V44.0623H200.707C204.816 44.0623 207.787 43.209 209.62 41.5022C211.516 39.7322 212.465 36.9508 212.465 33.158ZM213.792 56.4838C213.792 48.5821 209.304 44.6313 200.328 44.6313H191.699V64.0694C191.699 65.8393 192.173 67.0088 193.121 67.5777C194.133 68.1466 195.934 68.4311 198.526 68.4311C201.118 68.4311 203.52 68.1466 205.732 67.5777C207.502 67.1352 208.861 66.5347 209.81 65.7761C212.465 63.8165 213.792 60.7191 213.792 56.4838ZM247.257 22.2537C252.946 22.2537 257.308 24.2134 260.342 28.1326C263.376 32.115 264.925 36.7296 264.988 41.9763H233.603C233.603 59.5496 238.628 68.3363 248.679 68.3363C255 68.3363 260.121 65.2072 264.04 58.9491L264.514 59.2335C260.279 66.4399 254.4 70.043 246.877 70.043C244.602 70.043 242.326 69.6637 240.05 68.9052C237.838 68.0834 235.689 66.8507 233.603 65.2072C231.517 63.5004 229.81 61.0351 228.482 57.8112C227.218 54.5874 226.586 50.7946 226.586 46.4328C226.586 39.0369 228.419 33.158 232.086 28.7963C235.815 24.4346 240.872 22.2537 247.257 22.2537ZM233.603 41.4074H258.351C258.351 36.0342 257.371 31.6093 255.411 28.1326C253.388 24.5926 250.417 22.8227 246.498 22.8227C238.723 22.8227 234.424 29.0176 233.603 41.4074ZM311.844 68.4311V81.6111H311.275V78.5768C311.275 72.1923 306.629 69 297.337 69H278.562C273.632 69 270.06 69.7902 267.848 71.3705C265.698 73.014 264.624 75.4162 264.624 78.5768V81.6111H264.055V68.4311H267.184C270.661 68.4311 273.632 65.0176 276.097 58.1905C277.235 55.1563 278.183 51.0474 278.941 45.8639C279.89 39.669 280.364 34.6119 280.364 30.6927C280.427 28.6699 280.079 27.0896 279.321 25.9517C278.625 24.8139 277.108 24.1501 274.769 23.9605H272.968V23.3916H311.37V23.9605H308.62C306.724 23.9605 305.428 24.2766 304.732 24.9087C304.1 25.4776 303.784 26.6155 303.784 28.3222V64.0694C303.784 65.6497 304.1 66.7875 304.732 67.4829C305.428 68.115 306.629 68.4311 308.336 68.4311H311.844ZM297.811 64.6383V27.6585C297.811 25.1932 296.167 23.9605 292.88 23.9605H288.803C286.085 23.9605 284.22 24.403 283.208 25.288C282.197 26.2994 281.565 28.6383 281.312 32.3047C280.869 37.9306 280.364 42.5768 279.795 46.2432C278.847 51.9324 277.772 56.2309 276.571 59.1387C274.864 63.7533 272.873 66.8507 270.597 68.4311H293.544C294.682 68.4311 295.472 68.3995 295.914 68.3363C296.357 68.273 296.768 67.957 297.147 67.3881C297.589 66.8191 297.811 65.9025 297.811 64.6383ZM327.908 28.417V41.3126C331.132 40.4276 334.672 39.9851 338.528 39.9851C344.596 39.9851 349.116 41.4706 352.087 44.4416C354.995 47.4126 356.449 50.763 356.449 54.4925C356.449 58.6646 354.995 62.2362 352.087 65.2072C349.179 68.2414 344.565 69.7586 338.243 69.7586C336.663 69.7586 334.83 69.6637 332.744 69.4741C327.497 69.158 321.365 69 314.349 69V68.4311H317.193C318.9 68.4311 320.101 68.115 320.796 67.4829C321.555 66.8507 321.934 65.6813 321.934 63.9745V28.417C321.934 26.7103 321.587 25.5408 320.891 24.9087C320.259 24.2766 319.026 23.9605 317.193 23.9605H314.349V23.3916H335.493V23.9605H332.649C330.816 23.9605 329.551 24.2766 328.856 24.9087C328.224 25.5408 327.908 26.7103 327.908 28.417ZM349.432 54.4925C349.432 53.2915 349.337 52.1536 349.148 51.079C349.021 49.9412 348.673 48.7085 348.105 47.381C347.536 46.0536 346.777 44.9157 345.829 43.9675C344.944 43.0193 343.648 42.2292 341.941 41.597C340.298 40.9017 338.338 40.554 336.062 40.554C333.091 40.554 330.373 40.9965 327.908 41.8815V67.0088C330.247 68.4627 333.155 69.1896 336.631 69.1896C340.614 69.1896 343.743 67.8938 346.018 65.302C348.294 62.6471 349.432 59.0439 349.432 54.4925Z" fill="black"/>
</svg>
