<svg width="80" height="96" viewBox="0 0 80 96" fill="none" xmlns="http://www.w3.org/2000/svg">
<path fill-rule="evenodd" clip-rule="evenodd" d="M50.7268 46.0897L42.6195 66.2699C45.2507 66.7652 45.91 68.9667 45.7635 70.6973L34.7747 70.5934L33.9566 56.2593L28.6697 58.0939L27.6197 66.2088C32.1251 67.7192 30.4585 71.0092 30.4585 71.0092L20.8494 70.948C20.8494 70.948 17.4611 66.1415 11.3684 57.6842C5.48331 49.5203 4.78125 45.4537 4.78125 40.7206C4.78125 24.3012 25.367 22.4728 40.8673 29.4747C44.2128 29.4747 50.6352 29.6459 56.3921 29.8416C56.7041 29.1927 57.183 28.6389 57.7796 28.2369C58.3762 27.8349 59.0689 27.5994 59.7865 27.5545L61.1906 30.0006H61.7095C67.0696 30.2146 68.8339 31.7128 69.2369 33.7247L74.7313 34.8438C74.7313 34.8438 75.7752 38.8432 72.1001 39.999C67.1856 41.595 54.988 44.9339 50.7268 46.0897ZM17.3085 70.7952L8.21831 70.679L9.24394 60.2158L17.3085 70.7952ZM60.4214 56.0269C63.3945 59.0845 59.8902 65.9275 59.8902 65.9275L58.0588 65.5483C58.0588 65.5483 57.2773 62.1238 54.2005 61.4144L49.1883 60.2587L52.9184 48.3218L60.4214 56.0269Z" fill="black"/>
</svg>
