<svg width="372" height="59" viewBox="0 0 372 59" fill="none" xmlns="http://www.w3.org/2000/svg">
<path d="M38.1357 7.13945L13.1619 48.0425H0L28.9561 0.794752H40.0931V41.4953L65.0669 0.794752H76.2038V48.0425H74.2464V7.13945L49.2726 48.0425H38.1357V7.13945ZM121.76 36.2305V48.0425H81.5999V0.794752H121.76V12.6067H83.4223V23.4737H116.226V25.4311H83.4223V36.2305H121.76ZM177.511 58.167H175.553V48.0425H126.618V58.167H124.661V36.2305H130.803L139.847 0.794752H171.368V36.2305H177.511V58.167ZM169.411 36.2305V12.6067H138.835L132.76 36.2305H169.411ZM225.28 31.6408C225.28 35.7356 224.988 38.8404 224.403 40.9553C223.818 43.0702 222.243 44.7801 219.678 46.0851C217.113 47.39 212.974 48.0425 207.259 48.0425H180.868V0.794752H205.099C210.814 0.794752 214.931 1.37972 217.451 2.54967C219.971 3.67461 221.546 5.31704 222.176 7.47693C222.806 9.63683 223.121 13.0117 223.121 17.6014C223.121 18.5914 222.738 19.7163 221.973 20.9763C221.208 22.2362 220.106 23.2487 218.666 24.0136C220.466 24.5536 222.018 25.4761 223.323 26.781C224.628 28.0859 225.28 29.7059 225.28 31.6408ZM212.591 23.4737C214.571 23.4737 216.461 23.0012 218.261 22.0562C220.061 21.1113 220.961 19.7388 220.961 17.9389C220.961 16.049 219.926 14.6991 217.856 13.8891C215.831 13.0342 213.536 12.6067 210.971 12.6067H182.825V23.4737H212.591ZM213.131 36.2305C216.236 36.2305 218.688 35.7356 220.488 34.7456C222.288 33.7557 223.188 32.4507 223.188 30.8308C223.188 29.5709 222.693 28.5359 221.703 27.726C220.713 26.916 219.543 26.331 218.193 25.971C216.888 25.6111 215.741 25.4311 214.751 25.4311H182.825V36.2305H213.131ZM270.53 36.2305V48.0425H230.37V0.794752H270.53V12.6067H232.192V23.4737H264.995V25.4311H232.192V36.2305H270.53ZM326.28 58.167H324.323V48.0425H275.388V58.167H273.43V36.2305H279.573L288.617 0.794752H320.138V36.2305H326.28V58.167ZM318.181 36.2305V12.6067H287.605L281.53 36.2305H318.181ZM371.553 27.1185C371.823 28.2434 371.958 29.9309 371.958 32.1807C371.958 36.2305 371.328 39.4029 370.068 41.6978C368.853 43.9927 366.94 45.6351 364.331 46.625C361.721 47.615 358.233 48.11 353.869 48.11H329.637V0.862248H331.595V20.7063H361.361C363.566 20.7063 365.681 21.3138 367.705 22.5287C369.775 23.6987 371.058 25.2286 371.553 27.1185ZM370 29.8184C370 27.6135 369.145 25.881 367.435 24.6211C365.771 23.3162 363.746 22.6637 361.361 22.6637H331.595V36.298H359.741C362.306 36.298 364.646 35.8706 366.76 35.0156C368.92 34.1606 370 32.4282 370 29.8184Z" fill="black"/>
</svg>
