<svg width="392" height="83" viewBox="0 0 392 83" fill="none" xmlns="http://www.w3.org/2000/svg">
<path d="M11.5826 0.588906L33.6209 55.5919L55.6591 0.588906H67.1875V68H58.2981V41.7486L59.1315 13.4137L37.0007 68H30.1947L8.1102 13.5526L8.98988 41.7486V68H0.100503V0.588906H11.5826ZM102.328 68.926C95.5378 68.926 90.0128 66.7036 85.7533 62.2589C81.4938 57.7834 79.3641 51.8108 79.3641 44.3413V42.7671C79.3641 37.7977 80.3055 33.3685 82.1883 29.4794C84.102 25.5594 86.7565 22.5037 90.1517 20.3122C93.5778 18.0899 97.2817 16.9787 101.263 16.9787C107.776 16.9787 112.838 19.1239 116.449 23.4142C120.061 27.7046 121.866 33.8469 121.866 41.8412V45.4062H87.9294C88.0528 50.3447 89.4881 54.3418 92.2352 57.3976C95.0131 60.4224 98.5318 61.9349 102.791 61.9349C105.816 61.9349 108.378 61.3175 110.477 60.0829C112.576 58.8483 114.412 57.2124 115.986 55.1752L121.218 59.2495C117.02 65.7005 110.724 68.926 102.328 68.926ZM101.263 24.0161C97.8065 24.0161 94.9051 25.2816 92.5593 27.8126C90.2135 30.3128 88.7628 33.8315 88.2072 38.3688H113.301V37.7206C113.054 33.3685 111.881 30.0041 109.782 27.6274C107.684 25.2199 104.844 24.0161 101.263 24.0161ZM131.404 61.0089L134.367 57.3513C137.701 53.03 139.599 46.5482 140.062 37.9058L140.849 17.9047H173.119V61.0089H179.555V82.723H170.989V68H136.034V82.723H127.469L127.515 61.0089H131.404ZM141.543 61.0089H164.554V25.8218H149.136L148.627 37.7669C148.102 47.7365 145.741 55.4839 141.543 61.0089ZM189.833 68V17.9047H209.371C216.038 17.9047 221.147 19.0776 224.696 21.4234C228.277 23.7383 230.067 27.149 230.067 31.6554C230.067 33.9704 229.372 36.0692 227.983 37.9521C226.594 39.804 224.542 41.2238 221.826 42.2116C224.85 42.9215 227.273 44.3104 229.095 46.3784C230.946 48.4465 231.872 50.9157 231.872 53.7863C231.872 58.3853 230.175 61.904 226.78 64.3424C223.415 66.7808 218.646 68 212.473 68H189.833ZM198.398 46.0081V61.1015H212.566C216.146 61.1015 218.816 60.4379 220.576 59.1106C222.366 57.7834 223.261 55.916 223.261 53.5085C223.261 48.5082 219.588 46.0081 212.242 46.0081H198.398ZM198.398 39.1558H209.464C217.489 39.1558 221.501 36.81 221.501 32.1184C221.501 27.4268 217.705 25.0038 210.112 24.8495H198.398V39.1558ZM264.004 68.926C257.213 68.926 251.688 66.7036 247.429 62.2589C243.169 57.7834 241.04 51.8108 241.04 44.3413V42.7671C241.04 37.7977 241.981 33.3685 243.864 29.4794C245.778 25.5594 248.432 22.5037 251.827 20.3122C255.253 18.0899 258.957 16.9787 262.939 16.9787C269.452 16.9787 274.514 19.1239 278.125 23.4142C281.736 27.7046 283.542 33.8469 283.542 41.8412V45.4062H249.605C249.728 50.3447 251.164 54.3418 253.911 57.3976C256.689 60.4224 260.207 61.9349 264.467 61.9349C267.492 61.9349 270.054 61.3175 272.152 60.0829C274.251 58.8483 276.088 57.2124 277.662 55.1752L282.894 59.2495C278.696 65.7005 272.399 68.926 264.004 68.926ZM262.939 24.0161C259.482 24.0161 256.581 25.2816 254.235 27.8126C251.889 30.3128 250.438 33.8315 249.883 38.3688H274.977V37.7206C274.73 33.3685 273.557 30.0041 271.458 27.6274C269.359 25.2199 266.519 24.0161 262.939 24.0161ZM293.079 61.0089L296.043 57.3513C299.376 53.03 301.274 46.5482 301.737 37.9058L302.524 17.9047H334.795V61.0089H341.23V82.723H332.665V68H297.709V82.723H289.144L289.19 61.0089H293.079ZM303.219 61.0089H326.229V25.8218H310.812L310.303 37.7669C309.778 47.7365 307.417 55.4839 303.219 61.0089ZM360.074 35.1741H373.084C378.763 35.2359 383.254 36.7174 386.557 39.6188C389.859 42.5202 391.511 46.4556 391.511 51.425C391.511 56.4253 389.813 60.4379 386.418 63.4627C383.023 66.4876 378.455 68 372.713 68H351.509V17.9047H360.074V35.1741ZM360.074 42.1653V61.0089H372.806C376.016 61.0089 378.501 60.1909 380.26 58.555C382.02 56.8883 382.899 54.6196 382.899 51.7491C382.899 48.9712 382.035 46.7025 380.306 44.9432C378.609 43.153 376.217 42.227 373.13 42.1653H360.074Z" fill="black"/>
</svg>
