<svg width="364" height="83" viewBox="0 0 364 83" fill="none" xmlns="http://www.w3.org/2000/svg">
<path d="M75.2097 2.4734C72.9455 2.59919 71.2788 2.85077 70.2096 3.22814C69.2033 3.60551 68.5114 4.3288 68.134 5.39801C67.7567 6.46722 67.568 8.19683 67.568 10.5868V57.3806C67.568 59.7706 67.7567 61.5002 68.134 62.5694C68.5114 63.6386 69.2033 64.3619 70.2096 64.7393C71.2788 65.1166 72.9455 65.3682 75.2097 65.494V67.3809C72.3166 67.1922 68.3227 67.0978 63.2282 67.0978C57.8193 67.0978 53.794 67.1922 51.1524 67.3809V65.494C53.4167 65.3682 55.0519 65.1166 56.0582 64.7393C57.1275 64.3619 57.8507 63.6386 58.2281 62.5694C58.6055 61.5002 58.7942 59.7706 58.7942 57.3806V6.81314L36.0577 67.8526H34.5482L10.774 6.62446V56.4372C10.774 58.8901 10.9627 60.714 11.34 61.909C11.7803 63.104 12.5979 63.9845 13.7929 64.5506C14.9879 65.0538 16.8433 65.3682 19.3591 65.494V67.3809C17.0949 67.1922 13.8873 67.0978 9.7362 67.0978C5.96251 67.0978 3.0379 67.1922 0.962374 67.3809V65.494C3.16369 65.3682 4.79896 65.0538 5.86817 64.5506C6.93738 63.9845 7.66067 63.104 8.03804 61.909C8.41541 60.6511 8.60409 58.8272 8.60409 56.4372V10.5868C8.60409 8.19683 8.41541 6.46722 8.03804 5.39801C7.66067 4.3288 6.93738 3.60551 5.86817 3.22814C4.86185 2.85077 3.22659 2.59919 0.962374 2.4734V0.586559C3.0379 0.775241 5.96251 0.869582 9.7362 0.869582C13.0067 0.869582 15.6798 0.775241 17.7553 0.586559L38.5106 55.2107L58.7942 0.869582H63.2282C68.3227 0.869582 72.3166 0.775241 75.2097 0.586559V2.4734ZM121.203 56.0598C120.071 59.519 117.932 62.5065 114.788 65.0223C111.706 67.4752 107.964 68.7017 103.561 68.7017C99.0955 68.7017 95.2275 67.6953 91.9569 65.6827C88.6864 63.6072 86.1706 60.7455 84.4096 57.0976C82.7114 53.3868 81.8623 49.1099 81.8623 44.267C81.8623 38.7952 82.7428 34.0466 84.5039 30.0213C86.2649 25.9961 88.7493 22.9142 91.9569 20.7758C95.1646 18.5745 98.9068 17.4738 103.184 17.4738C108.844 17.4738 113.184 19.2034 116.203 22.6626C119.285 26.059 120.826 31.2478 120.826 38.2291H91.2965C91.1078 39.9902 91.0135 42.0028 91.0135 44.267C91.0135 48.4181 91.6739 52.0345 92.9947 55.1164C94.3784 58.1982 96.1709 60.5882 98.3722 62.2864C100.636 63.9216 102.995 64.7393 105.448 64.7393C108.467 64.7393 111.14 64.016 113.467 62.5694C115.794 61.1228 117.744 58.7014 119.316 55.3051L121.203 56.0598ZM102.806 19.2663C99.8502 19.2663 97.303 20.7129 95.1646 23.6061C93.0261 26.4992 91.7054 30.7761 91.2022 36.4366H111.769C111.895 31.5308 111.171 27.4426 109.599 24.1721C108.089 20.9016 105.825 19.2663 102.806 19.2663ZM169.29 65.3997C168.849 69.5507 168.629 73.1986 168.629 76.3434C168.629 78.8592 168.723 80.8089 168.912 82.1926H166.742C166.365 78.1044 165.893 75.0226 165.327 72.9471C164.824 70.9344 163.943 69.4249 162.686 68.4186C161.428 67.4752 159.509 67.0035 156.931 67.0035L150.044 67.0978C146.647 67.2865 141.616 67.3809 134.949 67.3809C132.37 67.3809 130.452 67.8211 129.194 68.7017C127.936 69.6451 127.024 71.0917 126.458 73.0414C125.892 75.054 125.452 78.1044 125.137 82.1926H122.968C123.156 80.8089 123.251 78.8592 123.251 76.3434C123.251 73.1986 123.03 69.5507 122.59 65.3997H124.383C126.207 65.3997 127.779 64.7393 129.1 63.4185C130.483 62.0348 131.553 60.3366 132.307 58.324C133.754 54.5503 134.855 50.1477 135.609 45.1161C136.427 40.0216 137.087 34.2038 137.591 27.6628C137.779 25.147 137.245 23.3859 135.987 22.3796C134.792 21.3733 132.842 20.8701 130.138 20.8701V18.889C132.905 19.1405 135.043 19.2663 136.553 19.2663C137.559 19.2663 139.131 19.2034 141.27 19.0776C143.534 18.9518 145.295 18.889 146.553 18.889C147.622 18.889 149.163 18.9518 151.176 19.0776C153.44 19.2034 155.327 19.2663 156.836 19.2663C158.66 19.2663 162.465 19.1405 168.252 18.889V20.8701C165.61 20.8701 163.755 21.3733 162.686 22.3796C161.616 23.323 161.082 25.0841 161.082 27.6628V58.607C161.082 60.431 161.302 61.8147 161.742 62.7581C162.182 63.7015 162.969 64.3934 164.101 64.8336C165.233 65.211 166.962 65.3997 169.29 65.3997ZM152.591 27.6628C152.591 25.0841 152.119 23.323 151.176 22.3796C150.295 21.3733 148.691 20.8701 146.364 20.8701H145.515C143.251 20.8701 141.71 21.3418 140.893 22.2853C140.075 23.2287 139.54 25.0212 139.289 27.6628C138.723 34.6441 138.062 40.6506 137.308 45.6821C136.553 50.7137 135.389 55.0849 133.817 58.7957C132.496 61.9405 130.924 64.1418 129.1 65.3997H146.364C148.691 65.3997 150.295 64.928 151.176 63.9845C152.119 62.9782 152.591 61.1857 152.591 58.607V27.6628ZM201.877 42.0971C207.915 42.4116 212.286 43.5437 214.99 45.4935C217.695 47.4432 219.047 50.1791 219.047 53.7012C219.047 57.7894 217.349 61.0914 213.952 63.6072C210.619 66.123 205.273 67.3809 197.914 67.3809C196.719 67.3809 194.801 67.318 192.159 67.1922C189.266 67.0664 186.971 67.0035 185.272 67.0035C183.637 67.0035 179.926 67.1293 174.14 67.3809V65.3997C176.782 65.3997 178.637 64.928 179.706 63.9845C180.775 62.9782 181.31 61.1857 181.31 58.607V27.6628C181.31 25.0841 180.775 23.323 179.706 22.3796C178.637 21.3733 176.782 20.8701 174.14 20.8701V18.889C179.926 19.1405 183.637 19.2663 185.272 19.2663C186.971 19.2663 189.329 19.2034 192.348 19.0776C194.864 18.9518 196.625 18.889 197.631 18.889C204.235 18.889 208.952 19.8953 211.783 21.9079C214.613 23.8576 216.028 26.6565 216.028 30.3044C216.028 33.1346 214.802 35.619 212.349 37.7574C209.959 39.8958 206.468 41.3424 201.877 42.0971ZM196.688 20.8701C194.109 20.8701 192.317 21.3733 191.31 22.3796C190.304 23.3859 189.801 25.147 189.801 27.6628V41.8141H193.575C197.285 41.7512 200.116 41.3424 202.065 40.5877C204.078 39.77 205.462 38.6065 206.216 37.097C206.971 35.5875 207.349 33.5749 207.349 31.0591C207.349 27.7886 206.594 25.2728 205.084 23.5117C203.575 21.7507 200.776 20.8701 196.688 20.8701ZM196.971 65.3997C201.877 65.3997 205.304 64.3619 207.254 62.2864C209.204 60.148 210.179 57.3177 210.179 53.7956C210.179 50.0219 209.141 47.3489 207.066 45.7765C204.99 44.2041 202.065 43.4179 198.292 43.4179H189.801V58.607C189.801 61.2486 190.304 63.0411 191.31 63.9845C192.38 64.928 194.266 65.3997 196.971 65.3997ZM266.586 56.0598C265.454 59.519 263.315 62.5065 260.171 65.0223C257.089 67.4752 253.347 68.7017 248.944 68.7017C244.478 68.7017 240.61 67.6953 237.34 65.6827C234.069 63.6072 231.553 60.7455 229.792 57.0976C228.094 53.3868 227.245 49.1099 227.245 44.267C227.245 38.7952 228.126 34.0466 229.887 30.0213C231.648 25.9961 234.132 22.9142 237.34 20.7758C240.547 18.5745 244.29 17.4738 248.567 17.4738C254.227 17.4738 258.567 19.2034 261.586 22.6626C264.668 26.059 266.209 31.2478 266.209 38.2291H236.679C236.491 39.9902 236.396 42.0028 236.396 44.267C236.396 48.4181 237.057 52.0345 238.378 55.1164C239.761 58.1982 241.554 60.5882 243.755 62.2864C246.019 63.9216 248.378 64.7393 250.831 64.7393C253.85 64.7393 256.523 64.016 258.85 62.5694C261.177 61.1228 263.127 58.7014 264.699 55.3051L266.586 56.0598ZM248.189 19.2663C245.233 19.2663 242.686 20.7129 240.547 23.6061C238.409 26.4992 237.088 30.7761 236.585 36.4366H257.152C257.277 31.5308 256.554 27.4426 254.982 24.1721C253.472 20.9016 251.208 19.2663 248.189 19.2663ZM314.672 65.3997C314.232 69.5507 314.012 73.1986 314.012 76.3434C314.012 78.8592 314.106 80.8089 314.295 82.1926H312.125C311.748 78.1044 311.276 75.0226 310.71 72.9471C310.207 70.9344 309.326 69.4249 308.068 68.4186C306.811 67.4752 304.892 67.0035 302.314 67.0035L295.427 67.0978C292.03 67.2865 286.999 67.3809 280.332 67.3809C277.753 67.3809 275.835 67.8211 274.577 68.7017C273.319 69.6451 272.407 71.0917 271.841 73.0414C271.275 75.054 270.835 78.1044 270.52 82.1926H268.35C268.539 80.8089 268.633 78.8592 268.633 76.3434C268.633 73.1986 268.413 69.5507 267.973 65.3997H269.766C271.589 65.3997 273.162 64.7393 274.483 63.4185C275.866 62.0348 276.936 60.3366 277.69 58.324C279.137 54.5503 280.238 50.1477 280.992 45.1161C281.81 40.0216 282.47 34.2038 282.973 27.6628C283.162 25.147 282.628 23.3859 281.37 22.3796C280.175 21.3733 278.225 20.8701 275.52 20.8701V18.889C278.288 19.1405 280.426 19.2663 281.936 19.2663C282.942 19.2663 284.514 19.2034 286.653 19.0776C288.917 18.9518 290.678 18.889 291.936 18.889C293.005 18.889 294.546 18.9518 296.559 19.0776C298.823 19.2034 300.71 19.2663 302.219 19.2663C304.043 19.2663 307.848 19.1405 313.635 18.889V20.8701C310.993 20.8701 309.138 21.3733 308.068 22.3796C306.999 23.323 306.465 25.0841 306.465 27.6628V58.607C306.465 60.431 306.685 61.8147 307.125 62.7581C307.565 63.7015 308.351 64.3934 309.484 64.8336C310.616 65.211 312.345 65.3997 314.672 65.3997ZM297.974 27.6628C297.974 25.0841 297.502 23.323 296.559 22.3796C295.678 21.3733 294.074 20.8701 291.747 20.8701H290.898C288.634 20.8701 287.093 21.3418 286.275 22.2853C285.458 23.2287 284.923 25.0212 284.672 27.6628C284.106 34.6441 283.445 40.6506 282.69 45.6821C281.936 50.7137 280.772 55.0849 279.2 58.7957C277.879 61.9405 276.307 64.1418 274.483 65.3997H291.747C294.074 65.3997 295.678 64.928 296.559 63.9845C297.502 62.9782 297.974 61.1857 297.974 58.607V27.6628ZM344.335 39.0782C350.876 39.0782 355.656 40.3046 358.675 42.7575C361.757 45.1475 363.298 48.4181 363.298 52.5691C363.298 55.0849 362.606 57.4749 361.222 59.7391C359.838 61.9405 357.606 63.7644 354.524 65.211C351.505 66.6576 347.637 67.3809 342.92 67.3809C341.913 67.3809 340.09 67.318 337.448 67.1922C334.555 67.0664 332.228 67.0035 330.467 67.0035C328.831 67.0035 325.121 67.1293 319.334 67.3809V65.3997C321.976 65.3997 323.831 64.928 324.9 63.9845C325.97 62.9782 326.504 61.1857 326.504 58.607V27.6628C326.504 25.0841 326.033 23.323 325.089 22.3796C324.209 21.3733 322.605 20.8701 320.278 20.8701V18.889C325.561 19.1405 329.083 19.2663 330.844 19.2663C332.605 19.2663 336.379 19.1405 342.165 18.889V20.8701C339.523 20.8701 337.668 21.3733 336.599 22.3796C335.53 23.323 334.995 25.0841 334.995 27.6628V39.0782H344.335ZM341.882 65.3997C346.536 65.3997 349.775 64.299 351.599 62.0977C353.486 59.8335 354.43 56.846 354.43 53.1352C354.43 48.7954 353.203 45.6507 350.75 43.701C348.297 41.6883 344.303 40.682 338.769 40.682H334.995V58.607C334.995 61.1228 335.498 62.8839 336.505 63.8902C337.511 64.8965 339.303 65.3997 341.882 65.3997Z" fill="black"/>
</svg>
