<svg width="400" height="84" viewBox="0 0 400 84" fill="none" xmlns="http://www.w3.org/2000/svg">
<path d="M54.4524 34.2011C57.0125 51.8376 56.6332 55.1563 56.7281 59.8025L51.7026 66.6295L53.0301 69H68.2961C71.52 69 74.5542 68.5259 76.4506 66.6295C81.0968 62.173 83.088 59.518 85.4585 56.1045L84.5103 53.2599H74.7439C75.6921 52.2169 77.3988 48.993 77.3988 45.1054C77.3988 36.2871 72.0889 15.9008 67.9168 0.919235L63.4603 0.539954C59.1934 8.12556 52.7456 21.0211 44.3066 40.4592C42.8843 26.2362 36.9107 0.255498 25.9116 0.255498C19.0845 0.255498 10.8352 8.69448 4.95634 14.5733L6.28382 17.3231C7.32684 17.2283 8.27504 17.0386 9.69734 17.0386C12.0678 17.0386 13.6798 18.8402 15.1021 20.8314C9.79216 40.7436 4.57706 55.5356 0.594622 66.6295L2.01692 69H10.5507C18.0415 69 23.6359 64.259 29.2303 56.1045L27.9028 53.3547H15.671C15.9555 46.5277 17.5674 37.6146 19.7483 28.0378C26.3857 43.209 28.5665 48.5189 36.0573 70.8016H40.0397C45.8238 55.1563 49.901 44.7261 54.4524 34.2011ZM129.951 52.691C127.581 53.8288 121.986 55.6304 117.435 55.6304C112.03 55.6304 106.057 53.5443 105.108 43.9675C119.331 43.3986 132.606 41.6918 132.606 28.2274C132.606 21.4004 126.348 14.6681 114.97 14.6681C101.126 14.6681 85.4807 25.6673 85.4807 44.5364C85.4807 59.1387 94.6783 70.4223 107.858 70.4223C116.866 70.4223 124.641 64.5435 131.658 55.5356L129.951 52.691ZM105.108 39.0369C105.393 32.3995 106.246 28.8911 107.1 26.4258C107.858 26.2362 108.522 26.1414 109.47 26.1414C112.41 26.1414 114.59 27.7533 114.59 31.1668C114.59 34.77 113.263 37.899 105.108 39.0369ZM131.241 58.1905C131.905 65.7761 132.284 75.5426 133.706 83.7919H137.025C139.87 79.525 142.145 75.1633 145.748 69H169.264C171.445 69.1896 172.677 70.4223 173.531 73.5514C174.479 77.0597 174.763 80.3784 175.143 83.4126L178.651 83.9816C183.866 74.3099 187.564 63.4056 188.607 58.2853L186.711 55.1563H176.849C178.367 53.9236 180.073 51.4583 180.073 47.381V29.1756C182.728 25.6673 185.857 21.9693 187.564 19.0299L186.426 16.3749C174.479 15.7112 156.179 15.4267 153.903 15.4267C151.912 15.4267 150.3 15.4267 147.74 17.2283C144.042 20.1677 140.723 22.2537 135.318 28.5119L136.456 31.072H143.947C143.568 42.7349 142.904 49.1826 140.913 55.1563H133.137L131.241 58.1905ZM155.705 31.072H160.73V55.1563H148.403C152.765 49.3723 154.567 39.2265 155.705 31.072ZM189.929 29.9342L194.48 29.6497V60.1817L189.549 66.6295L190.877 69H218.375C225.676 69 241.89 62.0781 241.89 50.2256C241.89 42.8297 236.77 39.3213 228.236 38.8472C234.494 35.3389 238.382 31.6409 238.382 27.1844C238.382 19.6936 230.891 14.8578 216.952 14.8578C209.651 14.8578 199.98 15.7112 198.083 17.4179C195.049 20.2625 192.204 23.4864 188.791 27.374L189.929 29.9342ZM215.625 44.7261C221.314 44.7261 222.926 48.5189 222.926 50.7946C222.926 52.5013 222.452 55.1563 221.788 56.1045H213.065V44.7261H215.625ZM213.065 28.7963H216.573C218.754 28.7963 221.599 30.2186 221.599 32.9684C221.599 35.0544 221.03 37.0457 219.892 38.468L213.065 39.4162V28.7963ZM288.293 52.691C285.923 53.8288 280.328 55.6304 275.777 55.6304C270.372 55.6304 264.399 53.5443 263.45 43.9675C277.673 43.3986 290.948 41.6918 290.948 28.2274C290.948 21.4004 284.69 14.6681 273.312 14.6681C259.468 14.6681 243.823 25.6673 243.823 44.5364C243.823 59.1387 253.02 70.4223 266.2 70.4223C275.208 70.4223 282.983 64.5435 290 55.5356L288.293 52.691ZM263.45 39.0369C263.735 32.3995 264.588 28.8911 265.442 26.4258C266.2 26.2362 266.864 26.1414 267.812 26.1414C270.752 26.1414 272.932 27.7533 272.932 31.1668C272.932 34.77 271.605 37.899 263.45 39.0369ZM289.583 58.1905C290.247 65.7761 290.626 75.5426 292.048 83.7919H295.367C298.212 79.525 300.487 75.1633 304.09 69H327.606C329.787 69.1896 331.019 70.4223 331.873 73.5514C332.821 77.0597 333.105 80.3784 333.485 83.4126L336.993 83.9816C342.208 74.3099 345.906 63.4056 346.949 58.2853L345.053 55.1563H335.191C336.709 53.9236 338.415 51.4583 338.415 47.381V29.1756C341.07 25.6673 344.199 21.9693 345.906 19.0299L344.768 16.3749C332.821 15.7112 314.521 15.4267 312.245 15.4267C310.254 15.4267 308.642 15.4267 306.082 17.2283C302.384 20.1677 299.065 22.2537 293.66 28.5119L294.798 31.072H302.289C301.91 42.7349 301.246 49.1826 299.255 55.1563H291.479L289.583 58.1905ZM314.047 31.072H319.072V55.1563H306.745C311.107 49.3723 312.909 39.2265 314.047 31.072ZM348.46 31.4513H352.727V60.1817L347.797 66.6295L349.124 69H374.062C386.104 69 399.758 59.6128 399.758 47.7603C399.758 40.3644 395.112 32.8736 385.345 32.8736C383.544 32.8736 377.286 35.0544 372.07 36.856V27.8481C375.768 24.1501 377.57 21.6848 379.751 18.5558L378.803 15.7112H364.675C361.451 15.7112 358.322 16.1853 356.425 18.0817C351.779 22.5382 349.693 25.6673 347.133 29.0808L348.46 31.4513ZM373.303 41.9763C378.708 41.9763 380.794 45.2002 380.794 48.6137C380.794 51.7428 379.561 55.5356 378.898 56.4838H372.07V41.9763H373.303Z" fill="black"/>
</svg>
