<svg width="587" height="115" viewBox="0 0 587 115" fill="none" xmlns="http://www.w3.org/2000/svg">
<path d="M31.2503 11.4755C14.037 11.4755 0.10246 26.3322 0 48.3611C0 70.39 13.9346 85.2468 31.1479 85.2468C48.3611 85.3492 62.3982 70.4925 62.3982 48.4636C62.3982 26.4347 48.4636 11.4755 31.2503 11.4755ZM44.5701 55.4309C38.1151 73.7712 28.4839 84.632 19.6723 81.5582C10.8608 78.4844 11.3731 59.7342 17.828 41.3939C24.283 23.0535 33.9143 12.0903 42.7258 15.1641C51.5374 18.2379 51.0251 37.0905 44.5701 55.4309Z" fill="white"/>
<path d="M102.069 84.2222C102.069 84.2222 101.966 80.1238 101.249 68.3409C100.737 58.6071 98.9948 50.7177 96.0235 44.775C102.478 43.3406 110.778 43.1357 123.79 47.7464L123.278 33.6069C123.278 33.6069 114.056 31.2503 105.962 32.07C101.556 36.3733 97.7653 39.652 94.4866 41.9062C89.9783 34.9389 83.216 31.3528 73.8921 31.3528C60.8797 31.3528 60.6747 47.8488 79.5274 48.5661C83.9332 48.771 87.8267 47.0292 92.8472 45.5947C94.4866 55.5333 90.6955 70.7999 85.7775 84.2222H102.069ZM79.22 47.3365C71.1257 47.3365 76.3511 32.8897 84.6504 35.1438C88.6463 36.2709 91.1054 39.1397 92.3349 43.3406C87.5193 46.3119 83.4209 47.3365 79.22 47.3365Z" fill="white"/>
<path d="M144.74 82.173C141.051 80.0213 136.851 62.7055 141.974 40.8816C152.015 43.648 163.798 40.984 169.33 31.9675C178.04 17.828 170.253 0 146.482 0C141.154 2.0492 131.113 16.701 129.781 40.7791C127.937 72.4392 139.822 85.2468 152.22 85.2468C165.949 85.2468 173.941 75.0007 173.941 62.6031C173.941 51.6399 166.154 45.4923 157.445 45.4923C150.273 45.4923 144.023 48.9759 144.023 48.9759L144.638 66.8039C144.638 66.8039 158.162 44.775 164.515 48.2587C171.687 52.1522 153.757 87.5009 144.74 82.173ZM163.08 5.32792C169.433 9.11894 156.728 43.1357 142.179 39.7545L142.793 37.6028C150.99 7.47959 159.289 3.0738 163.08 5.32792Z" fill="white"/>
<path d="M195.094 32.9921H178.7L182.798 113.423H195.811C195.811 113.423 188.843 96.4149 190.38 78.0746C195.401 83.6074 201.139 85.2468 206.262 85.2468C218.762 85.2468 228.803 74.4884 228.803 58.5047C228.803 42.7258 218.762 31.9675 206.262 31.9675C198.68 34.2217 186.384 66.2916 186.179 112.194H185.052C185.052 73.2589 187.409 51.4349 195.094 32.9921ZM215.278 35.3487C220.913 37.6028 219.684 48.3611 215.176 61.6809C210.565 74.8983 203.29 83.5049 198.065 81.968C195.094 81.1484 192.225 78.6893 190.483 76.2303C193.352 49.6931 208.311 32.6848 215.278 35.3487Z" fill="white"/>
<path d="M270.959 39.5496C270.959 66.8039 263.377 84.2222 263.377 84.2222H279.77C279.77 84.2222 279.053 72.5417 278.336 58.0948C277.414 41.4963 268.397 31.9675 255.795 31.9675C243.295 31.9675 236.225 36.0659 236.225 36.0659L236.942 50.9226C236.942 50.9226 250.364 39.2422 268.705 39.4471C268.295 45.7996 267.065 51.6399 265.426 56.8653C261.635 52.562 255.59 50.4103 249.75 50.7177C241.143 51.1276 232.946 56.6604 232.946 67.2138C232.946 78.4844 243.09 85.3492 252.823 85.3492C258.356 83.7099 268.5 63.7301 269.934 39.5496H270.959ZM244.114 82.173C237.659 79.509 251.184 42.2135 265.016 58.1973C259.278 74.4884 248.93 84.1197 244.114 82.173Z" fill="white"/>
<path d="M325.944 32.9921C323.382 66.8039 309.755 82.0705 301.866 82.0705C297.972 82.0705 296.333 78.6893 296.333 73.5663C296.333 60.0416 309.755 31.9675 309.038 32.9921H291.312C291.312 32.9921 286.497 49.1808 286.497 58.6071C286.497 74.5909 296.64 85.3492 309.14 85.3492C316.517 83.0951 325.739 59.5293 327.071 34.3241H328.198C328.095 49.2833 325.944 61.7834 323.792 69.8777C327.276 79.4065 335.165 85.2468 344.489 85.2468C351.866 83.0951 360.78 59.5293 362.112 34.3241H363.342C363.137 53.0743 360.268 69.263 358.219 77.3573C358.014 77.9721 357.911 78.4844 357.911 78.9967C357.911 80.7385 359.141 81.3533 360.883 81.3533C364.469 81.3533 370.514 78.5869 373.895 78.5869C374.715 78.5869 375.022 78.8942 375.022 79.4065C375.022 82.9926 361.702 96.5174 361.702 106.866C361.702 111.989 364.981 114.858 368.875 114.858C376.764 114.858 388.342 104.509 388.342 90.7796H374.612C378.813 99.0789 380.453 103.997 380.453 106.661C380.453 108.403 379.735 109.12 378.711 109.12C375.33 109.12 368.362 101.64 368.362 95.8001C368.362 84.0172 388.547 83.1975 388.547 79.8164C388.547 77.8696 383.936 76.845 378.813 76.845C376.457 76.845 373.998 77.0499 371.743 77.5622L369.489 32.9921H360.985C358.526 67.0089 344.592 81.968 337.009 81.968C333.628 81.968 332.296 79.6115 332.296 76.3327C332.296 71.4147 334.96 64.0375 337.829 55.5333C342.03 43.1357 342.03 32.9921 342.03 32.9921H325.944Z" fill="white"/>
<path d="M423.099 52.6645C420.947 40.0619 411.829 31.9675 400.968 31.9675C388.263 31.9675 378.427 42.5209 378.427 58.6071C378.427 74.6934 388.263 85.2468 400.865 85.2468C413.161 85.2468 423.509 75.2057 423.509 57.2752H406.706C412.956 76.2303 400.046 85.1443 393.283 82.5828C387.136 80.2262 387.136 68.7507 392.976 52.6645H423.099ZM409.267 35.0413C414.902 37.193 414.083 51.3325 400.66 51.3325H393.488C397.689 40.5742 404.554 33.1971 409.267 35.0413Z" fill="white"/>
<path d="M432.371 84.2222H440.773C442.207 63.9351 454.912 65.9843 461.982 61.0662C466.183 58.0948 468.232 47.5415 468.949 34.2217H470.281C470.076 66.599 463.621 82.3779 462.699 84.2222H479.093L476.326 32.9921H467.822C466.388 53.2792 457.371 50.9226 446.613 53.0743C442.924 57.7875 440.363 69.5704 439.543 82.9926H438.416C438.519 50.6153 445.076 34.8364 445.998 32.9921H429.605L432.371 84.2222Z" fill="white"/>
<path d="M533.148 32.9921H524.848C522.082 69.6728 506.201 84.632 498.926 81.7631C493.496 79.6115 494.623 68.3408 499.131 55.4309C503.434 43.1357 507.942 32.9921 507.942 32.9921H490.217C490.217 32.9921 485.401 49.1808 485.401 58.6071C485.401 74.4884 495.545 85.2468 508.045 85.2468C515.524 83.0951 524.643 59.5293 525.975 34.2217H527.102C526.897 66.599 520.443 82.3779 519.418 84.2222H535.914L533.148 32.9921Z" fill="white"/>
<path d="M585.594 52.6645C583.443 40.0619 574.324 31.9675 563.463 31.9675C550.758 31.9675 540.922 42.5209 540.922 58.6071C540.922 74.6934 550.758 85.2468 563.361 85.2468C575.656 85.2468 586.004 75.2057 586.004 57.2752H569.201C575.451 76.2303 562.541 85.1443 555.779 82.5828C549.631 80.2262 549.631 68.7507 555.471 52.6645H585.594ZM571.762 35.0413C577.398 37.193 576.578 51.3325 563.156 51.3325H555.983C560.184 40.5742 567.049 33.1971 571.762 35.0413Z" fill="white"/>
</svg>
