<svg width="587" height="115" viewBox="0 0 587 115" fill="none" xmlns="http://www.w3.org/2000/svg">
<path d="M31.8118 11.581C14.5985 11.581 0.663983 26.4377 0.561523 48.4666C0.561523 70.4955 14.4961 85.3522 31.7094 85.3522C48.9227 85.4547 62.9597 70.598 62.9597 48.5691C62.9597 26.5402 49.0251 11.581 31.8118 11.581ZM45.1316 55.5364C38.6767 73.8767 29.0454 84.7375 20.2339 81.6637C11.4223 78.5899 11.9346 59.8397 18.3896 41.4993C24.8446 23.159 34.4758 12.1957 43.2874 15.2696C52.0989 18.3434 51.5866 37.196 45.1316 55.5364Z" fill="currentColor"/>
<path d="M102.63 84.3276C102.63 84.3276 102.528 80.2292 101.81 68.4463C101.298 58.7126 99.5563 50.8232 96.585 44.8805C103.04 43.4461 111.339 43.2411 124.352 47.8518L123.839 33.7124C123.839 33.7124 114.618 31.3558 106.524 32.1755C102.118 36.4788 98.3268 39.7575 95.0481 42.0116C90.5398 35.0443 83.7775 31.4582 74.4536 31.4582C61.4412 31.4582 61.2363 47.9543 80.0889 48.6715C84.4947 48.8764 88.3882 47.1346 93.4087 45.7002C95.0481 55.6388 91.2571 70.9054 86.339 84.3276H102.63ZM79.7815 47.442C71.6872 47.442 76.9127 32.9951 85.2119 35.2493C89.2079 36.3763 91.6669 39.2452 92.8964 43.4461C88.0808 46.4174 83.9824 47.442 79.7815 47.442Z" fill="currentColor"/>
<path d="M145.302 82.2784C141.613 80.1268 137.412 62.811 142.535 40.987C152.576 43.7534 164.359 41.0895 169.892 32.073C178.601 17.9335 170.814 0.105469 147.043 0.105469C141.715 2.15467 131.674 16.8065 130.342 40.8846C128.498 72.5447 140.383 85.3522 152.781 85.3522C166.511 85.3522 174.503 75.1062 174.503 62.7086C174.503 51.7453 166.716 45.5977 158.007 45.5977C150.834 45.5977 144.584 49.0814 144.584 49.0814L145.199 66.9094C145.199 66.9094 158.724 44.8805 165.076 48.3641C172.249 52.2576 154.318 87.6063 145.302 82.2784ZM163.642 5.43339C169.994 9.22441 157.289 43.2411 142.74 39.86L143.355 37.7083C151.552 7.58505 159.851 3.17927 163.642 5.43339Z" fill="currentColor"/>
<path d="M195.655 33.0976H179.261L183.36 113.529H196.372C196.372 113.529 189.405 96.5204 190.942 78.18C195.962 83.7129 201.7 85.3522 206.823 85.3522C219.323 85.3522 229.364 74.5939 229.364 58.6101C229.364 42.8313 219.323 32.073 206.823 32.073C199.241 34.3271 186.946 66.3971 186.741 112.299H185.614C185.614 73.3644 187.971 51.5404 195.655 33.0976ZM215.84 35.4542C221.475 37.7083 220.245 48.4666 215.737 61.7864C211.127 75.0038 203.852 83.6104 198.626 82.0735C195.655 81.2538 192.786 78.7948 191.044 76.3357C193.913 49.7986 208.872 32.7902 215.84 35.4542Z" fill="currentColor"/>
<path d="M271.52 39.655C271.52 66.9094 263.938 84.3276 263.938 84.3276H280.332C280.332 84.3276 279.615 72.6472 278.897 58.2003C277.975 41.6018 268.959 32.073 256.356 32.073C243.856 32.073 236.786 36.1714 236.786 36.1714L237.504 51.0281C237.504 51.0281 250.926 39.3477 269.266 39.5526C268.856 45.9051 267.627 51.7453 265.987 56.9708C262.196 52.6675 256.151 50.5158 250.311 50.8232C241.704 51.233 233.508 56.7659 233.508 67.3193C233.508 78.5899 243.651 85.4547 253.385 85.4547C258.918 83.8153 269.061 63.8356 270.496 39.655H271.52ZM244.676 82.2784C238.221 79.6145 251.745 42.319 265.578 58.3028C259.84 74.5939 249.491 84.2252 244.676 82.2784Z" fill="currentColor"/>
<path d="M326.505 33.0976C323.944 66.9094 310.317 82.176 302.427 82.176C298.534 82.176 296.894 78.7948 296.894 73.6718C296.894 60.147 310.317 32.073 309.599 33.0976H291.874C291.874 33.0976 287.058 49.2863 287.058 58.7126C287.058 74.6964 297.202 85.4547 309.702 85.4547C317.079 83.2006 326.3 59.6348 327.632 34.4296H328.759C328.657 49.3887 326.505 61.8889 324.354 69.9832C327.837 79.512 335.727 85.3522 345.051 85.3522C352.428 83.2006 361.342 59.6348 362.674 34.4296H363.903C363.698 53.1798 360.829 69.3685 358.78 77.4628C358.575 78.0776 358.473 78.5899 358.473 79.1022C358.473 80.844 359.702 81.4587 361.444 81.4587C365.03 81.4587 371.075 78.6923 374.457 78.6923C375.276 78.6923 375.584 78.9997 375.584 79.512C375.584 83.0981 362.264 96.6228 362.264 106.971C362.264 112.094 365.543 114.963 369.436 114.963C377.326 114.963 388.903 104.615 388.903 90.8851H375.174C379.375 99.1843 381.014 104.102 381.014 106.766C381.014 108.508 380.297 109.225 379.272 109.225C375.891 109.225 368.924 101.746 368.924 95.9056C368.924 84.1227 389.108 83.303 389.108 79.9218C389.108 77.9751 384.498 76.9505 379.375 76.9505C377.018 76.9505 374.559 77.1554 372.305 77.6677L370.051 33.0976H361.547C359.088 67.1143 345.153 82.0735 337.571 82.0735C334.19 82.0735 332.858 79.7169 332.858 76.4382C332.858 71.5201 335.522 64.143 338.391 55.6388C342.592 43.2411 342.592 33.0976 342.592 33.0976H326.505Z" fill="currentColor"/>
<path d="M423.661 52.7699C421.509 40.1673 412.39 32.073 401.529 32.073C388.824 32.073 378.988 42.6264 378.988 58.7126C378.988 74.7988 388.824 85.3522 401.427 85.3522C413.722 85.3522 424.07 75.3111 424.07 57.3806H407.267C413.517 76.3357 400.607 85.2498 393.845 82.6883C387.697 80.3317 387.697 68.8562 393.537 52.7699H423.661ZM409.829 35.1468C415.464 37.2985 414.644 51.438 401.222 51.438H394.05C398.251 40.6796 405.115 33.3025 409.829 35.1468Z" fill="currentColor"/>
<path d="M432.932 84.3276H441.334C442.769 64.0405 455.474 66.0897 462.543 61.1717C466.744 58.2003 468.793 47.6469 469.511 34.3271H470.843C470.638 66.7045 464.183 82.4833 463.261 84.3276H479.654L476.888 33.0976H468.384C466.949 53.3847 457.933 51.0281 447.174 53.1798C443.486 57.8929 440.924 69.6758 440.105 83.0981H438.978C439.08 50.7207 445.638 34.9419 446.56 33.0976H430.166L432.932 84.3276Z" fill="currentColor"/>
<path d="M533.709 33.0976H525.41C522.643 69.7783 506.762 84.7375 499.487 81.8686C494.057 79.7169 495.184 68.4463 499.692 55.5364C503.996 43.2411 508.504 33.0976 508.504 33.0976H490.778C490.778 33.0976 485.963 49.2863 485.963 58.7126C485.963 74.5939 496.106 85.3522 508.606 85.3522C516.086 83.2006 525.205 59.6348 526.537 34.3271H527.664C527.459 66.7045 521.004 82.4833 519.979 84.3276H536.476L533.709 33.0976Z" fill="currentColor"/>
<path d="M586.156 52.7699C584.004 40.1673 574.885 32.073 564.025 32.073C551.32 32.073 541.483 42.6264 541.483 58.7126C541.483 74.7988 551.319 85.3522 563.922 85.3522C576.217 85.3522 586.566 75.3111 586.566 57.3806H569.762C576.012 76.3357 563.102 85.2498 556.34 82.6883C550.192 80.3317 550.192 68.8562 556.033 52.7699H586.156ZM572.324 35.1468C577.959 37.2985 577.139 51.438 563.717 51.438H556.545C560.746 40.6796 567.611 33.3025 572.324 35.1468Z" fill="currentColor"/>
</svg>
