<svg width="254" height="73" viewBox="0 0 254 73" fill="none" xmlns="http://www.w3.org/2000/svg">
<path d="M0.115313 36.7C0.115313 56.79 15.7953 72.47 36.3753 72.47C54.9953 72.47 63.8153 61.69 63.8153 61.69L52.0553 43.07C52.0553 43.07 46.1753 48.46 39.3153 48.46C32.4553 48.46 27.5553 43.56 27.5553 36.7C27.5553 29.84 32.4553 24.94 39.3153 24.94C46.1753 24.94 52.0553 30.33 52.0553 30.33L63.8153 11.71C63.8153 11.71 54.9953 0.929997 36.3753 0.929997C15.7953 0.929997 0.115313 16.61 0.115313 36.7ZM75.5715 19.06C75.5715 51.4 72.6315 54.34 67.7315 54.34H65.7715V71C65.7715 71 70.6715 72.47 74.5915 72.47C87.3315 72.47 96.1515 63.65 96.1515 38.66H100.071V71H123.591V19.06H75.5715ZM131.397 45.03C131.397 60.22 143.647 72.47 161.287 72.47C178.927 72.47 191.177 60.22 191.177 45.03C191.177 29.84 178.927 17.59 161.287 17.59C143.647 17.59 131.397 29.84 131.397 45.03ZM167.657 45.03C167.657 49.44 164.717 52.38 161.287 52.38C157.857 52.38 154.917 49.44 154.917 45.03C154.917 40.62 157.857 37.68 161.287 37.68C164.717 37.68 167.657 40.62 167.657 45.03ZM230.369 35.72H222.529V19.06H199.009V71H222.529V54.34H230.369V71H253.889V19.06H230.369V35.72Z" fill="black"/>
</svg>
