<svg width="93" height="96" viewBox="0 0 93 96" fill="none" xmlns="http://www.w3.org/2000/svg">
<path d="M10.0043 95.894C12.2393 95.894 13.8783 95.298 15.5173 93.659C20.1363 88.891 19.8383 79.504 19.8383 53.727L16.4113 53.28C17.0073 87.699 15.0703 92.616 10.0043 92.616C6.72631 92.616 3.89531 89.934 3.89531 73.991V22.139C3.89531 6.196 6.72631 3.514 10.1533 3.514C14.6233 3.514 17.0073 7.537 16.4113 41.956L19.8383 41.509C20.2853 16.477 19.8383 6.49399 15.5173 2.173C14.0273 0.682998 12.2393 0.235994 10.4513 0.235994C4.64031 0.235994 0.468313 4.55699 0.468313 20.649V75.481C0.468313 91.424 4.19331 95.894 10.0043 95.894ZM43.0218 21.99H29.1648L28.8668 64.753C28.7178 91.126 28.2708 91.871 24.8438 91.871H23.5028V95H24.9928C31.1018 95 31.8468 93.361 31.9958 68.329L32.2938 25.119H39.7438V95H43.0218V21.99ZM59.1475 95.894C64.3625 95.894 67.6405 92.318 67.6405 75.63V41.36C67.6405 24.672 64.6605 21.096 59.4455 21.096C54.3795 21.096 50.9525 24.672 50.9525 41.36V75.63C50.9525 92.318 54.0815 95.894 59.1475 95.894ZM59.2965 92.765C56.3165 92.765 54.2305 90.828 54.2305 74.14V42.85C54.2305 26.162 56.3165 24.225 59.2965 24.225C62.2765 24.225 64.3625 26.162 64.3625 42.85V74.14C64.3625 90.828 62.2765 92.765 59.2965 92.765ZM89.1128 56.26H78.8318V21.99H75.5538V95H78.8318V59.389H89.1128V95H92.3908V21.99H89.1128V56.26Z" fill="black"/>
</svg>
