<svg width="70" height="50" viewBox="0 0 70 50" fill="none" xmlns="http://www.w3.org/2000/svg">
<path fill-rule="evenodd" clip-rule="evenodd" d="M58.7992 44.7831C50.1445 44.7831 48.5189 36.8828 48.5189 30.5638H35.6684C15.5253 30.5638 15.5189 0.96933 35.0259 0.96933C36.8658 0.988655 38.6797 1.40106 40.3433 2.17825C42.0069 2.95544 43.4807 4.07904 44.6637 5.47201C55.5481 5.47201 56.8717 11.3782 56.8717 22.8413V33.3518C56.8717 36.0508 57.919 37.7973 60.7268 37.7973C63.1234 37.7973 64.2607 35.5872 65.2245 32.4944C65.7192 32.7675 69.2338 34.7426 69.7221 35.0347C68.6555 38.1593 67.5183 44.7831 58.7992 44.7831ZM46.5913 18.3386C43.2952 18.3386 43.0189 23.4827 46.8226 23.4827C50.0095 23.4573 49.9003 18.3386 46.5656 18.3386H46.5913ZM35.0259 33.7646C37.8144 33.7646 45.9488 33.1295 45.9488 33.1295V49.0063L38.2385 49.1207L36.3109 37.6449L11.8951 37.1686L11.2525 49.7557L2.25721 49.87C2.25721 49.87 0.972168 25.2228 0.972168 20.2756C0.972168 11.1051 4.92368 5.91021 13.8226 5.47836C16.0522 5.3704 18.9628 4.93855 20.8904 4.84329C12.5119 15.4109 19.1748 33.7646 35.0195 33.7646H35.0259ZM19.6053 40.1915L18.9628 49.5208L13.8226 49.6351L14.4652 40.1915H19.6053ZM35.6684 49.235L30.5282 49.3429L29.2432 40.1915H33.7408L35.6684 49.235Z" fill="black"/>
</svg>
