<svg width="214" height="70" viewBox="0 0 214 70" fill="none" xmlns="http://www.w3.org/2000/svg">
<path d="M52.7192 47.6099C51.8858 54.74 49.2468 60.2495 44.8021 64.1386C40.3883 67.9969 34.5083 69.926 27.1622 69.926C19.1989 69.926 12.8096 67.0709 7.99453 61.3607C3.21032 55.6505 0.818215 48.0112 0.818215 38.4428V31.9609C0.818215 25.6952 1.92939 20.1856 4.15173 15.4323C6.40494 10.6789 9.58413 7.03674 13.6893 4.50573C17.7945 1.94386 22.5478 0.66293 27.9493 0.66293C35.1102 0.66293 40.8513 2.66921 45.1725 6.68178C49.4937 10.6635 52.0093 16.1885 52.7192 23.2568H43.7835C43.0119 17.8861 41.3297 13.997 38.737 11.5895C36.1751 9.18191 32.5792 7.97814 27.9493 7.97814C22.27 7.97814 17.8099 10.077 14.569 14.2748C11.3589 18.4725 9.75389 24.4451 9.75389 32.1924V38.7206C9.75389 46.0358 11.2818 51.854 14.3375 56.1752C17.3932 60.4964 21.6681 62.6571 27.1622 62.6571C32.1008 62.6571 35.8819 61.5459 38.5055 59.3235C41.1599 57.0703 42.9193 53.1658 43.7835 47.6099H52.7192ZM104.62 18.9047V69H96.0086V25.9884H78.9706L77.9521 44.7394C77.3965 53.351 75.9458 59.5087 73.6 63.2126C71.285 66.9166 67.5966 68.8457 62.5346 69H59.1084V61.4533L61.5623 61.2681C64.3402 60.9594 66.3311 59.3544 67.5348 56.453C68.7386 53.5516 69.5102 48.181 69.8498 40.341L70.7757 18.9047H104.62ZM116.102 43.4893C116.102 38.5817 117.059 34.1678 118.973 30.2479C120.917 26.3279 123.603 23.3031 127.029 21.1733C130.486 19.0436 134.421 17.9787 138.835 17.9787C145.656 17.9787 151.166 20.3399 155.364 25.0624C159.592 29.7849 161.707 36.0661 161.707 43.906V44.5079C161.707 49.3847 160.765 53.7677 158.882 57.6568C157.03 61.515 154.361 64.5244 150.873 66.6851C147.416 68.8457 143.434 69.926 138.928 69.926C132.137 69.926 126.628 67.5647 122.399 62.8423C118.201 58.1198 116.102 51.8694 116.102 44.0912V43.4893ZM124.714 44.5079C124.714 50.0638 125.995 54.5239 128.557 57.8883C131.149 61.2527 134.606 62.9349 138.928 62.9349C143.28 62.9349 146.737 61.2372 149.299 57.842C151.86 54.4159 153.141 49.6317 153.141 43.4893C153.141 37.9952 151.83 33.5505 149.206 30.1553C146.613 26.7292 143.156 25.0161 138.835 25.0161C134.606 25.0161 131.196 26.6983 128.603 30.0627C126.01 33.4271 124.714 38.2421 124.714 44.5079ZM213.376 69H204.811V47.6099H181.8V69H173.189V18.9047H181.8V40.6188H204.811V18.9047H213.376V69Z" fill="black"/>
</svg>
