<svg width="233" height="76" viewBox="0 0 233 76" fill="none" xmlns="http://www.w3.org/2000/svg">
<path d="M33.4074 75.5685C29.9536 75.5685 26.5949 75.0298 23.3312 73.9525C20.0992 72.8435 17.089 71.2116 14.3007 69.057C11.5123 66.9023 9.0566 64.3357 6.93362 61.3572C4.84233 58.3787 3.19465 54.8932 1.99058 50.9008C0.818187 46.9083 0.231992 42.6624 0.231992 38.1629C0.231992 32.8079 1.19842 27.754 3.13128 23.0011C5.09582 18.2481 7.64656 14.2557 10.7835 11.0237C13.9521 7.79169 17.5485 5.24095 21.5726 3.37147C25.5968 1.4703 29.6685 0.51971 33.7877 0.51971C35.8156 0.51971 37.8277 0.741513 39.8239 1.18512C41.8518 1.62873 43.2618 2.00896 44.054 2.32582C44.8778 2.64268 46.1611 3.16551 47.9039 3.89429C49.5199 4.5597 50.7239 4.8924 51.5161 4.8924C52.5617 4.8924 53.0846 4.27452 53.0846 3.03876V2.37335C53.1796 1.45445 53.6549 0.995003 54.5104 0.995003C55.2075 0.995003 55.7621 1.39108 56.174 2.18324L57.1721 27.0886C56.9186 27.7223 56.3324 28.0392 55.4135 28.0392C54.4312 28.0392 53.8134 27.7223 53.5599 27.0886L53.1796 22.906C52.7994 17.8045 50.8982 13.4001 47.4761 9.69286C44.0857 5.98558 40.1091 4.13194 35.5463 4.13194C33.2649 4.13194 31.332 4.52801 29.7477 5.32017C28.1634 6.08064 26.8009 7.25303 25.6602 8.83734C24.5511 10.4216 23.6798 12.5922 23.0461 15.3488C22.4123 18.1055 21.9529 21.3059 21.6677 24.9498C21.3825 28.5937 21.2399 33.0297 21.2399 38.258C21.2399 43.708 21.3667 48.2391 21.6202 51.8513C21.9054 55.4636 22.3648 58.6322 22.9985 61.3572C23.6639 64.0822 24.5828 66.1735 25.7552 67.6311C26.9593 69.0886 28.3852 70.166 30.0329 70.8631C31.7122 71.5285 33.8035 71.8612 36.3067 71.8612C40.7428 71.8612 44.5768 69.96 47.8088 66.1577C51.0408 62.3553 52.8628 57.5707 53.2747 51.8038L53.6549 47.3361C53.9401 46.6707 54.5263 46.338 55.4135 46.338C56.3641 46.338 56.982 46.6707 57.2671 47.3361L56.4591 73.9049C56.1423 74.6971 55.6353 75.0932 54.9382 75.0932C54.4629 75.0932 54.0985 74.9506 53.845 74.6654C53.5915 74.4119 53.4648 74.0951 53.4648 73.7148V73.0494C53.4648 71.7503 52.942 71.1007 51.8963 71.1007C51.0725 71.1007 49.8684 71.4176 48.2841 72.0513C46.2879 72.9068 44.862 73.5089 44.0065 73.8574C43.1509 74.1743 41.7251 74.5387 39.7288 74.9506C37.7326 75.3625 35.6255 75.5685 33.4074 75.5685ZM71.0031 74.8555C67.9612 74.8555 65.6006 74.1267 63.9212 72.6692C62.2736 71.2116 61.4497 69.057 61.4497 66.2052C61.4497 64.2723 61.9409 62.688 62.9231 61.4523C63.9371 60.2165 65.2996 59.5986 67.0106 59.5986C68.6266 59.5986 69.9099 60.0422 70.8605 60.9294C71.8428 61.785 72.3339 62.9257 72.3339 64.3516C72.3339 65.3972 72.0012 66.4587 71.3358 67.536C70.7021 68.5817 70.3852 69.3738 70.3852 69.9125C70.3852 71.0215 70.9081 71.576 71.9537 71.576C74.0767 71.576 75.8353 67.8053 77.2294 60.264C77.9265 55.5428 78.4335 50.9641 78.7504 46.5281C78.9722 44.0565 79.2415 39.3987 79.5584 32.5545C79.6218 31.0335 79.4158 29.9879 78.9405 29.4175C78.4969 28.8472 77.5622 28.562 76.1363 28.562H73.5222C72.8568 28.1818 72.524 27.5639 72.524 26.7084C72.524 25.8845 72.8568 25.2349 73.5222 24.7597L85.7847 25.0448H100.852L112.639 24.7597C113.304 25.1399 113.637 25.7895 113.637 26.7084C113.637 27.5639 113.304 28.1818 112.639 28.562H109.93C109.771 28.562 109.629 28.6254 109.502 28.7521C109.375 28.8789 109.312 29.0373 109.312 29.2274V69.7224C109.312 69.9125 109.375 70.0709 109.502 70.1977C109.629 70.3244 109.771 70.3878 109.93 70.3878H112.639C113.304 70.768 113.637 71.3859 113.637 72.2414C113.637 73.0653 113.304 73.7148 112.639 74.1901L100.852 73.9049L89.1593 74.1901C88.5256 73.7465 88.2087 73.0969 88.2087 72.2414C88.2087 71.3542 88.5256 70.7363 89.1593 70.3878H91.5358C91.9794 70.3878 92.2012 70.166 92.2012 69.7224V29.1323C92.2012 28.6887 91.9794 28.4669 91.5358 28.4669H87.0205C85.4995 28.4669 84.5331 28.7521 84.1212 29.3225C83.741 29.8611 83.5192 30.9385 83.4558 32.5545L82.6478 46.5281C82.2992 51.5345 81.7447 56.3508 80.9843 60.977C80.1287 65.7933 78.9405 69.3104 77.4196 71.5285C75.8986 73.7465 73.7598 74.8555 71.0031 74.8555ZM122.953 62.9257C120.64 58.9015 119.483 54.3862 119.483 49.3798C119.483 44.3734 120.64 39.874 122.953 35.8815C125.266 31.8574 128.419 28.7363 132.411 26.5182C136.403 24.3002 140.824 23.1912 145.672 23.1912C150.52 23.1912 154.94 24.3002 158.932 26.5182C162.956 28.7363 166.125 31.8574 168.438 35.8815C170.783 39.874 171.955 44.3734 171.955 49.3798C171.955 54.3862 170.783 58.9015 168.438 62.9257C166.125 66.9181 162.956 70.0234 158.932 72.2414C154.94 74.4594 150.52 75.5685 145.672 75.5685C140.824 75.5685 136.403 74.4594 132.411 72.2414C128.419 70.0234 125.266 66.9181 122.953 62.9257ZM138.922 35.3112C138.447 38.5431 138.21 43.2327 138.21 49.3798C138.21 55.5269 138.447 60.2323 138.922 63.496C139.398 66.728 140.142 68.9936 141.156 70.2927C142.202 71.5918 143.707 72.2414 145.672 72.2414C147.636 72.2414 149.141 71.5918 150.187 70.2927C151.233 68.9936 151.993 66.728 152.468 63.496C152.944 60.2323 153.181 55.5269 153.181 49.3798C153.181 43.2327 152.944 38.5431 152.468 35.3112C151.993 32.0475 151.233 29.7661 150.187 28.4669C149.141 27.1678 147.636 26.5182 145.672 26.5182C143.707 26.5182 142.202 27.1678 141.156 28.4669C140.142 29.7661 139.398 32.0475 138.922 35.3112ZM178.752 74.1901C178.087 73.7782 177.754 73.1286 177.754 72.2414C177.754 71.3225 178.087 70.7046 178.752 70.3878H181.366C181.841 70.3878 182.079 70.166 182.079 69.7224V29.2274C182.079 28.7838 181.841 28.562 181.366 28.562H178.752C178.087 28.2451 177.754 27.6273 177.754 26.7084C177.754 25.7261 178.087 25.0765 178.752 24.7597L190.729 25.0448L202.517 24.7597C203.15 25.1082 203.467 25.7578 203.467 26.7084C203.467 27.5956 203.15 28.2134 202.517 28.562H199.76C199.38 28.562 199.19 28.7838 199.19 29.2274V47.6212H211.072V29.2274C211.072 28.7838 210.85 28.562 210.407 28.562H207.745C207.111 28.2451 206.794 27.6273 206.794 26.7084C206.794 25.7261 207.111 25.0765 207.745 24.7597L219.722 25.0448L231.51 24.7597C232.143 25.1082 232.46 25.7578 232.46 26.7084C232.46 27.5956 232.143 28.2134 231.51 28.562H228.8C228.642 28.562 228.499 28.6254 228.373 28.7521C228.246 28.8789 228.182 29.0373 228.182 29.2274V69.7224C228.182 69.9125 228.246 70.0709 228.373 70.1977C228.499 70.3244 228.642 70.3878 228.8 70.3878H231.51C232.143 70.7363 232.46 71.3542 232.46 72.2414C232.46 73.0969 232.143 73.7465 231.51 74.1901L219.722 73.9049L207.745 74.1901C207.111 73.7782 206.794 73.1286 206.794 72.2414C206.794 71.3225 207.111 70.7046 207.745 70.3878H210.407C210.85 70.3878 211.072 70.166 211.072 69.7224V51.1384H199.19V69.7224C199.19 70.166 199.38 70.3878 199.76 70.3878H202.517C203.15 70.7363 203.467 71.3542 203.467 72.2414C203.467 73.0969 203.15 73.7465 202.517 74.1901L190.729 73.9049L178.752 74.1901Z" fill="black"/>
</svg>
