<svg width="284" height="67" viewBox="0 0 284 67" fill="none" xmlns="http://www.w3.org/2000/svg">
<path d="M0.042355 33.5057C0.042355 57.1953 14.4581 66.1018 40.2595 66.1018C63.1227 66.1018 75.4266 60.0417 78.4566 45.3505H67.1628C64.2245 54.9916 55.5016 57.4708 40.2595 57.4708C22.171 57.4708 11.2444 51.6861 11.2444 35.434V31.1184C11.2444 14.4072 22.4464 9.17344 40.2595 9.17344C56.0526 9.17344 64.8673 11.928 67.071 22.3037H78.3648C75.9775 6.60248 63.3982 0.542358 40.2595 0.542358C14.4581 0.542358 0.042355 9.72435 0.042355 33.5057ZM83.0957 65H85.3912C98.6133 65 103.204 59.4908 103.204 39.3822V26.7111H131.577V65H142.136V19.1818H93.5632V39.0149C93.5632 53.6143 90.7168 56.4607 84.2894 56.4607H83.0957V65ZM205.426 43.8814C205.426 54.6243 198.356 58.7562 184.583 58.7562C170.901 58.7562 163.739 54.6243 163.739 43.8814V40.3922C163.739 29.6493 170.901 25.5174 184.583 25.5174C198.356 25.5174 205.426 29.6493 205.426 40.3922V43.8814ZM153.18 42.1368C153.18 60.0417 164.474 66.1018 184.583 66.1018C204.967 66.1018 215.985 60.0417 215.985 42.1368C215.985 24.4156 204.967 18.1718 184.583 18.1718C164.474 18.1718 153.18 24.4156 153.18 42.1368ZM227.232 19.1818V65H237.699V45.5342H272.958V65H283.425V19.1818H272.958V38.0967H237.699V19.1818H227.232Z" fill="black"/>
</svg>
