<svg width="72" height="96" viewBox="0 0 72 96" fill="none" xmlns="http://www.w3.org/2000/svg">
<path fill-rule="evenodd" clip-rule="evenodd" d="M49.9342 11.445L49.9102 17.471C49.4143 17.471 48.9387 17.6648 48.5881 18.0098C48.2374 18.3548 48.0404 18.8227 48.0404 19.3106C48.0404 19.7985 48.2374 20.2665 48.5881 20.6114C48.9387 20.9564 49.4143 21.1503 49.9102 21.1503V29.3107C46.7519 29.5878 46.8658 34.4109 49.9102 34.4463V39.0808C49.4143 39.0808 48.9387 39.2746 48.5881 39.6196C48.2374 39.9646 48.0404 40.4325 48.0404 40.9204C48.0404 41.4083 48.2374 41.8762 48.5881 42.2212C48.9387 42.5662 49.4143 42.76 49.9102 42.76L49.6705 85.7732H46.5062L45.4754 70.4783L43.4378 70.5668L42.479 85.8263H39.5604L38.4337 70.7555L26.8973 71.2684L24.4642 85.9619H21.3539C21.4438 67.5479 24.608 61.7047 28.5454 58.3674C30.7028 59.9653 33.3397 57.6658 32.6146 55.5372C35.6111 53.5797 38.6075 51.2271 40.8429 44.924C43.8394 45.1362 44.6304 41.1622 42.2153 40.0655C42.9991 36.3699 43.5336 32.6275 43.8154 28.8626C44.0834 28.9878 44.378 29.0478 44.6745 29.0377C44.971 29.0275 45.2607 28.9473 45.5191 28.804C45.7776 28.6607 45.9973 28.4584 46.1597 28.2141C46.322 27.9698 46.4224 27.6907 46.4523 27.4003C46.4925 27.0946 46.4547 26.7839 46.3424 26.4961C46.2301 26.2084 46.0468 25.9526 45.809 25.752C45.5711 25.5513 45.2863 25.4121 44.9801 25.3468C44.6739 25.2815 44.356 25.2922 44.0551 25.3779C44.2169 22.6479 44.3188 19.6467 44.3607 16.3448L34.7121 15.8083L34.3585 13.55L45.5773 5.88486L46.3744 0.483887L50.06 1.47446L48.3221 6.19146L55.8252 6.22684C55.8252 8.71506 52.9546 11.445 49.9342 11.445ZM29.6481 62.5891C29.3925 62.578 29.1372 62.6183 28.8979 62.7076C28.6587 62.7968 28.4404 62.9331 28.2565 63.1082C28.0726 63.2832 27.927 63.4934 27.8284 63.7257C27.7298 63.958 27.6805 64.2077 27.6833 64.4594C27.6862 64.7112 27.7412 64.9597 27.845 65.1898C27.9488 65.4199 28.0992 65.6268 28.287 65.7978C28.4749 65.9687 28.6962 66.1002 28.9374 66.1842C29.1786 66.2682 29.4347 66.3028 29.69 66.2861C32.1052 66.2861 32.1232 62.5891 29.6481 62.5891ZM38.7993 65.3427C41.1965 65.3427 41.2324 61.6457 38.7574 61.6457C38.5017 61.6346 38.2465 61.6749 38.0072 61.7642C37.7679 61.8534 37.5497 61.9897 37.3658 62.1648C37.1819 62.3398 37.0362 62.55 36.9377 62.7823C36.8391 63.0146 36.7898 63.2643 36.7926 63.516C36.7955 63.7678 36.8505 64.0163 36.9543 64.2464C37.0581 64.4765 37.2085 64.6834 37.3963 64.8544C37.5841 65.0253 37.8054 65.1568 38.0467 65.2408C38.2879 65.3247 38.544 65.3594 38.7993 65.3427ZM40.2376 54.7294C39.982 54.7183 39.7267 54.7586 39.4875 54.8479C39.2482 54.9371 39.0299 55.0734 38.846 55.2485C38.6621 55.4235 38.5165 55.6337 38.4179 55.866C38.3194 56.0983 38.27 56.348 38.2729 56.5997C38.2757 56.8515 38.3307 57.1 38.4345 57.3301C38.5383 57.5602 38.6887 57.7671 38.8766 57.938C39.0644 58.109 39.2857 58.2405 39.5269 58.3245C39.7681 58.4084 40.0242 58.4431 40.2796 58.4264C42.6947 58.4559 42.7127 54.7589 40.2376 54.7589V54.7294ZM44.9481 47.7954C41.574 47.7954 41.4901 52.937 44.7143 52.937C48.5438 52.9665 48.2621 47.8249 44.9481 47.8249V47.7954ZM15.9482 72.6658C15.9482 72.6658 17.4764 64.246 21.8093 63.5679L19.0226 73.6505L15.9482 72.6658ZM33.136 73.6328L31.8115 85.9029H28.6593L28.845 73.6093L33.136 73.6328Z" fill="black"/>
</svg>
