<svg width="313" height="93" viewBox="0 0 313 93" fill="none" xmlns="http://www.w3.org/2000/svg">
<path d="M39.8705 72H48.5497V0.524282H39.8705V72ZM78.1611 0.524282C73.8725 7.46764 65.806 18.5974 62.7427 22.2733L51.3066 35.9558L77.6505 72H88.1677L57.331 31.3609L63.8659 23.2944C71.3198 14.1047 82.0412 2.87277 84.9002 0.524282H78.1611ZM10.2591 0.524282C14.5477 7.46764 22.6142 18.5974 25.6775 22.2733L37.1136 35.9558L10.7697 72H0.252527L30.885 31.3609L23.0226 21.6607C16.8962 14.1047 6.48113 2.87277 3.51999 0.524282H10.2591ZM98.3641 72.5105L130.018 35.2411V72H138.186V25.5408H136.144L104.491 62.8103V26.0513H96.3219V72.5105H98.3641ZM152.461 26.0513V92.4216H160.63V68.6304C164 71.3874 167.982 73.0211 174.721 73.0211C187.995 73.0211 198.716 63.0145 198.716 47.3919C198.716 34.22 189.935 25.0302 177.478 25.0302C170.228 25.0302 164.51 28.1956 160.63 32.8926C160.63 32.8926 160.426 29.0125 160.017 26.0513H152.461ZM172.883 27.9914C181.869 27.9914 190.037 34.8326 190.037 48.8214C190.037 62.9124 183.604 71.4895 172.475 71.4895C168.186 71.4895 163.693 69.9578 160.63 66.5883V34.7305C164 30.442 167.573 27.9914 172.883 27.9914ZM209.909 33.4031C212.666 30.0335 217.465 27.2766 223.081 27.2766C232.067 27.2766 234.619 33.1989 234.619 43.1034V49.332C232.169 48.1067 228.493 46.9835 223.183 46.9835C213.279 46.9835 205.825 50.5573 205.825 59.9512C205.825 67.8136 211.543 72.7148 220.324 72.7148C229.412 72.7148 233.19 67.7115 234.619 63.0145C234.722 66.0777 234.824 68.8346 235.232 72H242.788V40.7549C242.788 30.3399 238.091 25.0302 227.472 25.0302C219.303 25.0302 212.87 28.2977 209.195 32.5862L209.909 33.4031ZM224.102 70.4684C217.465 70.4684 214.504 66.0777 214.504 59.5428C214.504 50.8636 220.426 48.5151 225.328 48.5151C229.31 48.5151 232.475 49.4341 234.619 50.7615V60.1555C233.701 64.6482 229.718 70.4684 224.102 70.4684ZM278.415 92.4216H286.584V72.4084C303.023 72.4084 312.009 62.7082 312.009 49.0257C312.009 35.5474 302.206 25.6429 286.584 25.6429V0.524282H278.415V25.6429C262.384 25.6429 252.99 36.5685 252.99 49.0257C252.99 62.7082 262.486 72.4084 278.415 72.4084V92.4216ZM261.669 49.0257C261.669 33.6073 268.511 26.8682 278.415 26.8682V70.9789C269.021 70.7747 261.669 62.606 261.669 49.0257ZM286.584 26.9703C298.428 27.1745 303.329 37.4874 303.329 49.0257C303.329 64.1377 297.203 71.1831 286.584 71.1831V26.9703Z" fill="black"/>
</svg>
