<svg width="578" height="81" viewBox="0 0 578 81" fill="none" xmlns="http://www.w3.org/2000/svg">
<path d="M102.204 0.639997H53.2444V26.08H52.5724L49.6924 0.639997H0.444375L3.99638 31.84L0.444375 64H49.4044L52.1884 39.04H53.2444V64H102.204V39.04H103.26L106.044 64H155.004L151.452 31.84L155.004 0.639997H105.756L102.972 25.408H102.204V0.639997ZM206.353 45.376V64H249.553V17.44H206.353L201.553 36.064V17.44H158.353V64H201.553L206.353 45.376ZM297.553 80.8V64H332.593C341.905 64 344.593 61.12 344.593 52V29.44C344.593 20.128 341.713 17.44 332.593 17.44H309.073C300.241 17.44 297.745 19.84 296.497 28.384H296.401V27.904L296.113 17.44H254.353V80.8H297.553ZM301.393 49.6C301.393 50.56 300.817 51.04 299.953 51.04H297.553V33.28C297.553 31.264 298.033 30.4 298.993 30.4H299.953C300.913 30.4 301.393 30.976 301.393 33.088V49.6ZM351.347 30.4H391.667C393.779 30.4 394.259 30.88 394.259 32.32V33.28H359.507C350.195 33.28 347.507 36.16 347.507 45.28V52C347.507 61.312 350.963 64 356.147 64H387.539C392.339 64 394.547 60.736 395.123 53.056H395.219V53.44L395.411 64H437.459V29.92C437.459 20.128 434.579 17.44 425.459 17.44H351.347V30.4ZM390.707 47.68C390.707 46.72 391.283 46.24 392.147 46.24H394.259V48.64C394.259 49.696 393.779 51.04 392.819 51.04H392.147C391.187 51.04 390.707 49.984 390.707 48.832V47.68ZM441.279 51.52C441.279 61.312 444.159 64 453.279 64H487.839V80.8H531.039V64H565.599C574.719 64 577.599 61.312 577.599 51.52V29.92C577.599 20.128 574.719 17.44 565.599 17.44H531.039V0.639997H487.839V17.44H453.279C444.159 17.44 441.279 20.128 441.279 29.92V51.52ZM484.479 32.32C484.479 30.88 484.959 30.4 485.919 30.4H487.839V51.04H485.919C484.863 51.04 484.479 50.272 484.479 49.12V32.32ZM532.959 30.4C533.919 30.4 534.399 30.976 534.399 32.32V49.12C534.399 50.272 534.015 51.04 532.959 51.04H531.039V30.4H532.959Z" fill="black"/>
</svg>
