<svg width="359" height="84" viewBox="0 0 359 84" fill="none" xmlns="http://www.w3.org/2000/svg">
<path d="M26.6765 0.000886947H8.92486L0 6.17585V68.6116H10.1018V41.6574H23.9304L32.8553 35.4824H10.1018V6.17585H17.7516C34.0322 6.17585 42.0744 23.4265 32.8553 35.4824C39.4263 32.738 44.9185 26.171 44.9185 18.2317C44.9185 7.94013 36.7783 -0.0971271 26.6765 0.000886947Z" fill="white"/>
<path d="M69.9017 18.2317C63.5268 18.2317 56.6615 21.0742 51.7578 27.4452C55.7789 24.9948 59.7019 23.8186 63.3307 23.8186C70.7844 23.8186 76.767 28.8174 78.042 37.9328L66.9595 38.0308L58.8192 43.7157H78.14L78.3362 43.6177V68.6116H87.7514V36.1685C87.7514 24.5047 79.317 18.2317 69.9017 18.2317ZM56.6615 50.3808C56.6615 47.9304 57.4461 45.676 58.8192 43.7157C53.0327 45.382 48.8155 50.1847 48.8155 55.8696C48.8155 62.8287 55.1904 68.6116 63.1345 68.6116C68.3325 68.6116 74.6093 66.3572 78.3362 60.7704C75.9824 62.3386 73.3344 63.0247 70.6863 63.0247C63.5268 63.0247 56.6615 58.0259 56.6615 50.3808Z" fill="white"/>
<path d="M150.798 62.9267H143.05V19.6039H114.608L106.468 25.2888C109.704 39.8931 108.233 54.8895 103.035 62.8287C110.979 54.5954 114.804 41.2653 114.804 25.2888L133.635 25.3869V62.9267L97.0525 62.8287V84L105.781 77.9231V68.6116H142.069V84L150.798 77.9231V62.9267Z" fill="white"/>
<path d="M187.563 18.2317C180.698 18.2317 174.519 21.2702 170.302 26.073C173.146 24.7988 176.284 24.1127 179.521 24.1127C192.075 24.1127 202.274 34.3062 202.274 46.8522C202.274 52.5371 200.215 57.7319 196.782 61.7505C204.726 58.222 210.317 50.1847 210.317 40.9713C210.317 28.3273 200.117 18.2317 187.563 18.2317ZM164.81 40.9713C164.81 35.2864 166.869 30.0916 170.302 26.073C162.358 29.6015 156.767 37.5407 156.767 46.8522C156.767 59.3982 166.967 69.5918 179.521 69.5918C186.386 69.5918 192.565 66.5533 196.782 61.7505C193.938 62.9267 190.8 63.7108 187.563 63.7108C174.911 63.7108 164.81 53.5172 164.81 40.9713Z" fill="white"/>
<path d="M252.954 27.2491L261.192 21.4662C251.679 15.7814 240.008 17.6436 233.339 26.073C239.42 23.0345 246.677 23.5246 252.954 27.2491ZM227.356 41.2653C227.356 35.4824 229.416 29.5035 233.339 26.073C225.199 29.6015 219.118 37.5407 219.118 46.8522C219.118 59.5942 229.71 69.5918 242.558 69.5918C249.62 69.5918 257.367 66.2592 261.585 61.1624C258.642 62.9267 254.033 63.7108 250.698 63.7108C237.85 63.6128 227.258 53.8113 227.356 41.2653Z" fill="white"/>
<path d="M312.894 19.6039H271.212L263.072 25.2888H282.785V68.6116H292.2V25.3869H304.754L312.894 19.6039Z" fill="white"/>
<path d="M329.179 62.8287V19.6039H319.764V68.6116H329.179V68.5136L341.929 68.6116L350.069 62.8287H329.179ZM347.421 38.913H337.32L329.179 44.5979L339.281 44.6959C349.089 44.6959 354.287 54.4974 350.069 62.8287C363.212 58.418 361.446 38.913 347.421 38.913Z" fill="white"/>
</svg>
