<svg width="272" height="62" viewBox="0 0 272 62" fill="none" xmlns="http://www.w3.org/2000/svg">
<path d="M0.914729 22.5955H0V0.474032H21.1649V22.5955H20.2187V6.00441H0.914729V22.5955Z" fill="#00F0FF"/>
<path d="M23.6876 0.44243H35.0113C37.6609 0.44243 39.5849 0.72685 40.7836 1.29569C42.0032 1.86453 42.7497 2.61244 43.0231 3.53944C43.3175 4.46644 43.4647 5.80426 43.4647 7.55291V9.00661C43.4647 9.82827 43.2333 10.5657 42.7707 11.2188C42.3291 11.8719 41.7298 12.3775 40.9728 12.7357C40.2158 13.0938 39.3957 13.2729 38.5125 13.2729H24.6339V22.5639H23.6876V0.44243ZM38.5125 12.3564C39.5639 12.3564 40.4997 12.072 41.3198 11.5032C42.1399 10.9343 42.5499 10.1338 42.5499 9.10142C42.5499 8.00588 42.0978 7.21582 41.1936 6.73126C40.2894 6.22562 39.1539 5.97281 37.787 5.97281H24.6339V12.3564H38.5125Z" fill="#00F0FF"/>
<path d="M57.9231 0C60.1101 0 62.0972 0.516169 63.8846 1.54851C65.6931 2.58084 67.1125 3.98187 68.1429 5.75159C69.1943 7.50024 69.72 9.41744 69.72 11.5032C69.72 13.61 69.1943 15.5483 68.1429 17.318C67.1125 19.0666 65.6931 20.4571 63.8846 21.4895C62.0972 22.5218 60.1101 23.038 57.9231 23.038H56.7245C54.5166 23.038 52.5084 22.5218 50.6999 21.4895C48.8915 20.4571 47.4721 19.0666 46.4417 17.318C45.4113 15.5483 44.8961 13.61 44.8961 11.5032C44.8961 9.39637 45.4113 7.46864 46.4417 5.71999C47.4721 3.97134 48.8915 2.58084 50.6999 1.54851C52.5084 0.516169 54.5166 0 56.7245 0H57.9231ZM58.1755 17.5076C60.1101 17.5076 61.8975 17.2442 63.5377 16.7175C65.1779 16.1698 66.4816 15.4429 67.4489 14.537C68.4162 13.61 68.8999 12.5987 68.8999 11.5032C68.8999 10.4287 68.4162 9.43851 67.4489 8.53258C66.4816 7.60559 65.1779 6.87873 63.5377 6.35203C61.8975 5.80426 60.1101 5.53038 58.1755 5.53038H56.4722C54.5376 5.53038 52.7397 5.80426 51.0784 6.35203C49.4382 6.87873 48.1345 7.60559 47.1672 8.53258C46.1999 9.43851 45.7162 10.4287 45.7162 11.5032C45.7162 12.5987 46.1999 13.61 47.1672 14.537C48.1345 15.4429 49.4382 16.1698 51.0784 16.7175C52.7397 17.2442 54.5376 17.5076 56.4722 17.5076H58.1755Z" fill="#00F0FF"/>
<path d="M94.4137 27.3043H93.499V22.5639H70.6308V27.3043H69.716V17.0336H72.5864L76.8131 0.44243H91.5434V17.0336H94.4137V27.3043ZM90.6286 17.0336V5.97281H76.3399L73.5011 17.0336H90.6286Z" fill="#00F0FF"/>
<path d="M107.763 0C109.949 0 111.937 0.516169 113.724 1.54851C115.532 2.58084 116.952 3.98187 117.982 5.75159C119.034 7.50024 119.559 9.41744 119.559 11.5032C119.559 13.61 119.034 15.5483 117.982 17.318C116.952 19.0666 115.532 20.4571 113.724 21.4895C111.937 22.5218 109.949 23.038 107.763 23.038H106.564C104.356 23.038 102.348 22.5218 100.539 21.4895C98.7309 20.4571 97.3115 19.0666 96.2811 17.318C95.2507 15.5483 94.7355 13.61 94.7355 11.5032C94.7355 9.39637 95.2507 7.46864 96.2811 5.71999C97.3115 3.97134 98.7309 2.58084 100.539 1.54851C102.348 0.516169 104.356 0 106.564 0H107.763ZM108.015 17.5076C109.949 17.5076 111.737 17.2442 113.377 16.7175C115.017 16.1698 116.321 15.4429 117.288 14.537C118.256 13.61 118.739 12.5987 118.739 11.5032C118.739 10.4287 118.256 9.43851 117.288 8.53258C116.321 7.60559 115.017 6.87873 113.377 6.35203C111.737 5.80426 109.949 5.53038 108.015 5.53038H106.312C104.377 5.53038 102.579 5.80426 100.918 6.35203C99.2776 6.87873 97.9739 7.60559 97.0066 8.53258C96.0393 9.43851 95.5557 10.4287 95.5557 11.5032C95.5557 12.5987 96.0393 13.61 97.0066 14.537C97.9739 15.4429 99.2776 16.1698 100.918 16.7175C102.579 17.2442 104.377 17.5076 106.312 17.5076H108.015Z" fill="#00F0FF"/>
<path d="M124.293 19.1509C123.767 21.7423 122.379 23.038 120.129 23.038C119.478 23.038 118.899 22.8168 118.395 22.3743C117.911 21.9108 117.669 21.3525 117.669 20.6994C117.669 20.0674 117.89 19.5301 118.331 19.0877C118.794 18.6453 119.351 18.4241 120.003 18.4241C120.655 18.4241 121.191 18.6558 121.612 19.1193C122.032 19.5828 122.243 20.1306 122.243 20.7626C122.243 20.9944 122.211 21.205 122.148 21.3947C122.485 21.1629 122.758 20.7837 122.968 20.257C123.2 19.7303 123.399 19.0245 123.567 18.1396L127.195 0.474032H143.281V22.5639H142.367V6.00441H127.006L124.293 19.1509Z" fill="#00F0FF"/>
<path d="M162.603 11.0608V0.44243H163.518V11.0608H165.442L173.17 0.44243H179.605L171.214 11.9772L174.179 18.2028C175.02 19.9726 175.861 21.1208 176.703 21.6475L176.923 21.7739C176.755 21.4368 176.671 21.0892 176.671 20.731C176.671 20.0779 176.892 19.5301 177.333 19.0877C177.775 18.6453 178.322 18.4241 178.974 18.4241C179.605 18.4241 180.141 18.6453 180.582 19.0877C181.045 19.5301 181.276 20.0568 181.276 20.6678C181.276 21.3209 181.034 21.8792 180.551 22.3427C180.067 22.8062 179.499 23.038 178.847 23.038C177.397 23.038 176.272 22.6377 175.472 21.8371C174.694 21.0365 173.99 19.962 173.359 18.6137L170.173 11.9772H163.518V22.5639H162.603V11.9772H160.648L152.951 22.5639H146.517L154.938 11.0608L151.91 4.80353C151.09 3.07594 150.239 1.9172 149.355 1.32729L149.198 1.23248C149.366 1.56957 149.45 1.92773 149.45 2.30696C149.45 2.939 149.219 3.48677 148.756 3.95027C148.314 4.3927 147.778 4.61391 147.147 4.61391C146.517 4.61391 145.97 4.3927 145.507 3.95027C145.066 3.48677 144.845 2.94954 144.845 2.33856C144.845 1.74865 145.055 1.21142 145.476 0.72685C145.917 0.242283 146.622 0 147.589 0C148.851 0 149.871 0.410828 150.649 1.23248C151.427 2.03307 152.121 3.08648 152.73 4.3927L155.916 11.0608H162.603Z" fill="#00F0FF"/>
<path d="M201.615 17.0336V22.5639H182.847V0.44243H201.615V5.97281H183.699V11.0608H199.028V11.9772H183.699V17.0336H201.615Z" fill="#00F0FF"/>
<path d="M225.05 22.5639H224.135V14.2526H204.831V22.5639H203.917V0.44243H204.831V8.7538H224.135V0.44243H225.05V22.5639Z" fill="#00F0FF"/>
<path d="M250.694 0.44243V22.5639H249.748V3.12861L233.093 22.5639H227.573V0.44243H228.488V19.8778L245.174 0.44243H250.694Z" fill="#00F0FF"/>
<path d="M272 17.0336V22.5639H253.232V0.44243H272V5.97281H254.084V11.0608H269.414V11.9772H254.084V17.0336H272Z" fill="#00F0FF"/>
<path d="M55.6464 46.2305C55.6464 44.1237 56.1511 42.196 57.1604 40.4473C58.1908 38.6776 59.6102 37.2766 61.4187 36.2442C63.2271 35.2119 65.2458 34.6957 67.4748 34.6957H68.6734C70.5449 34.6957 72.2798 35.075 73.8779 35.8334C75.4761 36.5708 76.8219 37.6031 77.9153 38.9304C79.0088 40.2577 79.7553 41.7746 80.1548 43.4811L78.7039 43.7656C77.8417 42.7122 76.5275 41.8589 74.7611 41.2058C72.9947 40.5527 71.0496 40.2261 68.9258 40.2261H67.2225C65.2879 40.2261 63.5005 40.5 61.8603 41.0478C60.2201 41.5745 58.9058 42.3013 57.9175 43.2283C56.9502 44.1342 56.4665 45.135 56.4665 46.2305C56.4665 47.305 56.9502 48.3057 57.9175 49.2327C58.9058 50.1387 60.2201 50.8655 61.8603 51.4133C63.5005 51.94 65.2879 52.2033 67.2225 52.2033H68.9258C71.0496 52.2033 72.9947 51.8768 74.7611 51.2237C76.5275 50.5706 77.8417 49.7173 78.7039 48.6639L80.1548 48.9483C79.7343 50.6338 78.9878 52.1401 77.9153 53.4674C76.8429 54.7947 75.5076 55.8376 73.9095 56.596C72.3113 57.3545 70.566 57.7337 68.6734 57.7337H67.4748C65.2458 57.7337 63.2271 57.2175 61.4187 56.1852C59.6313 55.1529 58.2224 53.7624 57.192 52.0137C56.1616 50.244 55.6464 48.3163 55.6464 46.2305Z" fill="#00F0FF"/>
<path d="M84.8958 53.8466C84.3701 56.438 82.9822 57.7337 80.7322 57.7337C80.0803 57.7337 79.5021 57.5125 78.9974 57.0701C78.5137 56.6066 78.2719 56.0483 78.2719 55.3951C78.2719 54.7631 78.4927 54.2259 78.9343 53.7834C79.3969 53.341 79.9542 53.1198 80.606 53.1198C81.2579 53.1198 81.7941 53.3515 82.2147 53.815C82.6353 54.2785 82.8456 54.8263 82.8456 55.4584C82.8456 55.6901 82.814 55.9008 82.7509 56.0904C83.0874 55.8586 83.3607 55.4794 83.571 54.9527C83.8023 54.426 84.0021 53.7202 84.1703 52.8354L87.7977 35.1698H103.884V57.2597H102.97V40.7001H87.6085L84.8958 53.8466Z" fill="#00F0FF"/>
<path d="M125.162 51.7293V57.2597H106.394V35.1382H125.162V40.6685H107.246V45.7565H122.575V46.673H107.246V51.7293H125.162Z" fill="#00F0FF"/>
<path d="M151.215 62H150.3V57.2597H127.432V62H126.517V51.7293H129.387L133.614 35.1382H148.344V51.7293H151.215V62ZM147.43 51.7293V40.6685H133.141L130.302 51.7293H147.43Z" fill="#00F0FF"/>
<path d="M149.8 35.1698H150.904L158.979 47.9054L166.77 35.1382H172.889L159.421 57.2597H153.239L158.411 48.7903L149.8 35.1698Z" fill="#00F0FF"/>
<path d="M193.082 51.7293V57.2597H174.315V35.1382H193.082V40.6685H175.166V45.7565H190.496V46.673H175.166V51.7293H193.082Z" fill="#00F0FF"/>
<path d="M204.973 57.2597V40.6685H194.438V35.1382H216.454V40.6685H205.888V57.2597H204.973Z" fill="#00F0FF"/>
</svg>
