<svg width="190" height="69" viewBox="0 0 190 69" fill="none" xmlns="http://www.w3.org/2000/svg">
<path d="M41.9237 7.90483H9.42232V68H0.48675V0.589698H41.9237V7.90483ZM82.944 68H74.3788V46.6102H51.3686V68H42.7571V17.9053H51.3686V39.6192H74.3788V17.9053H82.944V68ZM117.529 68.926C110.738 68.926 105.213 66.7036 100.954 62.259C96.6946 57.7835 94.5649 51.811 94.5649 44.3416V42.7674C94.5649 37.7981 95.5063 33.3689 97.3891 29.4798C99.3027 25.5599 101.957 22.5042 105.352 20.3128C108.778 18.0904 112.482 16.9793 116.464 16.9793C122.977 16.9793 128.039 19.1244 131.65 23.4148C135.261 27.7051 137.067 33.8473 137.067 41.8415V45.4064H103.13C103.254 50.3449 104.689 54.342 107.436 57.3977C110.214 60.4225 113.732 61.9349 117.992 61.9349C121.017 61.9349 123.578 61.3176 125.677 60.083C127.776 58.8484 129.613 57.2125 131.187 55.1754L136.419 59.2496C132.221 65.7005 125.924 68.926 117.529 68.926ZM116.464 24.0166C113.007 24.0166 110.106 25.2821 107.76 27.8131C105.414 30.3132 103.963 33.8319 103.408 38.3691H128.501V37.7209C128.255 33.3689 127.082 30.0045 124.983 27.6279C122.884 25.2204 120.044 24.0166 116.464 24.0166ZM147.808 68V17.9053H167.346C174.013 17.9053 179.121 19.0781 182.671 21.4239C186.251 23.7388 188.041 27.1495 188.041 31.6558C188.041 33.9708 187.347 36.0696 185.958 37.9524C184.569 39.8043 182.516 41.2242 179.8 42.2119C182.825 42.9218 185.248 44.3107 187.069 46.3787C188.921 48.4467 189.847 50.9159 189.847 53.7864C189.847 58.3854 188.149 61.9041 184.754 64.3424C181.39 66.7808 176.621 68 170.448 68H147.808ZM156.373 46.0083V61.1016H170.54C174.121 61.1016 176.791 60.4379 178.55 59.1107C180.34 57.7835 181.235 55.9161 181.235 53.5086C181.235 48.5084 177.562 46.0083 170.216 46.0083H156.373ZM156.373 39.1562H167.438C175.463 39.1562 179.476 36.8104 179.476 32.1188C179.476 27.4273 175.679 25.0043 168.087 24.85H156.373V39.1562Z" fill="black"/>
</svg>
