<svg width="409" height="91" viewBox="0 0 409 91" fill="none" xmlns="http://www.w3.org/2000/svg">
<path d="M10.1941 43.3555L11.1766 49.3736C11.5451 49.3736 14.7384 49.2508 17.5633 49.2508C30.2137 49.2508 39.6709 51.7072 39.6709 62.6382C39.6709 67.1825 37.7057 71.3584 34.2668 71.3584C28.1258 71.3584 21.0022 66.4456 21.0022 61.2872C21.0022 59.0764 22.5989 55.3918 23.8271 53.1811L19.1599 50.6018C9.8256 58.8308 0 70.99 0 75.7799C0 83.7632 10.4397 90.1499 24.3184 90.1499C43.9696 90.1499 65.3402 73.9376 65.3402 56.4972C65.3402 46.9172 57.8482 39.1796 44.8293 38.4427C54.2864 33.6527 62.5154 26.0378 62.5154 18.7915C62.5154 7.49202 56.4972 0 39.1796 0C32.7929 0 14.8612 7.12356 3.19332 15.3525L2.57922 19.2827C6.141 24.6868 12.7733 34.0211 17.072 40.8991C13.7558 41.7588 12.1592 42.6185 10.1941 43.3555ZM24.1955 20.0197C25.1781 19.774 28.003 19.1599 29.9681 19.1599C34.6352 19.1599 37.7057 20.7566 37.7057 27.5117C37.7057 30.4594 36.2319 35.0037 34.5124 37.7057C30.9506 38.197 28.3714 38.5655 24.4412 39.4252C24.1955 32.7929 24.3184 28.3714 24.1955 20.0197Z" fill="white"/>
<path d="M106.656 39.4252V77.131L100.392 85.4827L102.111 88.5532H119.183C123.359 88.5532 127.289 87.9391 129.746 85.4827C135.764 79.7102 138.343 76.2712 141.414 71.8497L140.186 68.1651H127.535C129.5 66.5684 131.711 63.3751 131.711 58.0939V36.9688C135.15 32.4245 139.203 27.6345 141.414 23.8271L139.94 20.3881C124.465 19.5284 101.989 19.1599 99.0409 19.1599C96.4617 19.1599 94.3737 19.1599 91.0576 21.4935C86.2676 25.3009 83.1971 28.003 76.1964 36.1091L77.6702 39.4252H90.1979C89.0925 54.1636 88.4784 59.9362 80.4951 59.9362C78.0387 59.9362 76.6877 58.9536 75.5823 57.971L71.7749 59.0764C66.9849 75.043 65.2654 81.184 65.2654 83.6404C65.2654 86.0968 69.8097 90.0271 77.3018 90.0271C88.2327 90.0271 91.9173 82.535 95.4791 70.8671C98.0583 62.5154 98.9181 48.5139 99.1637 39.4252H106.656Z" fill="white"/>
<path d="M177.715 17.8089C172.556 17.8089 158.432 26.0378 149.835 31.5647C144.676 37.9514 142.22 48.5139 142.22 56.3744C142.22 76.2712 154.133 90.5183 171.205 90.5183C175.872 90.5183 191.225 82.2894 199.577 76.7625C204.735 70.3759 207.192 59.8133 207.192 51.9529C207.192 32.056 195.278 17.8089 177.715 17.8089ZM180.54 71.2356C179.434 71.6041 179.066 71.8497 176.978 71.8497C171.451 71.8497 166.907 64.4805 166.907 49.8649C166.907 43.3555 168.135 38.4427 169.24 36.1091C169.854 35.9863 170.468 35.7406 172.434 35.7406C178.82 35.7406 182.505 42.8642 182.505 57.2341C182.505 63.6208 181.522 68.1651 180.54 71.2356Z" fill="white"/>
<path d="M255.778 50.1106C257.375 45.689 262.165 35.0037 266.218 25.6694L265.236 22.3532C259.217 19.5284 252.708 18.3002 245.83 18.3002C235.636 21.2479 226.793 25.6694 217.827 31.5647C212.669 37.9514 210.826 48.8824 210.826 56.7428C210.826 76.6397 221.634 90.0271 238.092 90.0271C251.48 90.0271 260.2 79.9558 265.85 71.4812L263.516 68.0423C259.095 69.8846 254.305 71.2356 249.76 71.2356C241.286 71.2356 234.285 66.8141 234.285 47.6542C234.285 42.987 235.636 36.6004 238.584 32.056C239.935 32.056 242.514 32.3017 243.619 32.9158C245.584 34.0211 248.286 40.4078 251.357 49.7421L255.778 50.1106Z" fill="white"/>
<path d="M264.26 34.6352C267.576 42.7414 273.594 51.9529 275.928 56.2516L280.226 56.0059C280.84 49.7421 281.209 44.0924 281.454 38.6883H289.806V77.131L283.542 85.4827L285.262 88.5532H302.334C306.51 88.5532 310.44 87.9391 312.896 85.4827C318.915 79.7102 321.494 76.2712 324.564 71.8497L323.336 68.1651H310.686C312.651 66.5684 314.862 63.3751 314.862 58.0939V38.6883H320.02C321.617 38.6883 323.09 45.4434 326.407 55.6375L330.46 56.1287C336.478 45.0749 342.005 26.8976 343.233 20.5109L340.777 17.8089L328.003 21.125C302.825 19.1599 287.595 17.4404 284.402 17.4404C282.437 17.4404 281.332 17.6861 280.595 18.0545C280.595 18.0545 265.979 28.7399 264.997 29.7224C264.26 30.4594 263.768 31.4419 263.768 32.4245C263.768 33.1614 264.014 33.8983 264.26 34.6352Z" fill="white"/>
<path d="M341.565 39.9165H347.092V77.131L340.706 85.4827L342.425 88.5532H374.727C390.325 88.5532 408.011 76.394 408.011 61.0415C408.011 51.4616 401.993 41.7588 389.342 41.7588C387.009 41.7588 378.903 44.5837 372.147 46.9172V35.2493C376.937 30.4594 379.271 27.266 382.096 23.213L380.868 19.5284H362.568C358.392 19.5284 354.339 20.1425 351.882 22.5989C345.864 28.3714 343.162 32.4245 339.846 36.846L341.565 39.9165ZM373.744 53.5495C380.745 53.5495 383.447 57.7254 383.447 62.1469C383.447 66.2 381.85 71.1128 380.991 72.341H372.147V53.5495H373.744Z" fill="white"/>
</svg>
