<svg width="277" height="78" viewBox="0 0 277 78" fill="none" xmlns="http://www.w3.org/2000/svg">
<path d="M38.9049 8.8303C38.9049 6.99318 38.9049 5.04124 39.8234 3.89304C40.742 2.97448 41.6605 2.40038 44.1866 2.40038H44.8755C50.0424 2.40038 51.9943 4.69677 57.0464 11.0119C61.5244 16.7529 67.2654 25.3644 71.5137 32.3684H72.2027L69.6766 0.56326H0.440162V1.25218C1.47354 1.367 3.08102 1.48181 4.6885 2.05591C7.78864 3.20412 9.16648 6.41908 9.16648 12.2749V64.2884C9.16648 70.1442 7.78864 73.3591 4.6885 74.5073C3.08102 75.0814 1.47354 75.1963 0.440162 75.3111V76H48.7794V75.1963C46.3682 74.9666 43.7273 74.6222 42.1198 73.7036C39.7086 72.3258 38.9049 69.5701 38.9049 64.0587V8.8303ZM74.0604 76H110.573V75.5407C109.884 75.4259 109.195 75.1963 108.621 74.737C107.817 74.1629 107.588 73.3591 107.473 71.6368C107.358 70.3738 107.243 67.6181 107.243 60.9586V50.3951H115.281V60.9586C115.281 67.6181 115.166 70.3738 115.051 71.6368C114.936 73.3591 114.707 74.1629 113.903 74.737C113.329 75.1963 112.64 75.4259 111.951 75.5407V76H148.464V75.5407C147.086 75.4259 146.282 75.3111 145.478 74.9666C144.215 74.3925 143.527 73.5888 143.182 71.7517C142.838 69.7997 142.608 66.2403 142.608 60.9586V37.9946C142.608 32.7129 142.838 29.1534 143.182 27.2015C143.527 25.3644 144.215 24.5606 145.478 23.9865C146.282 23.6421 147.086 23.5273 148.464 23.4124V22.9532H111.951V23.4124C112.64 23.5273 113.329 23.7569 113.903 24.2162C114.707 24.7903 114.936 25.594 115.051 27.3163C115.166 28.5793 115.281 31.335 115.281 37.9946V48.558H107.243V37.9946C107.243 31.335 107.358 28.5793 107.473 27.3163C107.588 25.594 107.817 24.7903 108.621 24.2162C109.195 23.7569 109.884 23.5273 110.573 23.4124V22.9532H74.0604V23.4124C75.4383 23.5273 76.242 23.6421 77.0457 23.9865C78.3088 24.5606 78.9977 25.3644 79.3421 27.2015C79.6866 29.1534 79.9162 32.7129 79.9162 37.9946V60.9586C79.9162 66.2403 79.6866 69.7997 79.3421 71.7517C78.9977 73.5888 78.3088 74.3925 77.0457 74.9666C76.242 75.3111 75.4383 75.4259 74.0604 75.5407V76ZM176.92 47.9839V47.6395H207.922C208.037 46.6061 208.037 45.6875 208.037 45.2282C208.037 33.1721 198.736 21.9198 180.365 21.9198C163.372 21.9198 148.445 31.335 148.445 50.1655C148.445 65.4366 159.812 77.0334 181.858 77.0334C199.425 77.0334 205.51 66.5848 207.692 57.7436L206.429 57.3992C204.477 65.3217 198.621 73.9332 187.139 73.9332C183.465 73.9332 181.283 72.5554 179.906 70.8331C178.298 68.7663 176.92 64.8625 176.92 47.9839ZM177.954 25.3644C178.413 23.9865 179.102 23.2976 180.48 23.2976C181.972 23.2976 182.661 23.8717 183.121 25.2496C184.269 28.6942 184.384 34.6648 184.384 43.1615C184.384 45.5727 183.809 46.032 182.202 46.032H176.92C176.92 33.6314 177.15 27.7756 177.954 25.3644ZM246.183 76C271.214 76 276.036 69.3404 276.036 61.6475C276.036 53.2656 268.228 48.6728 256.976 47.9839V47.7543C268.228 46.6061 273.74 43.0467 273.74 35.5834C273.74 26.857 265.013 22.9532 246.068 22.9532H207.718V23.4124C209.096 23.5273 209.9 23.6421 210.703 23.9865C211.966 24.5606 212.655 25.3644 213 27.2015C213.344 29.1534 213.574 32.7129 213.574 37.9946V60.9586C213.574 66.2403 213.344 69.7997 213 71.7517C212.655 73.5888 211.966 74.3925 210.703 74.9666C209.9 75.3111 209.096 75.4259 207.718 75.5407V76H246.183ZM240.901 47.0654V37.9946C240.901 32.0239 241.016 29.6127 241.131 28.4645C241.36 25.8237 242.394 24.5606 244.231 24.5606C247.331 24.5606 248.594 27.0867 248.594 36.0426C248.594 43.9652 247.561 47.0654 243.312 47.0654H240.901ZM240.901 48.6728H243.312C247.561 48.6728 249.398 51.8878 249.398 61.6475C249.398 69.5701 248.824 74.3925 244.231 74.3925C242.623 74.3925 241.36 73.5888 241.131 70.3738C241.016 69.2256 240.901 66.8144 240.901 60.9586V48.6728Z" fill="black"/>
</svg>
