<svg width="321" height="71" viewBox="0 0 321 71" fill="none" xmlns="http://www.w3.org/2000/svg">
<path d="M76.9383 1.2V-4.76837e-06H0.338282V70H1.73828V1.2H76.9383ZM139.038 70V20H137.638V43.9H66.5375V20H65.1375V70H66.5375V45.1H137.638V70H139.038ZM234.27 45.1V43.9C234.27 31.1 224.97 19.2 194.37 19.2C168.87 19.2 151.77 28.5 151.77 44.9C151.77 63.2 167.97 70.8 197.87 70.8C209.27 70.8 224.27 68.6 230.67 66L230.27 64.9C222.87 67.7 208.27 69.6 198.27 69.6C164.67 69.6 153.47 59.8 153.17 45.1H234.27ZM194.37 20.4C227.57 20.4 232.87 34.6 232.87 43.9H153.17C153.57 30.3 168.17 20.4 194.37 20.4ZM295.278 21.2C312.778 21.2 315.978 26.3 315.978 32C315.978 39 310.378 43.6 295.978 43.6H248.178V21.2H295.278ZM297.178 44.8C312.278 44.8 319.478 48 319.478 56.3C319.478 61.1 316.678 68.8 298.578 68.8H248.178V44.8H297.178ZM298.478 70C314.178 70 320.878 64.7 320.878 56.2C320.878 48.8 314.978 44.3 303.078 44.1V44C311.178 43.3 317.378 39.2 317.378 31.9C317.378 24.2 311.978 20 295.278 20H246.778V70H298.478Z" fill="black"/>
</svg>
