<svg width="310" height="81" viewBox="0 0 310 81" fill="none" xmlns="http://www.w3.org/2000/svg">
<path fill-rule="evenodd" clip-rule="evenodd" d="M0 79.8904V0H54.5376V27.1849H32.1461V79.8904H0ZM109.249 42.9239V22.1918H140.841V79.8904H109.249V63.9748H95.5551V79.8904H63.9632V22.1918H95.5551V42.9239H109.249ZM190.521 35.3662C195.655 35.3662 197.034 38.8356 197.366 43.7178H184.671C185.003 38.9466 185.958 35.3662 190.521 35.3662ZM218.472 75.8662V56.4718H216.19C211.085 59.5352 203.207 59.3997 199.592 59.3375C199.168 59.3302 198.803 59.3239 198.507 59.3239C189.528 59.3239 184.782 56.2562 184.449 51.4849H219.953C223.057 26.7411 207.173 21.0822 189.215 21.0822C163.499 21.0822 152.303 35.063 152.303 50.8192C152.303 72.2343 165.716 81 190.435 81C209.723 81 215.049 78.1479 218.472 75.8662ZM309.25 61.9948C309.25 77.529 295.394 79.8592 271.34 79.8592H233.873V22.1605H274.887C293.732 22.1605 306.59 25.0455 306.59 36.6961C306.59 43.2427 301.791 46.0964 295.584 48.2046C302.678 49.98 309.25 54.7824 309.25 61.9948ZM265.246 38.2183V62.7465C269.239 63.507 277.225 63.5451 277.225 57.6127C277.225 51.6803 271.141 51.338 268.099 51.9085V49.0563C270.38 49.0563 274.944 48.0296 274.944 43.9225C274.944 39.8155 271.521 38.2183 265.246 38.2183Z" fill="black"/>
</svg>
