<svg width="324" height="73" viewBox="0 0 324 73" fill="none" xmlns="http://www.w3.org/2000/svg">
<path d="M0.722752 71H27.6513V19.2289H75.2504V0.454747H0.722752V71ZM106.407 71V53.4585H131.534V71H157.324V19.9874H131.534V37.8134H106.407V19.9874H80.6158V71H106.407ZM242.928 52.6051V52.4155H217.517C217.327 53.6481 215.431 58.5787 203.199 58.5787H203.104C192.674 58.5787 188.502 54.4067 187.649 49.1917H243.118V46.3471C243.118 34.1155 238.471 18.5652 205.19 18.5652H199.975C168.4 18.5652 162.332 32.4087 162.332 44.2611V46.1574C162.332 58.1046 168.969 72.4223 200.259 72.4223H205.285C238.566 72.4223 242.928 59.7166 242.928 52.6051ZM202.63 31.0812C212.301 31.0812 216.379 34.0206 217.327 38.7616H187.933C189.166 34.2103 192.864 31.0812 202.63 31.0812ZM297.623 71C316.966 71 323.793 64.3627 323.793 56.3979V55.6393C323.793 48.0538 316.681 44.2611 309.38 42.9336C316.018 41.6061 320.948 38.0978 320.948 32.5035V31.745C320.948 24.7284 314.69 19.9874 294.115 19.9874H247.938V71H297.623ZM273.349 38.6668V31.9346H287.572C293.261 31.9346 295.158 32.788 295.158 35.0636V35.2533C295.158 37.5289 293.261 38.6668 287.667 38.6668H273.349ZM273.349 58.7684V50.045H289.184C295.063 50.045 297.433 51.3725 297.433 54.0274V54.4067C297.433 57.1564 295.063 58.7684 289.279 58.7684H273.349Z" fill="black"/>
</svg>
