<svg width="406" height="113" viewBox="0 0 406 113" fill="none" xmlns="http://www.w3.org/2000/svg">
<path d="M0.00653747 0.301817H67.3578V27.5688H65.1209C64.9596 23.7801 64.0931 19.9913 62.5211 16.2025C60.9492 12.4138 58.3293 9.18929 54.6615 6.52909C50.9936 3.8689 46.1569 2.5388 40.1513 2.5388H30.3569V37.4236C32.8156 37.1012 35.6975 36.94 39.0026 36.94C46.6204 36.94 52.9888 38.0887 58.1076 40.3861C63.2265 42.6836 66.9951 45.7468 69.4135 49.5759C71.8318 53.3647 73.041 57.5363 73.041 62.0909C73.041 65.7184 72.2953 69.0638 70.804 72.1271C69.3127 75.15 67.1362 77.7901 64.2744 80.0472C61.453 82.264 58.1278 83.9771 54.2987 85.1862C50.4696 86.3954 46.2375 87 41.6023 87H0.00653747V84.763H13.0052V2.5388H0.00653747V0.301817ZM30.3569 39.6606V84.763H40.0304C42.9324 84.763 45.3306 84.2995 47.225 83.3725C49.1597 82.4857 50.7115 80.4301 51.8803 77.2056C53.0895 73.9409 53.6941 69.0638 53.6941 62.5746C53.6941 52.9817 52.1222 46.694 48.9783 43.7114C45.8748 40.6884 41.7635 39.1769 36.6447 39.1769C34.3069 39.1769 32.211 39.3382 30.3569 39.6606ZM137.067 78.959H139.304C139.103 81.9819 137.974 84.501 135.918 86.5163C133.903 88.4913 131.182 89.4788 127.756 89.4788C124.33 89.4788 121.348 88.5316 118.808 86.6372C116.269 84.7026 114.596 82.1431 113.79 78.959C113.065 80.4503 112.017 81.9819 110.646 83.5538C109.276 85.1258 107.382 86.5163 104.963 87.7255C102.505 88.8944 99.5825 89.4788 96.1968 89.4788C90.5136 89.4788 86.1606 87.927 83.1376 84.8235C80.1147 81.7199 78.6032 78.1125 78.6032 74.0013C78.6032 70.011 79.631 66.8269 81.6866 64.4488C83.7825 62.0304 86.1606 60.2771 88.8208 59.1889C91.5213 58.1409 94.8465 57.1333 98.7965 56.1659C102.061 55.4404 104.48 54.8358 106.052 54.3521C107.664 53.8685 109.135 53.0624 110.465 51.9338C111.836 50.7649 112.521 49.2333 112.521 47.3389V39.5397C112.521 37.0004 111.836 34.4208 110.465 31.8009C109.135 29.1408 106.233 27.8107 101.759 27.8107C99.1391 27.8107 97.0835 28.4152 95.5922 29.6244C94.1009 30.7933 93.3552 32.0428 93.3552 33.3729C93.3552 33.8566 93.4157 34.2798 93.5366 34.6425C93.6978 35.0053 93.9396 35.3882 94.2621 35.7912C94.6248 36.2346 94.9473 36.5772 95.2294 36.819C95.5519 37.0609 95.7937 37.2826 95.9549 37.4841C97.7687 39.0157 98.6756 40.8698 98.6756 43.0463C98.6756 44.5376 98.2927 45.8879 97.5269 47.0971C96.7611 48.2659 95.7131 49.193 94.383 49.8782C93.0529 50.5231 91.6019 50.8455 90.03 50.8455C87.4101 50.8455 85.294 50.0193 83.6818 48.3667C82.1098 46.6739 81.3239 44.5578 81.3239 42.0185C81.3239 39.2374 82.1501 36.5974 83.8027 34.0984C85.4552 31.5591 87.9744 29.5035 91.3601 27.9316C94.7458 26.3596 98.8771 25.5737 103.754 25.5737C107.946 25.5737 111.896 26.3193 115.604 27.8107C119.353 29.302 122.376 31.6196 124.673 34.7634C126.97 37.867 128.119 41.6961 128.119 46.2506V78.959C128.119 83.1508 129.53 85.2467 132.351 85.2467C133.641 85.2467 134.729 84.6623 135.616 83.4934C136.503 82.2842 136.986 80.7727 137.067 78.959ZM112.521 52.9616C110.908 54.5335 108.611 55.9241 105.628 57.1333C102.686 58.3424 100.691 59.2493 99.6429 59.8539C98.595 60.4182 97.5873 61.7886 96.62 63.9651C95.693 66.1417 95.2294 69.5274 95.2294 74.1222C95.2294 77.9513 95.6728 80.9138 96.5595 83.0097C97.4866 85.1459 99.1794 86.214 101.638 86.214C103.291 86.214 104.963 85.5691 106.656 84.2793C108.389 82.9896 109.8 81.1758 110.888 78.838C111.977 76.46 112.521 73.7595 112.521 70.7365V52.9616ZM178.24 112.997H140.634V110.76H151.033V30.2895H140.634V28.0525H166.631V34.2193C167.76 31.5994 169.473 29.5035 171.771 27.9316C174.068 26.3596 176.648 25.5737 179.509 25.5737C183.54 25.5737 187.429 27.0247 191.178 29.9267C194.967 32.8288 198.01 36.7384 200.307 41.6558C202.605 46.5731 203.753 51.8532 203.753 57.496C203.753 63.1792 202.605 68.4794 200.307 73.3967C198.01 78.3141 194.967 82.2237 191.178 85.1258C187.429 88.0278 183.54 89.4788 179.509 89.4788C176.648 89.4788 174.068 88.6929 171.771 87.1209C169.473 85.549 167.76 83.4329 166.631 80.7727V110.76H178.24V112.997ZM166.631 45.4042V69.6483C166.631 72.9937 167.115 75.9562 168.083 78.5357C169.05 81.075 170.319 83.05 171.891 84.4607C173.463 85.8311 175.096 86.5163 176.789 86.5163C179.691 86.5163 181.827 85.1459 183.197 82.4051C184.608 79.6643 185.495 76.3189 185.857 72.3689C186.18 68.3786 186.341 63.421 186.341 57.496C186.341 51.6113 186.16 46.694 185.797 42.744C185.475 38.7537 184.608 35.3882 183.197 32.6474C181.827 29.9066 179.691 28.5362 176.789 28.5362C174.128 28.5362 171.771 30.0879 169.715 33.1915C167.659 36.2951 166.631 40.366 166.631 45.4042ZM271.951 28.0525V30.2895H261.552V84.763H271.951V110.519H269.714C269.714 105.803 268.807 101.671 266.993 98.1245C265.18 94.5372 262.62 91.7964 259.315 89.902C255.97 87.9673 252.181 87 247.949 87H231.625C227.352 87 223.564 87.9673 220.259 89.902C216.954 91.7964 214.394 94.5372 212.58 98.1245C210.726 101.671 209.799 105.803 209.799 110.519H207.562V84.763H217.236C221.307 81.7401 224.531 78.0118 226.909 73.5781C229.327 69.1444 231.061 63.4411 232.109 56.4682C233.197 49.4953 233.761 40.769 233.801 30.2895H218.203V28.0525H271.951ZM245.954 30.2895H236.28C236.24 40.1644 235.797 48.4675 234.95 55.1986C234.104 61.8894 232.572 67.6128 230.355 72.3689C228.179 77.125 225.075 81.2564 221.045 84.763H245.954V30.2895ZM334.163 78.959H336.4C336.199 81.9819 335.07 84.501 333.015 86.5163C330.999 88.4913 328.279 89.4788 324.853 89.4788C321.427 89.4788 318.444 88.5316 315.905 86.6372C313.365 84.7026 311.693 82.1431 310.887 78.959C310.161 80.4503 309.113 81.9819 307.743 83.5538C306.372 85.1258 304.478 86.5163 302.06 87.7255C299.601 88.8944 296.679 89.4788 293.293 89.4788C287.61 89.4788 283.257 87.927 280.234 84.8235C277.211 81.7199 275.7 78.1125 275.7 74.0013C275.7 70.011 276.727 66.8269 278.783 64.4488C280.879 62.0304 283.257 60.2771 285.917 59.1889C288.618 58.1409 291.943 57.1333 295.893 56.1659C299.158 55.4404 301.576 54.8358 303.148 54.3521C304.76 53.8685 306.231 53.0624 307.561 51.9338C308.932 50.7649 309.617 49.2333 309.617 47.3389V39.5397C309.617 37.0004 308.932 34.4208 307.561 31.8009C306.231 29.1408 303.329 27.8107 298.855 27.8107C296.235 27.8107 294.18 28.4152 292.688 29.6244C291.197 30.7933 290.452 32.0428 290.452 33.3729C290.452 33.8566 290.512 34.2798 290.633 34.6425C290.794 35.0053 291.036 35.3882 291.358 35.7912C291.721 36.2346 292.044 36.5772 292.326 36.819C292.648 37.0609 292.89 37.2826 293.051 37.4841C294.865 39.0157 295.772 40.8698 295.772 43.0463C295.772 44.5376 295.389 45.8879 294.623 47.0971C293.857 48.2659 292.809 49.193 291.479 49.8782C290.149 50.5231 288.698 50.8455 287.126 50.8455C284.506 50.8455 282.39 50.0193 280.778 48.3667C279.206 46.6739 278.42 44.5578 278.42 42.0185C278.42 39.2374 279.246 36.5974 280.899 34.0984C282.552 31.5591 285.071 29.5035 288.456 27.9316C291.842 26.3596 295.973 25.5737 300.85 25.5737C305.042 25.5737 308.992 26.3193 312.7 27.8107C316.449 29.302 319.472 31.6196 321.769 34.7634C324.067 37.867 325.215 41.6961 325.215 46.2506V78.959C325.215 83.1508 326.626 85.2467 329.448 85.2467C330.737 85.2467 331.826 84.6623 332.712 83.4934C333.599 82.2842 334.083 80.7727 334.163 78.959ZM309.617 52.9616C308.005 54.5335 305.707 55.9241 302.725 57.1333C299.782 58.3424 297.787 59.2493 296.739 59.8539C295.691 60.4182 294.684 61.7886 293.716 63.9651C292.789 66.1417 292.326 69.5274 292.326 74.1222C292.326 77.9513 292.769 80.9138 293.656 83.0097C294.583 85.1459 296.276 86.214 298.734 86.214C300.387 86.214 302.06 85.5691 303.752 84.2793C305.486 82.9896 306.896 81.1758 307.985 78.838C309.073 76.46 309.617 73.7595 309.617 70.7365V52.9616ZM363.728 54.7754H369.532C371.95 54.7754 373.764 54.4529 374.973 53.808C376.223 53.2034 377.19 51.7927 377.875 49.5759C378.601 47.3591 379.125 43.8927 379.447 39.1769C379.729 35.3479 380.717 32.1234 382.41 29.5035C384.143 26.8836 387.408 25.5737 392.204 25.5737C396.235 25.5737 399.257 26.6216 401.273 28.7175C403.328 30.7731 404.356 33.2318 404.356 36.0935C404.356 38.794 403.49 40.9101 401.756 42.4417C400.023 43.9734 398.028 44.7392 395.771 44.7392C393.594 44.7392 391.579 44.0137 389.725 42.5626C387.911 41.1116 387.004 39.1165 387.004 36.5772C387.004 35.1262 387.327 33.8162 387.972 32.6474C388.455 31.8413 389.04 31.1964 389.725 30.7127C390.37 30.1887 390.692 29.7856 390.692 29.5035C390.692 28.8586 390.168 28.5362 389.121 28.5362C384.566 28.5362 382.047 32.3451 381.563 39.9629C381.321 44.6787 380.858 48.1652 380.173 50.4223C379.528 52.6794 377.875 54.4731 375.215 55.8032C386.581 55.8838 392.95 60.1361 394.32 68.56C394.481 70.011 394.562 72.6108 394.562 76.3592C394.562 79.4225 394.844 81.8005 395.408 83.4934C395.932 85.1459 397.081 85.9722 398.854 85.9722C401.716 85.9722 403.207 83.6344 403.328 78.959H405.807C405.606 85.9722 402.018 89.4788 395.046 89.4788C384.808 89.4788 379.487 83.312 379.084 70.9784C378.923 66.7059 378.399 63.5621 377.512 61.5468C376.626 59.4912 375.497 58.2215 374.127 57.7379C372.797 57.2542 370.943 57.0123 368.564 57.0123H363.728V84.763H374.127V87H337.73V84.763H348.129V30.2895H337.73V28.0525H374.127V30.2895H363.728V54.7754Z" fill="black"/>
</svg>
