<svg width="434" height="99" viewBox="0 0 434 99" fill="none" xmlns="http://www.w3.org/2000/svg">
<path d="M0.121773 0.899995V17.85H2.83377C3.96377 17.85 5.88477 19.771 5.88477 20.901V60.564C5.88477 61.694 3.96377 63.615 2.83377 63.615H0.121773V80H41.3668C63.7408 80 77.0748 72.09 77.0748 54.914C77.0748 34.574 60.8028 30.845 41.2538 30.845H37.0728V19.206H48.7118L51.3108 28.359H69.0518V0.899995H0.121773ZM38.9938 47.004C43.6268 47.004 45.9998 49.377 45.9998 54.914C45.9998 60.451 43.6268 63.163 38.9938 63.163H37.0728V47.004H38.9938ZM82.3054 22.935V42.371H94.0574C96.0914 40.45 99.0294 38.416 104.679 38.416C109.764 38.416 111.459 39.885 111.459 42.936V45.761C108.295 45.309 105.357 45.196 101.176 45.196C87.0514 45.196 78.2374 50.846 78.2374 64.18C78.2374 75.706 87.1644 80.904 96.4304 80.904C103.888 80.904 109.538 78.757 113.606 74.124C115.866 78.531 120.16 81.13 128.07 81.13C134.85 81.13 140.274 79.774 144.455 77.401V63.615H143.325C142.308 63.615 140.613 61.92 140.613 60.903V39.998C140.613 25.873 132.703 18.98 112.024 18.98C99.4814 18.98 89.0854 20.788 82.3054 22.935ZM108.747 65.423C106.939 65.423 105.131 64.519 105.131 61.129C105.131 57.626 106.261 56.044 108.747 56.044C109.538 56.044 110.555 56.157 111.459 56.383V64.632C110.555 65.197 109.764 65.423 108.747 65.423ZM145.229 98.306H183.197V83.051H179.355V74.576C182.406 77.062 186.587 78.418 192.689 78.418C206.588 78.418 218.227 70.282 218.227 48.021C218.227 25.195 207.718 18.98 196.305 18.98C188.621 18.98 183.084 22.37 178.79 27.455C177.886 21.692 176.191 20.11 173.931 20.11H145.003V37.625H147.489C148.506 37.625 150.201 39.32 150.201 40.337V80.339C150.201 81.356 148.506 83.051 147.489 83.051H145.229V98.306ZM182.067 62.598C180.937 62.598 180.033 62.485 179.355 62.146V39.998C180.259 39.885 181.163 39.772 182.067 39.772C185.909 39.772 188.734 41.58 188.734 50.507C188.734 60.564 185.909 62.598 182.067 62.598ZM251.073 37.625H255.028V63.615H247.344C249.378 57.4 251.073 47.795 251.073 38.303V37.625ZM239.66 96.95L241.016 80H266.441L267.797 96.95H290.058V63.615H286.894C285.877 63.615 284.182 61.92 284.182 60.903V40.337C284.182 39.32 285.877 37.625 286.894 37.625H289.154V20.11H223.275V37.625H225.196C226.439 37.625 228.021 38.981 227.908 40.337C227.23 49.603 225.083 58.643 221.467 63.615H217.399V96.95H239.66ZM295.725 22.935V42.371H307.477C309.511 40.45 312.449 38.416 318.099 38.416C323.184 38.416 324.879 39.885 324.879 42.936V45.761C321.715 45.309 318.777 45.196 314.596 45.196C300.471 45.196 291.657 50.846 291.657 64.18C291.657 75.706 300.584 80.904 309.85 80.904C317.308 80.904 322.958 78.757 327.026 74.124C329.286 78.531 333.58 81.13 341.49 81.13C348.27 81.13 353.694 79.774 357.875 77.401V63.615H356.745C355.728 63.615 354.033 61.92 354.033 60.903V39.998C354.033 25.873 346.123 18.98 325.444 18.98C312.901 18.98 302.505 20.788 295.725 22.935ZM322.167 65.423C320.359 65.423 318.551 64.519 318.551 61.129C318.551 57.626 319.681 56.044 322.167 56.044C322.958 56.044 323.975 56.157 324.879 56.383V64.632C323.975 65.197 323.184 65.423 322.167 65.423ZM364.172 60.903C364.172 61.92 362.477 63.615 361.46 63.615H359.2V80H396.151V63.615H393.326V57.965C396.038 57.965 397.62 59.434 398.524 62.372L400.445 68.7C403.722 77.74 409.033 81.017 419.881 81.017C427.904 81.017 433.102 78.305 433.102 78.305V63.615H432.085C429.712 63.615 428.921 62.937 427.904 61.129L425.757 57.4C423.271 52.993 420.672 50.62 416.604 50.168V49.603C420.672 49.038 423.271 46.552 425.305 42.71L426.548 40.337C428.13 37.399 429.034 37.06 430.39 37.06H431.407V22.031C431.407 22.031 426.661 18.98 418.073 18.98C408.92 18.98 404.174 21.353 401.236 29.602L398.298 38.755C397.507 41.354 396.038 42.71 393.326 42.71V37.625H396.151V20.11H359.2V37.625H361.46C362.477 37.625 364.172 39.32 364.172 40.337V60.903Z" fill="black"/>
</svg>
