<svg width="512" height="89" viewBox="0 0 512 89" fill="none" xmlns="http://www.w3.org/2000/svg">
<path d="M0.496556 71H58.3361C86.8766 71 93.988 60.8544 93.988 48.1486V47.2953C93.988 34.874 86.8766 25.4869 58.3361 25.4869H27.4251V17.0481H87.2558V0.454747H0.496556V71ZM27.4251 53.9326V41.4165H55.3967C63.8356 41.4165 66.1112 43.9766 66.1112 47.3901V47.6746C66.1112 50.9932 63.8356 53.9326 55.3967 53.9326H27.4251ZM144.713 64.173C145.472 68.6295 148.506 71 152.962 71H174.391V56.1134H171.642C169.935 56.1134 169.461 55.2601 169.461 53.9326V35.0636C169.461 28.1419 167.28 18.66 135.421 18.66H130.111C99.4845 18.66 97.3985 28.9004 97.3985 35.7274V36.2963H121.293C121.482 34.6844 121.957 31.0812 132.766 31.0812H133.145C143.196 31.0812 144.239 33.1673 144.239 34.9688C144.239 36.3911 143.575 37.2445 141.394 37.4341L116.836 39.6149C101.665 40.9424 96.1658 45.873 96.1658 54.4067V55.5445C96.1658 63.8886 102.708 71.9482 119.776 71.9482H120.819C135.611 71.9482 142.248 66.7331 144.713 64.173ZM144.239 49.0968C144.239 54.5015 138.455 59.6217 128.973 59.6217C122.715 59.6217 120.914 56.7772 120.914 54.4067V54.3119C120.914 51.7518 122.81 50.7088 127.172 49.9502L144.239 46.916V49.0968ZM178.264 19.9874V88.826H204.055V64.742C205.856 66.3539 213.916 71.9482 228.329 71.9482H230.13C253.835 71.9482 261.136 58.6735 261.136 45.9678V43.9766C261.136 31.1761 254.309 19.0392 230.889 19.0392H228.897C214.011 19.0392 206.046 25.2973 204.055 27.0989V19.9874H178.264ZM204.055 45.2093C204.055 39.2357 208.606 33.1673 219.89 33.1673H220.364C231.837 33.1673 234.966 39.3305 234.966 45.2093V45.5885C234.966 51.088 231.837 57.7254 220.364 57.7254H219.89C208.796 57.7254 204.055 51.1829 204.055 45.5885V45.2093ZM261.993 83.042H285.603V71H329.978V83.042H353.588V55.4497H343.537V19.9874H273.845C273.561 41.6061 272.233 49.9502 269.484 55.4497H261.993V83.042ZM293.568 55.4497C295.369 50.4243 296.223 43.8818 296.507 35.0636H318.126V55.4497H293.568ZM403.798 64.173C404.557 68.6295 407.591 71 412.048 71H433.477V56.1134H430.727C429.02 56.1134 428.546 55.2601 428.546 53.9326V35.0636C428.546 28.1419 426.365 18.66 394.506 18.66H389.196C358.57 18.66 356.484 28.9004 356.484 35.7274V36.2963H380.378C380.568 34.6844 381.042 31.0812 391.851 31.0812H392.23C402.281 31.0812 403.324 33.1673 403.324 34.9688C403.324 36.3911 402.66 37.2445 400.48 37.4341L375.922 39.6149C360.751 40.9424 355.251 45.873 355.251 54.4067V55.5445C355.251 63.8886 361.794 71.9482 378.861 71.9482H379.904C394.696 71.9482 401.333 66.7331 403.798 64.173ZM403.324 49.0968C403.324 54.5015 397.54 59.6217 388.058 59.6217C381.8 59.6217 379.999 56.7772 379.999 54.4067V54.3119C379.999 51.7518 381.895 50.7088 386.257 49.9502L403.324 46.916V49.0968ZM482.104 71H511.403L487.603 42.5543L508.369 19.9874H480.587L463.14 39.8994V19.9874H437.349V71H463.14V48.0538L482.104 71Z" fill="black"/>
</svg>
