<svg width="423" height="109" viewBox="0 0 423 109" fill="none" xmlns="http://www.w3.org/2000/svg">
<path d="M0.529656 0.625995V81H30.7273C51.0505 81 64.3696 74.4553 64.3696 54.821C64.3696 37.9425 50.8208 30.1347 30.7273 30.1347H17.7527V15.5526H57.9397V0.625995H0.529656ZM30.7273 66.7623H17.7527V44.3724H30.7273C40.8315 44.3724 47.7207 46.8985 47.7207 54.821C47.7207 63.5474 40.8315 66.7623 30.7273 66.7623ZM78.3256 41.1575H93.8263C93.8263 37.598 96.582 32.7756 104.734 32.7756C111.049 32.7756 114.494 35.6461 114.494 39.7796C114.494 49.6541 76.9477 43.7983 76.9477 67.4512C76.9477 75.0294 80.9664 82.7223 93.4818 82.7223C103.586 82.7223 114.264 76.8665 114.494 54.1321C114.494 54.0173 114.494 53.9025 114.494 53.7877V81H131.143V44.7169C131.143 31.5126 126.435 20.1454 105.538 20.1454C87.3964 20.1454 79.5886 28.6421 78.3256 41.1575ZM114.494 53.7877V54.1321C114.379 63.2029 110.59 71.9292 100.486 71.9292C95.2041 71.9292 93.7115 68.7143 93.7115 66.303C93.7115 57.4619 108.294 59.6435 114.494 53.7877ZM164.964 51.1468C164.964 69.518 174.035 82.7223 188.158 82.7223C202.97 82.7223 211.467 69.518 211.467 51.1468C211.467 33.3497 203.659 20.1454 188.158 20.1454C174.035 20.1454 164.964 32.7756 164.964 51.1468ZM148.316 21.8677V108.557H164.964V21.8677H148.316ZM180.35 35.8757C189.421 35.8757 195.736 41.9612 195.736 51.1468C195.736 60.3324 189.421 66.992 180.35 66.992C171.28 66.992 164.964 60.3324 164.964 51.1468C164.964 41.9612 171.28 35.8757 180.35 35.8757ZM218.136 67.2216V97.0748H233.637V81H273.25V97.0748H288.75V67.2216H279.565V21.8677H231.225V24.5086C231.225 46.7836 229.848 59.7583 225.944 67.2216H218.136ZM242.478 67.2216C244.545 60.9065 246.382 48.3911 246.726 35.6461H262.916V67.2216H242.478ZM299.892 41.1575H315.393C315.393 37.598 318.149 32.7756 326.301 32.7756C332.616 32.7756 336.061 35.6461 336.061 39.7796C336.061 49.6541 298.514 43.7983 298.514 67.4512C298.514 75.0294 302.533 82.7223 315.049 82.7223C325.153 82.7223 335.831 76.8665 336.061 54.1321C336.061 54.0173 336.061 53.9025 336.061 53.7877V81H352.71V44.7169C352.71 31.5126 348.002 20.1454 327.105 20.1454C308.963 20.1454 301.155 28.6421 299.892 41.1575ZM336.061 53.7877V54.1321C335.946 63.2029 332.157 71.9292 322.053 71.9292C316.771 71.9292 315.278 68.7143 315.278 66.303C315.278 57.4619 329.86 59.6435 336.061 53.7877ZM369.882 21.8677V81H386.531V66.6475L422.24 82.7223V66.5327L386.531 49.9986L422.24 34.7275V20.1454L386.531 35.072V21.8677H369.882Z" fill="black"/>
</svg>
