<svg width="399" height="126" viewBox="0 0 399 126" fill="none" xmlns="http://www.w3.org/2000/svg">
<path d="M73.1371 66.228C73.1371 49.329 60.9541 40.552 42.6141 40.552C38.6841 40.552 29.1211 40.945 24.5361 41.6V9.767H60.1681V26.928H69.6001V0.989995H0.825094V9.767H15.1041V85.223H2.52809V94H37.1121C61.2161 94 73.1371 82.865 73.1371 66.228ZM40.7801 49.329C54.7971 49.329 62.9191 52.08 62.9191 66.228C62.9191 80.114 55.0591 85.223 37.1121 85.223H24.5361V50.246C28.5971 49.591 35.9331 49.329 40.7801 49.329ZM99.593 94.786C108.763 94.786 115.575 90.725 118.457 81.555H118.719V82.865C118.719 90.856 122.911 94.786 130.64 94.786C135.749 94.786 139.941 93.083 142.823 86.795L137.321 83.258C136.404 85.616 134.439 87.974 131.688 87.974C128.806 87.974 126.841 85.223 126.841 80.114V58.368C126.841 40.421 117.016 36.884 105.619 36.884C90.03 36.884 83.742 45.923 85.183 55.355L93.567 54.962C92.257 45.923 98.676 44.744 104.44 44.744C112.955 44.744 118.326 47.233 118.326 57.975V62.036H107.715C89.899 62.036 82.825 68.717 82.825 79.197C82.825 87.843 87.672 94.786 99.593 94.786ZM101.558 87.057C94.353 87.057 90.947 83.651 90.947 78.018C90.947 71.992 95.008 68.586 104.44 68.586H118.326C118.195 79.066 112.562 87.057 101.558 87.057ZM140.055 45.399H151.583V118.235H140.055V125.964H174.377V118.235H160.098V84.044H160.36C163.373 89.546 169.399 94.786 178.831 94.786C193.896 94.786 203.721 81.555 203.721 65.835C203.721 49.067 193.372 36.884 180.141 36.884C171.495 36.884 163.504 41.993 160.229 49.329H159.967V37.67H140.055V45.399ZM160.098 65.835C160.098 49.984 170.971 45.137 178.176 45.137C186.953 45.137 194.944 52.473 194.944 66.49C194.944 79.197 188.132 86.533 179.093 86.533C169.268 86.533 160.098 77.756 160.098 66.228V65.835ZM267.855 37.67H217.813V45.399H225.542C225.411 52.604 225.149 60.202 224.625 66.752C223.839 78.149 220.957 85.878 213.752 86.271H209.298V109.589H217.027V94H260.781V109.589H268.51V86.271H259.995V45.399H267.855V37.67ZM232.485 66.752C233.009 59.809 233.271 52.735 233.402 45.399H251.48V86.271H224.625C229.865 81.293 231.699 77.625 232.485 66.752ZM293.151 94.786C302.321 94.786 309.133 90.725 312.015 81.555H312.277V82.865C312.277 90.856 316.469 94.786 324.198 94.786C329.307 94.786 333.499 93.083 336.381 86.795L330.879 83.258C329.962 85.616 327.997 87.974 325.246 87.974C322.364 87.974 320.399 85.223 320.399 80.114V58.368C320.399 40.421 310.574 36.884 299.177 36.884C283.588 36.884 277.3 45.923 278.741 55.355L287.125 54.962C285.815 45.923 292.234 44.744 297.998 44.744C306.513 44.744 311.884 47.233 311.884 57.975V62.036H301.273C283.457 62.036 276.383 68.717 276.383 79.197C276.383 87.843 281.23 94.786 293.151 94.786ZM295.116 87.057C287.911 87.057 284.505 83.651 284.505 78.018C284.505 71.992 288.566 68.586 297.998 68.586H311.884C311.753 79.066 306.12 87.057 295.116 87.057ZM336.363 45.399H347.76V86.271H336.363V94H364.397V86.271H356.275V67.931H366.755L379.462 86.271H369.375V94H398.719V86.271H389.811L372.912 63.084L386.929 45.399H396.492V37.67H371.34V45.399H377.497L366.493 60.202H356.275V45.399H364.79V37.67H336.363V45.399Z" fill="black"/>
</svg>
