<svg width="407" height="65" viewBox="0 0 407 65" fill="none" xmlns="http://www.w3.org/2000/svg">
<path d="M0 0V63.3558H11.1102V8.99836H58.0302V63.3558H69.2323V0H0Z" fill="white"/>
<path d="M109.997 23.3223C122.577 23.3223 128.729 26.536 129.372 35.4425H90.8071C91.6335 26.536 99.3464 23.3223 109.997 23.3223ZM80.2478 40.4926C80.2478 57.7548 91.2662 64.4576 109.997 64.4576C125.148 64.4576 135.707 60.4176 139.288 49.6746H129.004C126.433 55.2756 120.19 57.3875 109.997 57.3875C97.1427 57.3875 90.7153 52.6129 90.7153 42.6045V41.2272H139.564V38.9317C139.564 22.8632 128.637 16.5276 109.997 16.5276C91.2662 16.5276 80.2478 23.5977 80.2478 40.4926Z" fill="white"/>
<path d="M191.395 46.0018V63.3558H201.955V17.5376H191.395V38.5644C187.722 39.1153 181.754 39.4826 176.337 39.4826C162.564 39.4826 157.33 37.1871 157.33 27.3624V17.5376H146.863V27.546C146.863 42.1454 154.208 47.1037 173.123 47.1037C180.01 47.1037 186.161 46.6446 191.395 46.0018Z" fill="white"/>
<path d="M213.138 50.6846C213.138 59.0403 218.555 64.4576 235.083 64.4576C247.387 64.4576 256.569 60.7848 260.242 54.3574V63.3558H270.25V35.1671C270.25 22.2204 261.16 16.5276 242.337 16.5276C225.166 16.5276 216.352 21.5777 214.699 31.4024H224.983C226.452 25.6178 232.512 23.4141 242.337 23.4141C254.09 23.4141 259.874 26.8114 259.874 35.1671V36.5444L233.522 37.0035C218.28 37.3707 213.138 42.5127 213.138 50.6846ZM223.605 50.501V49.7664C223.605 44.8082 227.737 43.0636 236.185 42.7881L259.874 42.4208V43.7063C259.874 53.8983 249.866 57.4793 237.47 57.4793C227.737 57.4793 223.605 55.1838 223.605 50.501Z" fill="white"/>
<path d="M278.45 63.3558H280.745C293.967 63.3558 298.558 57.8466 298.558 37.738V25.0669H326.931V63.3558H337.49V17.5376H288.917V37.3707C288.917 51.9701 286.071 54.8165 279.644 54.8165H278.45V63.3558Z" fill="white"/>
<path d="M351.748 63.3558H389.302C401.331 63.3558 406.932 57.7548 406.932 47.8382C406.932 38.0135 401.331 33.0552 389.302 33.0552H362.216V17.5376H351.748V63.3558ZM396.373 48.8482C396.373 53.7147 393.802 56.2857 387.466 56.2857H362.216V40.1253H387.466C393.802 40.1253 396.373 42.4208 396.373 46.92V48.8482Z" fill="white"/>
</svg>
