<svg width="408" height="66" viewBox="0 0 408 66" fill="none" xmlns="http://www.w3.org/2000/svg">
<path d="M0.651611 0.644043V63.9998H11.7618V9.64241H58.6819V63.9998H69.8839V0.644043H0.651611Z" fill="currentColor"/>
<path d="M110.649 23.9663C123.228 23.9663 129.38 27.18 130.023 36.0866H91.4587C92.2851 27.18 99.998 23.9663 110.649 23.9663ZM80.8994 41.1367C80.8994 58.3988 91.9178 65.1017 110.649 65.1017C125.799 65.1017 136.359 61.0616 139.94 50.3187H129.656C127.085 55.9197 120.841 58.0315 110.649 58.0315C97.7943 58.0315 91.3669 53.2569 91.3669 43.2485V41.8712H140.215V39.5757C140.215 23.5072 129.289 17.1716 110.649 17.1716C91.9178 17.1716 80.8994 24.2418 80.8994 41.1367Z" fill="currentColor"/>
<path d="M192.047 46.6459V63.9998H202.606V18.1817H192.047V39.2084C188.374 39.7594 182.406 40.1266 176.988 40.1266C163.215 40.1266 157.982 37.8311 157.982 28.0064V18.1817H147.514V28.19C147.514 42.7894 154.86 47.7477 173.775 47.7477C180.661 47.7477 186.813 47.2886 192.047 46.6459Z" fill="currentColor"/>
<path d="M213.79 51.3287C213.79 59.6843 219.207 65.1017 235.734 65.1017C248.038 65.1017 257.22 61.4289 260.893 55.0015V63.9998H270.902V35.8111C270.902 22.8645 261.811 17.1716 242.988 17.1716C225.818 17.1716 217.003 22.2217 215.35 32.0465H225.634C227.103 26.2618 233.164 24.0581 242.988 24.0581C254.741 24.0581 260.526 27.4555 260.526 35.8111V37.1884L234.174 37.6475C218.931 38.0148 213.79 43.1567 213.79 51.3287ZM224.257 51.145V50.4105C224.257 45.4522 228.389 43.7076 236.836 43.4322L260.526 43.0649V44.3504C260.526 54.5424 250.518 58.1234 238.122 58.1234C228.389 58.1234 224.257 55.8279 224.257 51.145Z" fill="currentColor"/>
<path d="M279.102 63.9998H281.397C294.619 63.9998 299.21 58.4907 299.21 38.3821V25.7109H327.582V63.9998H338.142V18.1817H289.569V38.0148C289.569 52.6142 286.723 55.4606 280.295 55.4606H279.102V63.9998Z" fill="currentColor"/>
<path d="M352.4 63.9998H389.954C401.982 63.9998 407.584 58.3988 407.584 48.4823C407.584 38.6575 401.982 33.6992 389.954 33.6992H362.867V18.1817H352.4V63.9998ZM397.024 49.4923C397.024 54.3587 394.453 56.9297 388.118 56.9297H362.867V40.7694H388.118C394.453 40.7694 397.024 43.0649 397.024 47.5641V49.4923Z" fill="currentColor"/>
</svg>
