<svg width="44" height="67" viewBox="0 0 44 67" fill="none" xmlns="http://www.w3.org/2000/svg">
<path fill-rule="evenodd" clip-rule="evenodd" d="M27.437 32.9612L31.0693 31.223L32.851 25.3597L34.7531 25.742L34.037 32.5093L28.6974 35.7886C26.3389 38.4948 24.1444 41.3428 22.126 44.3171C20.2494 41.4882 18.2241 38.7631 16.0589 36.1536L9.81979 31.6923L9.72812 25.6493L11.3667 25.5566L12.5698 30.1917L16.9583 33.1871L18.5682 27.5208C14.1339 16.8021 6.5026 6.08354 0 2.74049L1.06563 0.695262C8.65677 4.2353 16.5802 15.1799 21.1177 25.6088H23.6214C27.3453 15.9794 34.037 5.13335 42.6823 0L44 1.79609C37.6406 5.50995 30.1411 16.8659 26.188 27.8742L27.437 32.9612ZM6.11302 43.8594L0.630207 42.4921L0.922396 40.667L5.45417 41.2464L11.888 35.9566C19.6339 42.718 24.5839 51.7216 27.2422 59.6476C26.1373 61.7187 24.5005 63.4501 22.5042 64.6593C17.1187 61.8203 15.0562 55.7889 14.6094 49.4968L11.338 48.8189L12.4151 61.0903L7.22448 67L5.9125 66.0035L9.47031 60.5341L8.2901 46.0842L14.5177 46.1653C14.5177 45.1572 14.575 44.1491 14.6495 43.1641L11.2406 40.0413L6.11302 43.8594ZM32.6104 36.0145L38.0245 40.696L42.4474 40.2846L42.7338 41.6346L37.8354 43.1989L32.6047 40.0413L29.7859 42.7354C29.8719 43.7609 29.9234 44.8038 29.9464 45.8525L36.5979 45.4643L35.0568 60.4182L38.0474 66.1135L36.5521 66.8378L32.2208 60.6268L33.3667 48.7957L29.8833 49.2593C29.7628 51.7079 29.3295 54.1306 28.5943 56.4668C27.1895 52.9718 25.4773 49.6113 23.4781 46.4261C25.9474 42.5442 28.8807 38.1872 32.6104 36.0145Z" fill="black"/>
</svg>
