<svg width="162" height="112" viewBox="0 0 162 112" fill="none" xmlns="http://www.w3.org/2000/svg">
<path d="M8.40455 3.40799V94H11.8315V3.40799H19.5795V0.129992H0.656547V3.40799H8.40455ZM40.1869 90.871C38.1009 90.871 37.6539 89.977 37.6539 87.295V35.145C37.6539 23.672 35.1209 20.096 29.7569 20.096C23.4989 20.096 20.6679 25.46 20.9659 44.979L24.2439 45.426C23.9459 25.311 26.4789 23.225 29.7569 23.225C32.5879 23.225 34.3759 25.162 34.3759 35.89V43.936C34.3759 47.363 33.7799 48.406 31.6939 50.045L28.2669 52.578C22.4559 56.899 20.6679 62.114 20.6679 74.779C20.6679 91.318 23.2009 94.894 28.2669 94.894C30.7999 94.894 33.1839 93.553 34.6739 88.636H35.1209C35.1209 91.616 35.7169 94 39.8889 94H42.1239V90.871H40.1869ZM28.5649 91.765C25.7339 91.765 24.0949 89.679 24.0949 74.779C24.0949 62.71 25.5849 58.389 30.0549 55.111L32.2899 53.472C33.1839 52.876 33.9289 52.28 34.3759 51.535V73.14C34.3759 89.828 31.0979 91.765 28.5649 91.765ZM55.0753 20.096C52.3933 20.096 50.1583 21.288 48.9663 26.503H48.5193V20.99H46.2843V111.135H49.5623V107.857C49.5623 100.407 49.4133 96.235 49.1153 89.679C50.3073 93.851 52.2443 94.894 54.6283 94.894C59.5453 94.894 62.9723 91.318 62.9723 74.63V40.36C62.9723 23.672 59.9923 20.096 55.0753 20.096ZM59.6943 73.14C59.6943 89.828 57.6083 91.765 54.6283 91.765C51.7973 91.765 49.5623 89.828 49.5623 73.14V41.85C49.5623 25.162 51.7973 23.225 54.7773 23.225C57.7573 23.225 59.6943 25.162 59.6943 41.85V73.14ZM90.0961 90.871C88.0101 90.871 87.5631 89.977 87.5631 87.295V35.145C87.5631 23.672 85.0301 20.096 79.6661 20.096C73.4081 20.096 70.5771 25.46 70.8751 44.979L74.1531 45.426C73.8551 25.311 76.3881 23.225 79.6661 23.225C82.4971 23.225 84.2851 25.162 84.2851 35.89V43.936C84.2851 47.363 83.6891 48.406 81.6031 50.045L78.1761 52.578C72.3651 56.899 70.5771 62.114 70.5771 74.779C70.5771 91.318 73.1101 94.894 78.1761 94.894C80.7091 94.894 83.0931 93.553 84.5831 88.636H85.0301C85.0301 91.616 85.6261 94 89.7981 94H92.0331V90.871H90.0961ZM78.4741 91.765C75.6431 91.765 74.0041 89.679 74.0041 74.779C74.0041 62.71 75.4941 58.389 79.9641 55.111L82.1991 53.472C83.0931 52.876 83.8381 52.28 84.2851 51.535V73.14C84.2851 89.828 81.0071 91.765 78.4741 91.765ZM114.371 90.871C112.285 90.871 111.838 89.977 111.54 84.315L110.646 68.968C110.199 61.667 109.305 58.538 105.729 57.048V56.601C109.454 55.26 110.348 51.982 110.646 44.681L111.242 30.973C111.54 24.715 111.987 24.119 113.775 24.119H114.818V20.99H113.626C110.05 20.99 108.262 22.182 107.964 29.632L107.368 44.234C107.07 53.472 106.027 55.26 102.153 55.26H99.4715V20.99H96.1935V94H99.4715V58.389H102.153C106.027 58.389 106.921 60.177 107.368 69.415L108.262 85.656C108.709 92.659 110.05 94 113.626 94H115.414V90.871H114.371ZM138.841 90.871C136.755 90.871 136.308 89.977 136.308 87.295V35.145C136.308 23.672 133.775 20.096 128.411 20.096C122.153 20.096 119.322 25.46 119.62 44.979L122.898 45.426C122.6 25.311 125.133 23.225 128.411 23.225C131.242 23.225 133.03 25.162 133.03 35.89V43.936C133.03 47.363 132.434 48.406 130.348 50.045L126.921 52.578C121.11 56.899 119.322 62.114 119.322 74.779C119.322 91.318 121.855 94.894 126.921 94.894C129.454 94.894 131.838 93.553 133.328 88.636H133.775C133.775 91.616 134.371 94 138.543 94H140.778V90.871H138.841ZM127.219 91.765C124.388 91.765 122.749 89.679 122.749 74.779C122.749 62.71 124.239 58.389 128.709 55.111L130.944 53.472C131.838 52.876 132.583 52.28 133.03 51.535V73.14C133.03 89.828 129.752 91.765 127.219 91.765ZM158.498 55.26H148.217V20.99H144.939V94H148.217V58.389H158.498V94H161.776V20.99H158.498V55.26Z" fill="black"/>
</svg>
