<svg width="357" height="88" viewBox="0 0 357 88" fill="none" xmlns="http://www.w3.org/2000/svg">
<path d="M52.7986 7.90412H31.1307V68H22.2876V7.90412H0.666073V0.588906H52.7986V7.90412ZM87.106 68C86.6121 67.0123 86.2109 65.2529 85.9022 62.7219C81.9205 66.858 77.1672 68.926 71.6422 68.926C66.7036 68.926 62.6448 67.537 59.4656 64.7591C56.3173 61.9503 54.7431 58.4007 54.7431 54.1104C54.7431 48.894 56.7185 44.8506 60.6694 41.9801C64.6511 39.0787 70.2378 37.628 77.4295 37.628H85.7633V33.6926C85.7633 30.6986 84.8682 28.3219 83.078 26.5625C81.2878 24.7723 78.6487 23.8772 75.1609 23.8772C72.1052 23.8772 69.5433 24.6489 67.4753 26.1922C65.4073 27.7355 64.3733 29.6028 64.3733 31.7943H55.7617C55.7617 29.2942 56.6414 26.8866 58.4007 24.5717C60.1909 22.2259 62.5985 20.3739 65.6233 19.0158C68.6791 17.6577 72.028 16.9787 75.6702 16.9787C81.4421 16.9787 85.9639 18.4294 89.2357 21.3308C92.5075 24.2013 94.2051 28.1676 94.3286 33.2296V56.2864C94.3286 60.8854 94.9151 64.543 96.088 67.2592V68H87.106ZM72.8922 61.4719C75.5776 61.4719 78.124 60.7774 80.5316 59.3884C82.9391 57.9995 84.683 56.1938 85.7633 53.9715V43.6931H79.05C68.5556 43.6931 63.3084 46.7643 63.3084 52.9066C63.3084 55.5919 64.2035 57.6908 65.9937 59.2032C67.7839 60.7157 70.0835 61.4719 72.8922 61.4719ZM150.072 43.5079C150.072 51.1318 148.328 57.2741 144.841 61.9349C141.353 66.5956 136.63 68.926 130.673 68.926C124.593 68.926 119.808 66.9969 116.321 63.1386V87.2603H107.755V17.9047H115.58L115.996 23.4605C119.484 19.1393 124.33 16.9787 130.534 16.9787C136.553 16.9787 141.306 19.2473 144.794 23.7846C148.313 28.3219 150.072 34.634 150.072 42.7208V43.5079ZM141.507 42.5356C141.507 36.8872 140.303 32.4271 137.896 29.1553C135.488 25.8835 132.186 24.2476 127.988 24.2476C122.802 24.2476 118.913 26.5471 116.321 31.1461V55.0826C118.882 59.6508 122.802 61.9349 128.08 61.9349C132.186 61.9349 135.442 60.3144 137.849 57.0735C140.288 53.8017 141.507 48.9557 141.507 42.5356ZM191.927 68C191.433 67.0123 191.031 65.2529 190.723 62.7219C186.741 66.858 181.988 68.926 176.463 68.926C171.524 68.926 167.465 67.537 164.286 64.7591C161.138 61.9503 159.564 58.4007 159.564 54.1104C159.564 48.894 161.539 44.8506 165.49 41.9801C169.472 39.0787 175.058 37.628 182.25 37.628H190.584V33.6926C190.584 30.6986 189.689 28.3219 187.899 26.5625C186.108 24.7723 183.469 23.8772 179.981 23.8772C176.926 23.8772 174.364 24.6489 172.296 26.1922C170.228 27.7355 169.194 29.6028 169.194 31.7943H160.582C160.582 29.2942 161.462 26.8866 163.221 24.5717C165.011 22.2259 167.419 20.3739 170.444 19.0158C173.5 17.6577 176.849 16.9787 180.491 16.9787C186.263 16.9787 190.784 18.4294 194.056 21.3308C197.328 24.2013 199.026 28.1676 199.149 33.2296V56.2864C199.149 60.8854 199.736 64.543 200.909 67.2592V68H191.927ZM177.713 61.4719C180.398 61.4719 182.945 60.7774 185.352 59.3884C187.76 57.9995 189.504 56.1938 190.584 53.9715V43.6931H183.871C173.376 43.6931 168.129 46.7643 168.129 52.9066C168.129 55.5919 169.024 57.6908 170.814 59.2032C172.604 60.7157 174.904 61.4719 177.713 61.4719ZM228.179 46.6562H221.928V68H213.317V17.9047H221.928V39.1095H227.53L244.383 17.9047H254.754L234.938 41.9801L256.421 68H245.541L228.179 46.6562ZM294.71 68C294.216 67.0123 293.815 65.2529 293.506 62.7219C289.524 66.858 284.771 68.926 279.246 68.926C274.308 68.926 270.249 67.537 267.07 64.7591C263.921 61.9503 262.347 58.4007 262.347 54.1104C262.347 48.894 264.322 44.8506 268.273 41.9801C272.255 39.0787 277.842 37.628 285.033 37.628H293.367V33.6926C293.367 30.6986 292.472 28.3219 290.682 26.5625C288.892 24.7723 286.253 23.8772 282.765 23.8772C279.709 23.8772 277.147 24.6489 275.079 26.1922C273.011 27.7355 271.977 29.6028 271.977 31.7943H263.366C263.366 29.2942 264.245 26.8866 266.005 24.5717C267.795 22.2259 270.202 20.3739 273.227 19.0158C276.283 17.6577 279.632 16.9787 283.274 16.9787C289.046 16.9787 293.568 18.4294 296.84 21.3308C300.111 24.2013 301.809 28.1676 301.933 33.2296V56.2864C301.933 60.8854 302.519 64.543 303.692 67.2592V68H294.71ZM280.496 61.4719C283.182 61.4719 285.728 60.7774 288.135 59.3884C290.543 57.9995 292.287 56.1938 293.367 53.9715V43.6931H286.654C276.16 43.6931 270.912 46.7643 270.912 52.9066C270.912 55.5919 271.807 57.6908 273.598 59.2032C275.388 60.7157 277.687 61.4719 280.496 61.4719ZM356.287 68H347.722V46.6099H324.712V68H316.1V17.9047H324.712V39.6188H347.722V17.9047H356.287V68Z" fill="black"/>
</svg>
