<svg width="471" height="109" viewBox="0 0 471 109" fill="none" xmlns="http://www.w3.org/2000/svg">
<path d="M0.555647 15.5526H25.2419V81H42.4649V15.5526H67.1512V0.625995H0.555647V15.5526ZM65.0576 41.1575H80.5583C80.5583 37.598 83.314 32.7756 91.4662 32.7756C97.7813 32.7756 101.226 35.6461 101.226 39.7796C101.226 49.6541 63.6797 43.7983 63.6797 67.4512C63.6797 75.0294 67.6984 82.7223 80.2138 82.7223C90.318 82.7223 100.996 76.8665 101.226 54.1321C101.226 54.0173 101.226 53.9025 101.226 53.7877V81H117.875V44.7169C117.875 31.5126 113.167 20.1454 92.2699 20.1454C74.1284 20.1454 66.3206 28.6421 65.0576 41.1575ZM101.226 53.7877V54.1321C101.111 63.2029 97.322 71.9292 87.2178 71.9292C81.9361 71.9292 80.4435 68.7143 80.4435 66.303C80.4435 57.4619 95.0256 59.6435 101.226 53.7877ZM151.696 51.1468C151.696 69.518 160.767 82.7223 174.89 82.7223C189.702 82.7223 198.199 69.518 198.199 51.1468C198.199 33.3497 190.391 20.1454 174.89 20.1454C160.767 20.1454 151.696 32.7756 151.696 51.1468ZM135.048 21.8677V108.557H151.696V21.8677H135.048ZM167.082 35.8757C176.153 35.8757 182.468 41.9612 182.468 51.1468C182.468 60.3324 176.153 66.992 167.082 66.992C158.012 66.992 151.696 60.3324 151.696 51.1468C151.696 41.9612 158.012 35.8757 167.082 35.8757ZM211.386 41.1575H226.886C226.886 37.598 229.642 32.7756 237.794 32.7756C244.109 32.7756 247.554 35.6461 247.554 39.7796C247.554 49.6541 210.008 43.7983 210.008 67.4512C210.008 75.0294 214.027 82.7223 226.542 82.7223C236.646 82.7223 247.324 76.8665 247.554 54.1321C247.554 54.0173 247.554 53.9025 247.554 53.7877V81H264.203V44.7169C264.203 31.5126 259.495 20.1454 238.598 20.1454C220.457 20.1454 212.649 28.6421 211.386 41.1575ZM247.554 53.7877V54.1321C247.439 63.2029 243.65 71.9292 233.546 71.9292C228.264 71.9292 226.772 68.7143 226.772 66.303C226.772 57.4619 241.354 59.6435 247.554 53.7877ZM281.376 21.8677V81H298.025V66.6475L333.734 82.7223V66.5327L298.025 49.9986L333.734 34.7275V20.1454L298.025 35.072V21.8677H281.376ZM347.174 41.1575H362.675C362.675 37.598 365.43 32.7756 373.583 32.7756C379.898 32.7756 383.342 35.6461 383.342 39.7796C383.342 49.6541 345.796 43.7983 345.796 67.4512C345.796 75.0294 349.815 82.7223 362.33 82.7223C372.434 82.7223 383.113 76.8665 383.342 54.1321C383.342 54.0173 383.342 53.9025 383.342 53.7877V81H399.991V44.7169C399.991 31.5126 395.283 20.1454 374.386 20.1454C356.245 20.1454 348.437 28.6421 347.174 41.1575ZM383.342 53.7877V54.1321C383.227 63.2029 379.438 71.9292 369.334 71.9292C364.052 71.9292 362.56 68.7143 362.56 66.303C362.56 57.4619 377.142 59.6435 383.342 53.7877ZM417.164 21.8677V81H433.813V57.8064H453.906V81H470.555V21.8677H453.906V44.028H433.813V21.8677H417.164Z" fill="black"/>
</svg>
