<svg width="355" height="91" viewBox="0 0 355 91" fill="none" xmlns="http://www.w3.org/2000/svg">
<path d="M58.3603 0.625996H9.62282L0.899378 6.59966H24.3199V67H34.0864V6.59966H49.6369L58.3603 0.625996ZM72.57 18.2625C66.4067 18.2625 59.7693 21.0123 55.0283 27.1756C58.9159 24.8051 62.7087 23.6673 66.217 23.6673C73.4233 23.6673 79.2074 28.5031 80.44 37.3213L69.7254 37.4162L61.8553 42.9157H80.5348L80.7245 42.8209V67H89.8272V35.6146C89.8272 24.331 81.6727 18.2625 72.57 18.2625ZM59.7693 49.3635C59.7693 46.993 60.5278 44.8121 61.8553 42.9157C56.2609 44.5277 52.1837 49.1738 52.1837 54.6734C52.1837 61.4056 58.347 67 66.0274 67C71.0528 67 77.1213 64.8191 80.7245 59.4144C78.4488 60.9315 75.8887 61.5953 73.3285 61.5953C66.4067 61.5953 59.7693 56.7594 59.7693 49.3635ZM130.183 18.3573C124.588 18.3573 118.71 20.5382 114.063 26.1326C117.003 24.4258 120.132 24.0465 122.976 24.0465C134.544 24.0465 141.466 34.5716 141.466 45.7603C141.466 51.2599 140.139 57.1387 136.156 61.4056C143.458 57.8025 149.242 49.2687 149.242 40.3556C149.242 27.1756 140.518 18.3573 130.183 18.3573ZM114.063 61.4056V19.59H104.961V90.705H114.063V67L128.286 66.9052L136.156 61.4056H114.063ZM177.668 18.2625C171.505 18.2625 164.868 21.0123 160.127 27.1756C164.014 24.8051 167.807 23.6673 171.315 23.6673C178.522 23.6673 184.306 28.5031 185.538 37.3213L174.824 37.4162L166.954 42.9157H185.633L185.823 42.8209V67H194.926V35.6146C194.926 24.331 186.771 18.2625 177.668 18.2625ZM164.868 49.3635C164.868 46.993 165.626 44.8121 166.954 42.9157C161.359 44.5277 157.282 49.1738 157.282 54.6734C157.282 61.4056 163.445 67 171.126 67C176.151 67 182.22 64.8191 185.823 59.4144C183.547 60.9315 180.987 61.5953 178.427 61.5953C171.505 61.5953 164.868 56.7594 164.868 49.3635ZM210.059 67.0948H219.162V19.59H210.059V67.0948ZM230.54 39.8815L251.4 19.59H243.151L220.3 42.8209L244.763 68.7068L252.633 63.1124L230.54 39.8815ZM279.155 18.2625C272.992 18.2625 266.355 21.0123 261.614 27.1756C265.501 24.8051 269.294 23.6673 272.802 23.6673C280.009 23.6673 285.793 28.5031 287.025 37.3213L276.311 37.4162L268.441 42.9157H287.12L287.31 42.8209V67H296.413V35.6146C296.413 24.331 288.258 18.2625 279.155 18.2625ZM266.355 49.3635C266.355 46.993 267.113 44.8121 268.441 42.9157C262.846 44.5277 258.769 49.1738 258.769 54.6734C258.769 61.4056 264.932 67 272.613 67C277.638 67 283.707 64.8191 287.31 59.4144C285.034 60.9315 282.474 61.5953 279.914 61.5953C272.992 61.5953 266.355 56.7594 266.355 49.3635ZM311.546 67H320.649V19.59H311.546V67ZM345.871 19.59V38.3644H328.614L320.744 43.8639L345.871 43.9587V67H354.974V19.59H345.871Z" fill="black"/>
</svg>
