<svg width="411" height="95" viewBox="0 0 411 95" fill="none" xmlns="http://www.w3.org/2000/svg">
<path d="M33.9874 72V12.3688H54.8174V0.524282H0.0874435V12.3688H20.8154V72H33.9874ZM105.266 72V20.9459H94.851L93.6257 25.745C89.6435 22.4775 84.0275 20.0269 77.5947 20.0269C61.0532 20.0269 53.293 29.9314 53.293 46.8814C53.293 65.363 60.1342 72.919 75.3483 72.919C81.5769 72.919 87.9076 70.8768 93.5236 66.3841L94.6468 72H105.266ZM93.2173 57.5006C89.6435 60.3597 84.5381 62.7082 78.7179 62.7082C69.6303 62.7082 66.0565 58.3175 66.0565 46.5751C66.0565 35.4453 70.2429 30.2378 79.2284 30.2378C86.1718 30.2378 89.7456 32.8926 93.2173 35.139V57.5006ZM131.216 94.4638V67.8136C135.3 70.7747 140.712 72.919 146.736 72.919C163.38 72.919 171.14 62.9124 171.14 46.0645C171.14 27.4808 164.299 20.0269 149.085 20.0269C143.265 20.0269 136.628 22.1712 130.807 26.4598L129.786 20.9459H119.167V94.4638H131.216ZM131.216 35.3432C134.79 32.8926 139.895 30.2378 145.715 30.2378C154.803 30.2378 158.377 34.7305 158.377 46.473C158.377 57.5006 154.19 62.7082 145.205 62.7082C137.649 62.7082 133.769 60.0533 131.216 58.2154V35.3432ZM231.705 72V20.9459H221.29L220.064 25.745C216.082 22.4775 210.466 20.0269 204.033 20.0269C187.492 20.0269 179.732 29.9314 179.732 46.8814C179.732 65.363 186.573 72.919 201.787 72.919C208.016 72.919 214.346 70.8768 219.962 66.3841L221.085 72H231.705ZM219.656 57.5006C216.082 60.3597 210.977 62.7082 205.157 62.7082C196.069 62.7082 192.495 58.3175 192.495 46.5751C192.495 35.4453 196.682 30.2378 205.667 30.2378C212.61 30.2378 216.184 32.8926 219.656 35.139V57.5006ZM294.618 72L272.869 45.1456L293.086 20.9459H278.689L263.27 40.5507H257.654V20.9459H245.606V72H257.654V50.6594H262.862L280.016 72H294.618ZM349.269 72V20.9459H338.854L337.628 25.745C333.646 22.4775 328.03 20.0269 321.597 20.0269C305.056 20.0269 297.296 29.9314 297.296 46.8814C297.296 65.363 304.137 72.919 319.351 72.919C325.58 72.919 331.91 70.8768 337.526 66.3841L338.649 72H349.269ZM337.22 57.5006C333.646 60.3597 328.541 62.7082 322.72 62.7082C313.633 62.7082 310.059 58.3175 310.059 46.5751C310.059 35.4453 314.246 30.2378 323.231 30.2378C330.174 30.2378 333.748 32.8926 337.22 35.139V57.5006ZM410.854 72V20.9459H398.805V40.7549H375.218V20.9459H363.17V72H375.218V50.9657H398.805V72H410.854Z" fill="black"/>
</svg>
