<svg width="54" height="55" viewBox="0 0 54 55" fill="none" xmlns="http://www.w3.org/2000/svg">
<path fill-rule="evenodd" clip-rule="evenodd" d="M16.2557 0.809067C19.1052 0.677643 20.0137 0.648438 27.2722 0.648438C34.5308 0.648438 35.4393 0.680077 38.2863 0.809067C41.1334 0.938057 43.0768 1.39317 44.7772 2.05273C46.5578 2.72688 48.1733 3.7807 49.5093 5.14362C50.8697 6.47976 51.9191 8.09579 52.5896 9.88218C53.2504 11.5858 53.7022 13.5328 53.8334 16.3804C53.9645 19.24 53.9937 20.1503 53.9937 27.42C53.9937 34.6921 53.9621 35.6023 53.8334 38.4571C53.7046 41.3046 53.2504 43.2517 52.5896 44.9553C51.9191 46.7419 50.868 48.3606 49.5093 49.6987C48.1733 51.0616 46.5578 52.113 44.7772 52.7847C43.0768 53.4467 41.1334 53.8994 38.2912 54.0308C35.4393 54.1623 34.5308 54.1915 27.2722 54.1915C20.0137 54.1915 19.1052 54.1598 16.2557 54.0308C13.4135 53.9018 11.4701 53.4467 9.76968 52.7847C7.98644 52.1129 6.37076 51.0598 5.03513 49.6987C3.67569 48.3618 2.62367 46.7438 1.95244 44.9577C1.29412 43.2541 0.842288 41.3071 0.71111 38.4595C0.579932 35.5999 0.550781 34.6896 0.550781 27.42C0.550781 20.1478 0.582361 19.2376 0.71111 16.3852C0.839859 13.5328 1.29412 11.5858 1.95244 9.88218C2.62466 8.09598 3.67748 6.47809 5.03756 5.14118C6.3713 3.77949 7.98535 2.72553 9.76725 2.05273C11.4677 1.39317 13.4111 0.94049 16.2533 0.809067H16.2557ZM38.0701 5.62794C35.2522 5.49895 34.4069 5.47218 27.2722 5.47218C20.1376 5.47218 19.2922 5.49895 16.4743 5.62794C13.8678 5.74719 12.454 6.18284 11.5114 6.55034C10.2652 7.03709 9.37372 7.6139 8.43847 8.5509C7.55191 9.41502 6.86963 10.467 6.44165 11.6296C6.07483 12.5739 5.64 13.9904 5.52097 16.6018C5.39222 19.425 5.3655 20.272 5.3655 27.42C5.3655 34.5679 5.39222 35.4149 5.52097 38.2381C5.64 40.8495 6.07483 42.266 6.44165 43.2103C6.86919 44.3712 7.5518 45.425 8.43847 46.289C9.30084 47.1773 10.3527 47.8612 11.5114 48.2896C12.454 48.6571 13.8678 49.0927 16.4743 49.212C19.2922 49.341 20.1352 49.3677 27.2722 49.3677C34.4093 49.3677 35.2522 49.341 38.0701 49.212C40.6767 49.0927 42.0905 48.6571 43.033 48.2896C44.2792 47.8028 45.1708 47.226 46.106 46.289C46.9927 45.425 47.6753 44.3712 48.1028 43.2103C48.4696 42.266 48.9045 40.8495 49.0235 38.2381C49.1523 35.4149 49.179 34.5679 49.179 27.42C49.179 20.272 49.1523 19.425 49.0235 16.6018C48.9045 13.9904 48.4696 12.5739 48.1028 11.6296C47.617 10.3811 47.0413 9.48791 46.106 8.5509C45.2435 7.66275 44.1935 6.9792 43.033 6.55034C42.0905 6.18284 40.6767 5.74719 38.0701 5.62794ZM23.8592 35.6729C25.7653 36.4678 27.8878 36.5751 29.864 35.9764C31.8403 35.3777 33.5479 34.1102 34.695 32.3903C35.8421 30.6704 36.3577 28.6049 36.1536 26.5465C35.9495 24.4881 35.0385 22.5645 33.5761 21.1043C32.6438 20.1709 31.5166 19.4562 30.2756 19.0116C29.0345 18.5671 27.7105 18.4037 26.3989 18.5333C25.0873 18.6629 23.8207 19.0823 22.6902 19.7612C21.5598 20.4401 20.5937 21.3617 19.8614 22.4596C19.1291 23.5574 18.649 24.8043 18.4554 26.1105C18.2619 27.4166 18.3598 28.7495 18.7421 30.0132C19.1244 31.2769 19.7817 32.4399 20.6665 33.4185C21.5513 34.3972 22.6417 35.1671 23.8592 35.6729ZM17.5602 17.6897C18.8356 16.4119 20.3497 15.3983 22.0161 14.7068C23.6825 14.0153 25.4685 13.6593 27.2722 13.6593C29.0759 13.6593 30.862 14.0153 32.5284 14.7068C34.1947 15.3983 35.7089 16.4119 36.9843 17.6897C38.2597 18.9675 39.2714 20.4845 39.9616 22.154C40.6519 23.8235 41.0071 25.6129 41.0071 27.42C41.0071 29.227 40.6519 31.0164 39.9616 32.6859C39.2714 34.3554 38.2597 35.8724 36.9843 37.1502C34.4085 39.7308 30.915 41.1806 27.2722 41.1806C23.6295 41.1806 20.136 39.7308 17.5602 37.1502C14.9844 34.5696 13.5373 31.0695 13.5373 27.42C13.5373 23.7704 14.9844 20.2703 17.5602 17.6897ZM44.0533 15.7086C44.3694 15.4099 44.6224 15.0507 44.7974 14.6523C44.9724 14.2539 45.0658 13.8243 45.0722 13.3891C45.0785 12.9538 44.9976 12.5217 44.8343 12.1184C44.6709 11.715 44.4285 11.3486 44.1212 11.0407C43.814 10.7329 43.4483 10.49 43.0456 10.3264C42.643 10.1627 42.2117 10.0817 41.7773 10.088C41.3429 10.0944 40.9141 10.188 40.5164 10.3633C40.1187 10.5387 39.7602 10.7922 39.4621 11.1088C38.8822 11.7246 38.5648 12.5426 38.5771 13.3891C38.5894 14.2356 38.9305 15.0439 39.528 15.6425C40.1255 16.2412 40.9324 16.5829 41.7773 16.5953C42.6222 16.6076 43.4386 16.2895 44.0533 15.7086Z" fill="white"/>
</svg>
