<svg width="67" height="55" viewBox="0 0 67 55" fill="none" xmlns="http://www.w3.org/2000/svg">
<path d="M66.0942 6.99962C63.6766 8.07288 61.0795 8.79807 58.3493 9.12585C61.1664 7.43703 63.274 4.77902 64.2788 1.64779C61.6321 3.22285 58.7353 4.33152 55.7145 4.9256C53.6831 2.75257 50.9925 1.31225 48.0603 0.82826C45.1281 0.344269 42.1185 0.843685 39.4986 2.24897C36.8788 3.65426 34.7953 5.88679 33.5717 8.59996C32.3481 11.3131 32.0528 14.3551 32.7316 17.2537C27.3686 16.9839 22.1222 15.5873 17.3328 13.1547C12.5434 10.722 8.31802 7.30756 4.93098 3.13296C3.77286 5.13446 3.10695 7.45503 3.10695 9.92645C3.10565 12.1513 3.65251 14.342 4.69901 16.3044C5.7455 18.2667 7.25927 19.9398 9.106 21.1754C6.96428 21.1072 4.86981 20.5274 2.99692 19.4843V19.6584C2.99671 22.7788 4.07407 25.8032 6.0462 28.2184C8.01834 30.6336 10.7638 32.2908 13.8167 32.9089C11.8299 33.4476 9.74684 33.5269 7.72495 33.1409C8.58629 35.8259 10.2641 38.1737 12.5235 39.8559C14.7829 41.538 17.5108 42.4701 20.3253 42.5218C15.5476 46.2795 9.6471 48.3177 3.57309 48.3088C2.49714 48.3091 1.4221 48.2461 0.353516 48.1202C6.51899 52.0918 13.696 54.1996 21.026 54.1914C45.8387 54.1914 59.4031 33.6021 59.4031 15.7453C59.4031 15.1651 59.3887 14.5792 59.3626 13.9991C62.0011 12.0874 64.2786 9.72019 66.0884 7.00832L66.0942 6.99962Z" fill="white"/>
</svg>
