<svg width="356" height="315" viewBox="0 0 356 315" fill="none" xmlns="http://www.w3.org/2000/svg">
<g clip-path="url(#clip0)">
<rect x="0.00012207" y="33.623" width="327.778" height="283.326" transform="rotate(-5.88794 0.00012207 33.623)" fill="url(#paint0_linear)"/>
<path d="M106.14 178.992L49.1595 184.869L41.3984 109.612L59.6751 107.727L65.7731 166.857L95.8758 163.753L89.7779 104.623L108.055 102.738L114.152 161.868L122.753 160.981L126.19 194.309L107.914 196.194L106.14 178.992ZM174.705 142.911C180.498 144.994 183.719 149.189 184.37 155.496C184.835 160.012 183.424 163.887 180.136 167.124C176.912 170.281 172.398 172.159 166.592 172.758L132.942 176.228L127.176 120.323L158.247 117.119C163.98 116.528 168.791 117.517 172.677 120.086C176.557 122.583 178.729 126.089 179.195 130.605C179.712 135.622 178.216 139.724 174.705 142.911ZM158.613 131.206L144.744 132.637L145.465 139.625L159.333 138.194C160.409 138.084 161.235 137.672 161.814 136.961C162.464 136.242 162.734 135.345 162.623 134.27C162.512 133.195 162.069 132.407 161.293 131.908C160.581 131.329 159.688 131.095 158.613 131.206ZM147.627 160.589L164.076 158.893C165.151 158.782 165.978 158.371 166.556 157.659C167.206 156.94 167.472 156.007 167.354 154.861C167.251 153.857 166.811 153.106 166.035 152.606C165.323 152.028 164.43 151.794 163.355 151.905L146.906 153.601L147.627 160.589ZM214.43 110.239C224.106 109.241 232.173 111.958 238.631 118.391C245.089 124.824 247.874 132.866 246.986 142.519L206.455 146.699C207.717 149.104 209.537 150.945 211.914 152.221C214.355 153.418 217.045 153.865 219.984 153.562C225.216 153.022 228.908 150.541 231.06 146.118L245.701 151.127C243.5 155.772 240.278 159.654 236.037 162.772C231.787 165.818 226.76 167.64 220.954 168.239C212.425 169.118 204.973 167.098 198.599 162.178C192.288 157.179 188.708 150.558 187.858 142.315C187.008 134.073 189.129 126.9 194.223 120.798C199.308 114.623 206.044 111.103 214.43 110.239ZM215.938 124.86C213.429 125.119 211.245 126.068 209.386 127.709C207.52 129.277 206.171 131.3 205.34 133.776L228.239 131.414C225.629 126.468 221.528 124.283 215.938 124.86ZM287.91 160.247L270.709 162.021L266.496 121.167L248.971 122.974L247.419 107.923L299.669 102.535L301.221 117.586L283.697 119.393L287.91 160.247Z" fill="black"/>
<path d="M106.14 178.992L49.1595 184.869L41.3984 109.612L59.6751 107.727L65.7731 166.857L95.8758 163.753L89.7779 104.623L108.055 102.738L114.152 161.868L122.753 160.981L126.19 194.309L107.914 196.194L106.14 178.992ZM174.705 142.911C180.498 144.994 183.719 149.189 184.37 155.496C184.835 160.012 183.424 163.887 180.136 167.124C176.912 170.281 172.398 172.159 166.592 172.758L132.942 176.228L127.176 120.323L158.247 117.119C163.98 116.528 168.791 117.517 172.677 120.086C176.557 122.583 178.729 126.089 179.195 130.605C179.712 135.622 178.216 139.724 174.705 142.911ZM158.613 131.206L144.744 132.637L145.465 139.625L159.333 138.194C160.409 138.084 161.235 137.672 161.814 136.961C162.464 136.242 162.734 135.345 162.623 134.27C162.512 133.195 162.069 132.407 161.293 131.908C160.581 131.329 159.688 131.095 158.613 131.206ZM147.627 160.589L164.076 158.893C165.151 158.782 165.978 158.371 166.556 157.659C167.206 156.94 167.472 156.007 167.354 154.861C167.251 153.857 166.811 153.106 166.035 152.606C165.323 152.028 164.43 151.794 163.355 151.905L146.906 153.601L147.627 160.589ZM214.43 110.239C224.106 109.241 232.173 111.958 238.631 118.391C245.089 124.824 247.874 132.866 246.986 142.519L206.455 146.699C207.717 149.104 209.537 150.945 211.914 152.221C214.355 153.418 217.045 153.865 219.984 153.562C225.216 153.022 228.908 150.541 231.06 146.118L245.701 151.127C243.5 155.772 240.278 159.654 236.037 162.772C231.787 165.818 226.76 167.64 220.954 168.239C212.425 169.118 204.973 167.098 198.599 162.178C192.288 157.179 188.708 150.558 187.858 142.315C187.008 134.073 189.129 126.9 194.223 120.798C199.308 114.623 206.044 111.103 214.43 110.239ZM215.938 124.86C213.429 125.119 211.245 126.068 209.386 127.709C207.52 129.277 206.171 131.3 205.34 133.776L228.239 131.414C225.629 126.468 221.528 124.283 215.938 124.86ZM287.91 160.247L270.709 162.021L266.496 121.167L248.971 122.974L247.419 107.923L299.669 102.535L301.221 117.586L283.697 119.393L287.91 160.247Z" fill="url(#paint1_linear)"/>
</g>
<defs>
<linearGradient id="paint0_linear" x1="20.139" y1="58.9703" x2="318.403" y2="307.929" gradientUnits="userSpaceOnUse">
<stop stop-color="#FE1F1F"/>
<stop offset="0.301983" stop-color="#811FFE"/>
<stop offset="0.302083" stop-color="#AEFF01"/>
<stop offset="0.645833" stop-color="#EBFF00"/>
<stop offset="0.859275" stop-color="#ADFF00"/>
<stop offset="0.859375" stop-color="#FF0CBB"/>
<stop offset="1" stop-color="#DB00FF"/>
</linearGradient>
<linearGradient id="paint1_linear" x1="102.167" y1="140.444" x2="246.667" y2="209.444" gradientUnits="userSpaceOnUse">
<stop stop-color="white"/>
<stop offset="0.0001" stop-color="white"/>
<stop offset="0.0002"/>
<stop offset="0.4375"/>
<stop offset="1" stop-opacity="0"/>
</linearGradient>
<clipPath id="clip0">
<rect width="327.523" height="282.393" fill="white" transform="translate(0.253113 33.5977) rotate(-5.88794)"/>
</clipPath>
</defs>
</svg>
