<svg width="317" height="88" viewBox="0 0 317 88" fill="none" xmlns="http://www.w3.org/2000/svg">
<path d="M42.0322 7.90483H9.53079V28.0909H26.2908C33.3281 28.1835 38.8222 29.9891 42.773 33.5078C46.7237 37.0264 48.6991 41.8106 48.6991 47.8602C48.6991 53.9408 46.7083 58.7866 42.7267 62.3979C38.745 66.0092 33.3127 67.8765 26.4297 68H0.595216V0.589698H42.0322V7.90483ZM9.53079 35.406V60.7312H25.7815C30.1953 60.7312 33.6213 59.5583 36.0597 57.2125C38.5289 54.8667 39.7636 51.7184 39.7636 47.7676C39.7636 43.9712 38.5752 40.9772 36.1986 38.7858C33.8528 36.5943 30.5039 35.4677 26.1519 35.406H9.53079ZM90.3213 68C89.8274 67.0123 89.4262 65.253 89.1175 62.722C85.1359 66.858 80.3826 68.926 74.8577 68.926C69.9192 68.926 65.8604 67.537 62.6812 64.7591C59.5329 61.9504 57.9588 58.4008 57.9588 54.1105C57.9588 48.8942 59.9342 44.8509 63.885 41.9804C67.8666 39.079 73.4533 37.6283 80.6449 37.6283H88.9786V33.693C88.9786 30.699 88.0835 28.3224 86.2933 26.563C84.5031 24.7728 81.8641 23.8777 78.3763 23.8777C75.3206 23.8777 72.7588 24.6494 70.6908 26.1926C68.6228 27.7359 67.5888 29.6033 67.5888 31.7947H58.9774C58.9774 29.2946 59.857 26.8871 61.6164 24.5722C63.4066 22.2264 65.8141 20.3745 68.8389 19.0164C71.8946 17.6583 75.2435 16.9793 78.8856 16.9793C84.6575 16.9793 89.1793 18.43 92.451 21.3313C95.7228 24.2018 97.4204 28.168 97.5438 33.23V56.2865C97.5438 60.8855 98.1303 64.5431 99.3032 67.2592V68H90.3213ZM76.1077 61.4719C78.793 61.4719 81.3394 60.7775 83.7469 59.3885C86.1544 57.9996 87.8983 56.1939 88.9786 53.9716V43.6934H82.2654C71.7711 43.6934 66.524 46.7645 66.524 52.9068C66.524 55.5921 67.4191 57.6909 69.2093 59.2033C70.9995 60.7157 73.299 61.4719 76.1077 61.4719ZM153.287 43.5082C153.287 51.132 151.543 57.2742 148.055 61.9349C144.567 66.5956 139.845 68.926 133.888 68.926C127.807 68.926 123.023 66.9969 119.536 63.1387V87.2601H110.97V17.9053H118.795L119.211 23.4611C122.699 19.1399 127.545 16.9793 133.749 16.9793C139.768 16.9793 144.521 19.2479 148.009 23.7851C151.528 28.3224 153.287 34.6344 153.287 42.7211V43.5082ZM144.722 42.5359C144.722 36.8876 143.518 32.4275 141.111 29.1557C138.703 25.884 135.4 24.2481 131.203 24.2481C126.017 24.2481 122.128 26.5476 119.536 31.1466V55.0828C122.097 59.6509 126.017 61.9349 131.295 61.9349C135.4 61.9349 138.657 60.3145 141.064 57.0736C143.503 53.8019 144.722 48.956 144.722 42.5359ZM162.963 61.009L165.926 57.3514C169.26 53.0302 171.158 46.5485 171.621 37.9061L172.408 17.9053H204.678V61.009H211.114V82.7229H202.548V68H167.593V82.7229H159.028L159.074 61.009H162.963ZM173.103 61.009H196.113V25.8223H180.696L180.186 37.7672C179.662 47.7368 177.3 55.484 173.103 61.009ZM251.532 68C251.038 67.0123 250.637 65.253 250.328 62.722C246.347 66.858 241.593 68.926 236.068 68.926C231.13 68.926 227.071 67.537 223.892 64.7591C220.744 61.9504 219.169 58.4008 219.169 54.1105C219.169 48.8942 221.145 44.8509 225.096 41.9804C229.077 39.079 234.664 37.6283 241.856 37.6283H250.189V33.693C250.189 30.699 249.294 28.3224 247.504 26.563C245.714 24.7728 243.075 23.8777 239.587 23.8777C236.531 23.8777 233.969 24.6494 231.901 26.1926C229.833 27.7359 228.799 29.6033 228.799 31.7947H220.188C220.188 29.2946 221.068 26.8871 222.827 24.5722C224.617 22.2264 227.025 20.3745 230.05 19.0164C233.105 17.6583 236.454 16.9793 240.096 16.9793C245.868 16.9793 250.39 18.43 253.662 21.3313C256.933 24.2018 258.631 28.168 258.754 33.23V56.2865C258.754 60.8855 259.341 64.5431 260.514 67.2592V68H251.532ZM237.318 61.4719C240.004 61.4719 242.55 60.7775 244.958 59.3885C247.365 57.9996 249.109 56.1939 250.189 53.9716V43.6934H243.476C232.982 43.6934 227.735 46.7645 227.735 52.9068C227.735 55.5921 228.63 57.6909 230.42 59.2033C232.21 60.7157 234.51 61.4719 237.318 61.4719ZM287.784 46.6565H281.533V68H272.922V17.9053H281.533V39.1099H287.135L303.988 17.9053H314.359L294.543 41.9804L316.025 68H305.145L287.784 46.6565Z" fill="black"/>
</svg>
