<svg width="824" height="167" viewBox="0 0 824 167" fill="none" xmlns="http://www.w3.org/2000/svg">
<path d="M65.1135 65.0811H62.7626V8.33594H117.157V65.0811H114.725V22.5222H65.1135V65.0811ZM123.64 8.25487H152.742C159.552 8.25487 164.497 8.98445 167.577 10.4436C170.712 11.9028 172.63 13.8213 173.333 16.1992C174.089 18.5771 174.468 22.0088 174.468 26.4944V30.2233C174.468 32.331 173.873 34.2225 172.684 35.8979C171.549 37.5732 170.009 38.8702 168.063 39.789C166.118 40.7077 164.01 41.167 161.74 41.167H126.072V65H123.64V8.25487ZM161.74 38.8162C164.443 38.8162 166.847 38.0866 168.955 36.6274C171.063 35.1683 172.117 33.1146 172.117 30.4665C172.117 27.6563 170.955 25.6297 168.631 24.3867C166.307 23.0897 163.389 22.4412 159.876 22.4412H126.072V38.8162H161.74ZM211.626 7.11997C217.247 7.11997 222.354 8.44402 226.947 11.0921C231.595 13.7402 235.243 17.3341 237.891 21.8737C240.593 26.3593 241.944 31.2772 241.944 36.6274C241.944 42.0317 240.593 47.0037 237.891 51.5433C235.243 56.0289 231.595 59.5957 226.947 62.2438C222.354 64.8919 217.247 66.216 211.626 66.216H208.546C202.871 66.216 197.71 64.8919 193.062 62.2438C188.415 59.5957 184.767 56.0289 182.119 51.5433C179.471 47.0037 178.146 42.0317 178.146 36.6274C178.146 31.2231 179.471 26.2782 182.119 21.7926C184.767 17.3071 188.415 13.7402 193.062 11.0921C197.71 8.44402 202.871 7.11997 208.546 7.11997H211.626ZM212.275 52.0297C217.247 52.0297 221.84 51.3541 226.056 50.0031C230.271 48.598 233.622 46.7335 236.108 44.4096C238.594 42.0317 239.837 39.4377 239.837 36.6274C239.837 33.8712 238.594 31.3312 236.108 29.0074C233.622 26.6295 230.271 24.765 226.056 23.4139C221.84 22.0088 217.247 21.3063 212.275 21.3063H207.897C202.925 21.3063 198.304 22.0088 194.035 23.4139C189.82 24.765 186.469 26.6295 183.983 29.0074C181.497 31.3312 180.254 33.8712 180.254 36.6274C180.254 39.4377 181.497 42.0317 183.983 44.4096C186.469 46.7335 189.82 48.598 194.035 50.0031C198.304 51.3541 202.925 52.0297 207.897 52.0297H212.275ZM305.408 77.1597H303.057V65H244.285V77.1597H241.934V50.8137H249.311L260.174 8.25487H298.031V50.8137H305.408V77.1597ZM295.68 50.8137V22.4412H258.958L251.662 50.8137H295.68ZM339.714 7.11997C345.335 7.11997 350.442 8.44402 355.035 11.0921C359.683 13.7402 363.331 17.3341 365.979 21.8737C368.681 26.3593 370.032 31.2772 370.032 36.6274C370.032 42.0317 368.681 47.0037 365.979 51.5433C363.331 56.0289 359.683 59.5957 355.035 62.2438C350.442 64.8919 345.335 66.216 339.714 66.216H336.634C330.959 66.216 325.798 64.8919 321.15 62.2438C316.503 59.5957 312.855 56.0289 310.207 51.5433C307.559 47.0037 306.235 42.0317 306.235 36.6274C306.235 31.2231 307.559 26.2782 310.207 21.7926C312.855 17.3071 316.503 13.7402 321.15 11.0921C325.798 8.44402 330.959 7.11997 336.634 7.11997H339.714ZM340.363 52.0297C345.335 52.0297 349.928 51.3541 354.144 50.0031C358.359 48.598 361.71 46.7335 364.196 44.4096C366.682 42.0317 367.925 39.4377 367.925 36.6274C367.925 33.8712 366.682 31.3312 364.196 29.0074C361.71 26.6295 358.359 24.765 354.144 23.4139C349.928 22.0088 345.335 21.3063 340.363 21.3063H335.985C331.013 21.3063 326.393 22.0088 322.123 23.4139C317.908 24.765 314.557 26.6295 312.071 29.0074C309.585 31.3312 308.342 33.8712 308.342 36.6274C308.342 39.4377 309.585 42.0317 312.071 44.4096C314.557 46.7335 317.908 48.598 322.123 50.0031C326.393 51.3541 331.013 52.0297 335.985 52.0297H340.363ZM382.198 56.245C380.847 62.8923 377.28 66.216 371.497 66.216C369.822 66.216 368.336 65.6485 367.039 64.5136C365.796 63.3247 365.174 61.8925 365.174 60.2172C365.174 58.5959 365.742 57.2178 366.877 56.0829C368.065 54.948 369.498 54.3806 371.173 54.3806C372.848 54.3806 374.226 54.975 375.307 56.164C376.388 57.3529 376.929 58.758 376.929 60.3793C376.929 60.9738 376.847 61.5142 376.685 62.0006C377.55 61.4061 378.253 60.4334 378.793 59.0823C379.387 57.7312 379.901 55.9208 380.333 53.651L389.656 8.33594H430.999V65H428.648V22.5222H389.169L382.198 56.245ZM480.656 35.4925V8.25487H483.006V35.4925H487.951L507.812 8.25487H524.349L502.786 37.8434L510.406 53.8131C512.568 58.3527 514.73 61.2981 516.891 62.6491L517.459 62.9734C517.027 62.1087 516.81 61.217 516.81 60.2983C516.81 58.6229 517.378 57.2178 518.513 56.0829C519.648 54.948 521.053 54.3806 522.728 54.3806C524.349 54.3806 525.727 54.948 526.862 56.0829C528.051 57.2178 528.646 58.5689 528.646 60.1361C528.646 61.8115 528.024 63.2436 526.781 64.4325C525.538 65.6215 524.079 66.216 522.404 66.216C518.675 66.216 515.784 65.1892 513.73 63.1355C511.73 61.0819 509.92 58.3257 508.299 54.8669L500.111 37.8434H483.006V65H480.656V37.8434H475.63L455.85 65H439.313L460.957 35.4925L453.175 19.4418C451.067 15.0102 448.878 12.0379 446.609 10.5247L446.203 10.2815C446.636 11.1462 446.852 12.0649 446.852 13.0377C446.852 14.659 446.257 16.0641 445.068 17.253C443.933 18.3879 442.555 18.9554 440.934 18.9554C439.313 18.9554 437.908 18.3879 436.719 17.253C435.584 16.0641 435.016 14.686 435.016 13.1187C435.016 11.6055 435.557 10.2274 436.638 8.98445C437.772 7.74147 439.583 7.11997 442.069 7.11997C445.311 7.11997 447.933 8.17381 449.932 10.2815C451.932 12.3351 453.715 15.0373 455.282 18.3879L463.47 35.4925H480.656ZM580.916 50.8137V65H532.683V8.25487H580.916V22.4412H534.872V35.4925H574.269V37.8434H534.872V50.8137H580.916ZM641.145 65H638.794V43.68H589.183V65H586.832V8.25487H589.183V29.5748H638.794V8.25487H641.145V65ZM707.05 8.25487V65H704.618V15.1454L661.816 65H647.63V8.25487H649.981V58.1095L692.864 8.25487H707.05ZM761.807 50.8137V65H713.574V8.25487H761.807V22.4412H715.763V35.4925H755.16V37.8434H715.763V50.8137H761.807ZM205.775 125.709C205.775 120.304 207.072 115.359 209.666 110.874C212.314 106.334 215.962 102.74 220.61 100.092C225.257 97.444 230.445 96.12 236.174 96.12H239.254C244.064 96.12 248.523 97.0927 252.63 99.0383C256.737 100.93 260.196 103.578 263.006 106.983C265.817 110.387 267.735 114.278 268.762 118.656L265.033 119.385C262.817 116.683 259.44 114.495 254.9 112.819C250.36 111.144 245.361 110.306 239.903 110.306H235.526C230.554 110.306 225.96 111.009 221.745 112.414C217.529 113.765 214.152 115.629 211.612 118.007C209.126 120.331 207.883 122.898 207.883 125.709C207.883 128.465 209.126 131.032 211.612 133.41C214.152 135.733 217.529 137.598 221.745 139.003C225.96 140.354 230.554 141.03 235.526 141.03H239.903C245.361 141.03 250.36 140.192 254.9 138.517C259.44 136.841 262.817 134.653 265.033 131.95L268.762 132.68C267.681 137.003 265.763 140.868 263.006 144.272C260.25 147.677 256.818 150.352 252.711 152.298C248.604 154.243 244.118 155.216 239.254 155.216H236.174C230.445 155.216 225.257 153.892 220.61 151.244C216.016 148.596 212.395 145.029 209.747 140.543C207.099 136.004 205.775 131.059 205.775 125.709ZM280.946 145.245C279.595 151.892 276.028 155.216 270.246 155.216C268.57 155.216 267.084 154.649 265.787 153.514C264.544 152.325 263.923 150.893 263.923 149.217C263.923 147.596 264.49 146.218 265.625 145.083C266.814 143.948 268.246 143.381 269.922 143.381C271.597 143.381 272.975 143.975 274.056 145.164C275.137 146.353 275.677 147.758 275.677 149.379C275.677 149.974 275.596 150.514 275.434 151.001C276.299 150.406 277.001 149.433 277.542 148.082C278.136 146.731 278.65 144.921 279.082 142.651L288.404 97.3359H329.747V154H327.396V111.522H287.918L280.946 145.245ZM384.43 139.814V154H336.197V97.2549H384.43V111.441H338.386V124.493H377.783V126.843H338.386V139.814H384.43ZM451.387 166.16H449.036V154H390.264V166.16H387.913V139.814H395.29L406.153 97.2549H444.01V139.814H451.387V166.16ZM441.659 139.814V111.441H404.937L397.641 139.814H441.659ZM447.752 97.3359H450.59L471.342 130.005L491.365 97.2549H507.091L472.477 154H456.588L469.883 132.275L447.752 97.3359ZM558.988 139.814V154H510.755V97.2549H558.988V111.441H512.943V124.493H552.341V126.843H512.943V139.814H558.988ZM589.547 154V111.441H562.471V97.2549H619.054V111.441H591.898V154H589.547Z" fill="#00F0FF"/>
<a href="https://www.fontsquirrel.com/fonts/peace-sans">
<rect fill="black" fill-opacity="0" x="59.52" y="-0.0854568" width="60.8794" height="89.1709"/>
</a>
</svg>
