<svg width="240" height="87" viewBox="0 0 240 87" fill="none" xmlns="http://www.w3.org/2000/svg">
<path d="M76.1313 2.74644C76.0738 2.22867 75.6711 1.94103 75.0383 1.94103L72.9097 2.2862C70.3209 2.74644 64.7981 3.37926 59.2753 3.37926C56.6864 3.37926 50.8185 3.14914 41.7864 2.63138C32.6967 2.17114 26.4836 1.94103 23.0893 1.94103C16.4159 1.94103 11.0657 3.60938 7.03866 7.0036C2.95408 10.3978 0.940552 15.0002 0.940552 20.8106C0.940552 26.2759 2.83902 30.6481 6.63595 33.8698C10.3754 37.0914 14.2873 38.7022 18.3719 38.7022C18.7746 38.7022 19.0048 38.4721 19.1773 38.0119C20.2704 35.5381 20.8457 33.7547 20.8457 32.5466C20.8457 32.0864 20.558 31.8563 20.0403 31.8563C16.8186 31.4536 14.1148 30.303 11.9286 28.2894C9.685 26.2759 8.59195 23.8022 8.59195 20.8106C8.59195 13.3894 14.2298 8.78701 23.2044 8.78701C24.0673 8.78701 25.333 8.84454 26.9438 8.90207C28.5546 8.9596 30.5681 9.07466 33.0419 9.13219C35.4581 9.18972 37.4717 9.30478 39.0249 9.3623C36.4937 12.4114 35.228 18.2793 35.228 26.9087V56.1336C35.228 71.7241 30.4531 79.4905 20.8457 79.4905C18.0843 79.4905 15.0352 77.9372 11.7561 74.8882C11.0657 74.1403 10.5479 73.7951 10.1452 73.7951C9.685 73.7951 8.87959 74.4855 7.72901 75.8662C6.57842 77.2469 6.00313 78.1673 6.00313 78.6276C6.00313 79.2604 6.63595 80.1809 7.84407 81.3315C9.05218 82.5396 10.8356 83.6326 13.1368 84.7257C15.4379 85.7612 17.8542 86.279 20.3855 86.279C29.1874 86.279 35.4581 82.3094 38.6222 76.0388C41.7864 69.7681 42.8794 63.2097 42.8794 55.5583V25.413C42.8794 17.8766 43.7999 12.6415 45.5833 9.70748C52.7744 9.99513 56.9166 10.1677 57.9521 10.1677C66.1788 10.2252 72.0468 9.76501 75.4985 8.90207C76.3615 8.72948 76.8217 8.26925 76.8217 7.5789C76.8217 7.17619 76.5916 5.56537 76.1313 2.74644Z" fill="black"/>
<path d="M139.586 59.1827C139.183 59.1827 138.896 59.4703 138.666 60.0456C136.767 64.3603 134.409 68.2723 131.532 71.8391C128.656 75.4635 125.434 77.2469 121.81 77.2469C118.415 77.2469 116.172 75.9812 115.079 73.4499C113.928 70.9187 113.353 66.9491 113.353 61.5414V33.5246C113.353 32.0864 112.72 31.396 111.454 31.396H107.542C106.334 31.396 105.701 32.0864 105.701 33.5246V53.6599H81.5391C79.6406 53.6599 78.2599 54.2352 77.397 55.3282V33.5246C77.397 32.0864 76.8217 31.396 75.6136 31.396H71.4139C70.2058 31.396 69.6305 32.1439 69.6305 33.6397V80.8712C69.6305 82.3095 70.2058 82.9998 71.4139 82.9998H75.4985C76.7642 82.9998 77.397 82.3095 77.397 80.9863V64.3603C77.397 61.9441 78.5476 60.736 80.9063 60.736H105.701V64.2453C105.701 77.4195 110.706 84.0353 120.659 84.0353C126.585 84.0353 132.222 80.9863 135.962 76.3839C139.701 71.8391 141.945 67.5244 143.728 62.9796C143.901 62.4618 143.958 62.0591 143.958 61.7715C143.958 61.3688 143.326 60.851 142.117 60.1607C140.909 59.5279 140.046 59.1827 139.586 59.1827Z" fill="black"/>
<path d="M165.647 84.0353C173.586 84.0353 180.144 81.9067 185.379 77.7071C190.615 73.5075 194.239 68.6175 196.368 62.9796C196.54 62.4618 196.655 62.0591 196.655 61.7715C196.655 61.3688 196.022 60.851 194.814 60.1607C193.606 59.5279 192.743 59.1827 192.283 59.1827C191.88 59.2402 191.535 59.5279 191.305 60.0456C189.291 64.8205 186.185 68.9627 182.1 72.3569C177.958 75.7511 172.723 77.477 166.452 77.477C161.677 77.477 157.42 76.3839 153.681 74.1403C149.941 71.9542 147.41 68.8476 145.972 64.8781C146.72 64.9356 148.043 64.9931 149.999 64.9931C156.845 64.9931 162.828 63.0947 168.063 59.2402C173.298 55.4433 175.887 50.2656 175.887 43.7648C175.887 39.8528 174.506 36.6312 171.745 34.0424C168.926 31.4536 165.417 30.1879 161.16 30.1879C154.659 30.1879 149.021 32.8343 144.361 38.1845C139.701 43.5347 137.343 49.8629 137.343 57.0541C137.343 65.3958 139.989 72.0117 145.224 76.7866C150.459 81.6191 157.248 84.0353 165.647 84.0353ZM149.021 58.9526C147.122 58.9526 145.742 58.895 144.764 58.8375C144.591 57.8595 144.534 57.1116 144.534 56.4788C144.534 51.1286 146.202 46.4687 149.539 42.4992C152.875 38.5297 156.73 36.5737 161.045 36.5737C165.704 36.5737 168.811 39.22 168.811 43.7648C168.811 48.4247 166.855 52.1066 163.001 54.8104C159.089 57.5719 154.429 58.9526 149.021 58.9526Z" fill="black"/>
<path d="M220.587 37.264C220.07 37.264 219.437 37.9544 218.804 39.2775C218.114 40.6007 217.768 41.6362 217.768 42.3266C217.768 43.132 218.056 43.5922 218.574 43.6498C222.543 44.2826 225.823 46.0085 228.296 48.8274C230.77 51.6463 231.978 55.0981 231.978 59.1827C231.978 64.3603 230.425 68.675 227.318 72.0692C224.154 75.521 220.185 77.2469 215.295 77.2469C209.714 77.2469 205.4 75.0608 202.351 70.631C199.302 66.2012 197.748 60.5058 197.748 53.4297V46.9289C205.63 44.9729 212.821 41.0034 219.264 35.0204C225.708 29.0373 228.929 22.5365 228.929 15.4604C228.929 11.2608 227.548 7.75148 224.845 4.93255C222.083 2.11361 218.574 0.73291 214.259 0.73291C209.944 0.73291 206.148 1.8835 202.926 4.2422C199.704 6.6009 197.23 9.82254 195.447 13.9071C191.88 22.0763 190.154 31.5686 190.154 42.2115V54.2352C190.154 63.0371 192.34 70.2283 196.655 75.7511C200.97 81.2739 207.01 84.0353 214.777 84.0353C221.968 84.0353 227.894 81.7342 232.553 77.1318C237.213 72.587 239.572 66.4314 239.572 58.7224C239.572 52.5093 237.616 47.3892 233.762 43.3046C229.85 39.2775 225.477 37.264 220.587 37.264ZM213.972 7.46384C218.516 7.46384 221.623 10.6279 221.623 15.4604C221.623 20.8106 219.092 25.8732 214.029 30.5906C208.909 35.3655 203.501 38.4146 197.748 39.7378C197.978 30.3605 199.474 22.594 202.236 16.5535C204.939 10.5129 208.851 7.46384 213.972 7.46384Z" fill="black"/>
</svg>
