<svg width="429" height="56" viewBox="0 0 429 56" fill="none" xmlns="http://www.w3.org/2000/svg">
<path d="M70.2138 46V0.628454H68.9823L35.4722 35.2405H35.2777L1.76762 0.628454H0.600924V46H1.50836V1.73034H1.57317L35.1481 36.4072H35.6018L69.1768 1.73034H69.2416V46H70.2138ZM133.111 29.8607V29.0829C133.111 20.7864 127.083 13.0732 107.249 13.0732C90.7212 13.0732 79.6375 19.1012 79.6375 29.7311C79.6375 41.5925 90.1378 46.5185 109.518 46.5185C116.907 46.5185 126.63 45.0926 130.778 43.4073L130.518 42.6944C125.722 44.5092 116.259 45.7407 109.777 45.7407C87.9989 45.7407 80.7394 39.3887 80.545 29.8607H133.111ZM107.249 13.851C128.768 13.851 132.204 23.055 132.204 29.0829H80.545C80.8042 20.2679 90.2674 13.851 107.249 13.851ZM197.564 55.1391V45.2222H190.499V13.5918H148.692L148.563 17.3511C147.979 29.5366 146.424 39.3887 141.692 45.2222H135.988V55.1391H136.701L137.025 46H196.657L196.851 55.1391H197.564ZM189.592 45.2222H142.729C148.952 36.6664 149.017 22.6661 149.6 14.3696H189.592V45.2222ZM236.079 14.3696C247.422 14.3696 249.496 17.6752 249.496 21.3697C249.496 25.9069 245.866 28.8884 236.532 28.8884H205.55V14.3696H236.079ZM237.31 29.6662C247.098 29.6662 251.764 31.7404 251.764 37.1201C251.764 40.2313 249.949 45.2222 238.218 45.2222H205.55V29.6662H237.31ZM238.153 46C248.329 46 252.672 42.5647 252.672 37.0553C252.672 32.2589 248.848 29.3422 241.134 29.2125V29.1477C246.385 28.694 250.403 26.0365 250.403 21.3049C250.403 16.314 246.903 13.5918 236.079 13.5918H204.643V46H238.153ZM312.876 29.8607V29.0829C312.876 20.7864 306.848 13.0732 287.014 13.0732C270.486 13.0732 259.402 19.1012 259.402 29.7311C259.402 41.5925 269.902 46.5185 289.282 46.5185C296.672 46.5185 306.394 45.0926 310.542 43.4073L310.283 42.6944C305.487 44.5092 296.023 45.7407 289.542 45.7407C267.763 45.7407 260.504 39.3887 260.309 29.8607H312.876ZM287.014 13.851C308.533 13.851 311.968 23.055 311.968 29.0829H260.309C260.569 20.2679 270.032 13.851 287.014 13.851ZM377.329 55.1391V45.2222H370.264V13.5918H328.457L328.327 17.3511C327.744 29.5366 326.188 39.3887 321.457 45.2222H315.753V55.1391H316.466L316.79 46H376.421L376.616 55.1391H377.329ZM369.356 45.2222H322.494C328.716 36.6664 328.781 22.6661 329.364 14.3696H369.356V45.2222ZM410.463 26.2958C423.103 26.2958 427.834 28.3699 427.834 35.5645C427.834 42.7592 422.584 45.2222 410.982 45.2222H385.315V26.2958H410.463ZM411.241 46C424.075 46 428.742 42.8888 428.742 35.4997C428.742 28.694 425.242 25.518 410.723 25.518H385.315V13.5918H384.407V46H411.241Z" fill="black"/>
</svg>
