<svg width="292" height="133" viewBox="0 0 292 133" fill="none" xmlns="http://www.w3.org/2000/svg">
<path d="M40.2614 35.8C36.4347 37.48 32.6081 39.58 28.7814 42.1C25.0481 44.62 21.7814 47.4667 18.9814 50.64C16.1814 53.8133 14.0814 57.1733 12.6814 60.72C11.3747 64.2667 11.2347 67.86 12.2614 71.5C13.1947 75.2333 15.0147 78.5 17.7214 81.3C20.5214 84.0067 23.8347 86.1533 27.6614 87.74C31.4881 89.3267 35.7814 90.26 40.5414 90.54C45.3014 90.7267 50.2014 90.1667 55.2414 88.86L66.0214 65.62L74.9814 110L54.5414 97.82C48.1947 99.3133 42.0814 99.8267 36.2014 99.36C30.4147 98.8 25.1414 97.4467 20.3814 95.3C15.6214 93.06 11.5614 90.12 8.20141 86.48C4.93474 82.84 2.69474 78.64 1.48141 73.88C0.17474 68.9333 0.268073 64.08 1.76141 59.32C3.25474 54.4667 5.72807 49.8933 9.18141 45.6C12.7281 41.3067 17.0214 37.3867 22.0614 33.84C27.1947 30.2 32.7014 27.0267 38.5814 24.32C39.7014 22.2667 41.0547 19.84 42.6414 17.04C44.2281 14.1467 45.7214 11.44 47.1214 8.91999C48.6147 6.30666 49.8281 4.15999 50.7614 2.48C51.7881 0.706661 52.2547 -0.0866735 52.1614 0.0999963C52.0681 0.193328 52.0681 1.17333 52.1614 3.03999C52.3481 4.81332 52.5814 7.19332 52.8614 10.18C53.1414 13.0733 53.4681 16.34 53.8414 19.98C54.2147 23.62 54.5881 27.4 54.9614 31.32C55.3347 35.1467 55.6614 38.9267 55.9414 42.66C56.3147 46.3 56.6414 49.5667 56.9214 52.46L40.2614 35.8ZM135.118 68.98L135.538 95.3L150.518 107.9L106.698 107.76L125.038 93.9V63.52L105.018 63.1C104.831 64.5 104.505 66.6 104.038 69.4C103.665 72.2 103.198 75.3733 102.638 78.92C102.171 82.3733 101.565 86.06 100.818 89.98C100.165 93.8067 99.4646 97.54 98.718 101.18C97.9713 104.727 97.1313 107.993 96.198 110.98C95.2646 113.967 94.3313 116.3 93.398 117.98C92.278 120.033 90.8313 121.947 89.058 123.72C87.2846 125.587 85.3246 127.173 83.178 128.48C81.0313 129.88 78.7913 130.907 76.458 131.56C74.1246 132.307 71.838 132.54 69.598 132.26C67.8246 132.073 66.1913 131.233 64.698 129.74C63.1113 128.34 62.1313 126.8 61.758 125.12C61.5713 124.093 61.6646 123.067 62.038 122.04C62.318 121.013 62.8313 120.08 63.578 119.24C64.2313 118.493 65.0713 117.84 66.098 117.28C67.1246 116.813 68.198 116.627 69.318 116.72C70.158 116.72 70.998 116.953 71.838 117.42C72.5846 117.98 73.2846 118.587 73.938 119.24C74.498 119.987 74.9646 120.78 75.338 121.62C75.7113 122.46 75.8513 123.207 75.758 123.86C77.5313 122.927 79.118 121.667 80.518 120.08C81.918 118.493 83.178 116.72 84.298 114.76C85.418 112.8 86.398 110.7 87.238 108.46C88.078 106.127 88.8246 103.84 89.478 101.6C90.1313 99.36 90.738 96.0933 91.298 91.8C91.9513 87.4133 92.4646 82.8867 92.838 78.22C93.3046 73.46 93.5846 68.9333 93.678 64.64C93.7713 60.2533 93.678 56.8933 93.398 54.56L151.358 55.12L135.118 68.98ZM201.763 80.74C201.763 83.82 201.39 87.0867 200.643 90.54C199.897 93.9 198.637 97.0267 196.863 99.92C195.183 102.72 192.897 105.053 190.003 106.92C187.203 108.787 183.657 109.673 179.363 109.58C176.19 109.487 173.063 108.693 169.983 107.2C166.997 105.707 164.337 103.653 162.003 101.04C159.67 98.4267 157.803 95.3 156.403 91.66C155.097 88.02 154.583 84.0533 154.863 79.76C155.143 76.2133 156.263 73.0867 158.223 70.38C160.183 67.6733 162.563 65.48 165.363 63.8C168.163 62.0267 171.15 60.72 174.323 59.88C177.59 59.04 180.577 58.6667 183.283 58.76C185.43 58.8533 187.577 59.6 189.723 61C191.963 62.3067 193.97 64.0333 195.743 66.18C197.517 68.2333 198.963 70.5667 200.083 73.18C201.203 75.7 201.763 78.22 201.763 80.74ZM191.823 82.28C191.823 80.88 191.497 79.48 190.843 78.08C190.19 76.5867 189.35 75.28 188.323 74.16C187.297 73.04 186.13 72.1067 184.823 71.36C183.61 70.6133 182.397 70.1933 181.183 70.1C179.597 70.1 177.87 70.3333 176.003 70.8C174.23 71.1733 172.55 71.8733 170.963 72.9C169.377 73.8333 167.977 75.0467 166.763 76.54C165.643 78.0333 165.037 79.76 164.943 81.72C164.757 84.1467 165.037 86.34 165.783 88.3C166.623 90.26 167.697 91.9867 169.003 93.48C170.403 94.9733 171.943 96.14 173.623 96.98C175.397 97.82 177.17 98.24 178.943 98.24C181.37 98.24 183.377 97.7267 184.963 96.7C186.643 95.6733 187.95 94.3667 188.883 92.78C189.91 91.1933 190.657 89.4667 191.123 87.6C191.59 85.7333 191.823 83.96 191.823 82.28ZM207.708 50.64L255.728 52.32L235.848 64.92L234.588 77.38H265.108L264.968 72.76L250.968 61.56L288.068 61.14L273.648 70.8L273.228 101.04L291.568 117.98L247.468 118.12L263.568 104.4L264.268 85.92L234.588 86.34L233.468 95.3L249.708 106.36L203.648 105.52L223.528 92.64L226.328 68.7L207.708 50.64Z" fill="black"/>
</svg>
