<svg width="422" height="77" viewBox="0 0 422 77" fill="none" xmlns="http://www.w3.org/2000/svg">
<path d="M115.41 59L82.6958 30.027L113.579 3.28271H111.908L81.4222 29.7086H58.5781V3.28271H57.4638V29.7086H34.6197L4.05479 3.28271H2.38327L33.2666 30.027L0.632155 59H2.38327L34.2217 30.6638H57.4638V59H58.5781V30.6638H81.8202L113.659 59H115.41ZM183.862 59V19.2019H182.668L125.518 57.6469H125.359V19.2019H124.245V59H125.439L182.668 20.5551H182.748V59H183.862ZM198.037 76.5111V54.1446C204.803 57.1693 216.026 59.6368 226.294 59.6368C247.705 59.6368 261.555 53.8263 261.555 38.2254C261.555 24.0573 247.785 18.5652 227.408 18.5652C215.071 18.5652 205.519 21.4306 198.037 24.8533L197.878 19.2019H196.923V76.5111H198.037ZM198.037 25.9676C204.485 22.8634 214.434 19.5203 227.408 19.5203C245.715 19.5203 260.441 24.2961 260.441 38.3846C260.441 53.5079 245.875 58.6816 226.294 58.6816C215.867 58.6816 204.803 56.0549 198.037 53.0303V25.9676ZM333.387 59V19.2019H332.432L332.273 24.0573C325.507 21.1122 314.125 18.5652 303.936 18.5652C282.525 18.5652 268.755 24.2165 268.755 39.8173C268.755 53.9854 282.525 59.6368 302.981 59.6368C315.319 59.6368 324.79 56.7713 332.273 53.3487L332.511 59H333.387ZM332.273 52.2343C325.825 55.3386 315.955 58.6816 302.981 58.6816C284.674 58.6816 269.869 53.8263 269.869 39.7377C269.869 24.3757 284.674 19.5203 303.936 19.5203C314.363 19.5203 325.507 22.2266 332.273 25.1716V52.2343ZM382.852 76.5111V59.3184C385.797 59.398 389.14 59.4776 392.165 59.4776C410.552 59.4776 421.058 53.2691 421.058 39.1806C421.058 25.0125 410.552 18.8836 391.369 18.8836C388.424 18.8836 385.479 18.9631 382.852 19.0427V0.0988684H381.738V19.0427C379.111 18.9631 376.086 18.8836 373.221 18.8836C353.799 18.8836 343.532 25.1716 343.532 39.3398C343.532 53.5079 353.799 59.4776 372.027 59.4776C375.131 59.4776 378.633 59.4776 381.738 59.3184V76.5111H382.852ZM381.738 58.3632C379.111 58.5224 376.086 58.5224 372.027 58.5224C351.889 58.5224 344.646 50.8812 344.646 39.2602C344.646 27.8779 351.889 19.8387 372.903 19.8387C376.086 19.8387 379.27 19.9183 381.738 19.9979V58.3632ZM382.852 19.9979C385.558 19.8387 388.424 19.8387 391.687 19.8387C412.541 19.8387 419.944 27.7187 419.944 39.1806C419.944 50.722 412.462 58.5224 392.165 58.5224C388.265 58.5224 385.558 58.5224 382.852 58.3632V19.9979Z" fill="black"/>
</svg>
