<svg width="166" height="104" viewBox="0 0 166 104" fill="none" xmlns="http://www.w3.org/2000/svg">
<path d="M38.1228 55.465C37.8528 48.85 36.7728 46.285 32.9928 44.26V43.585C36.6378 41.425 37.4478 38.995 37.7178 32.515L38.7978 10.375H42.8478V2.94999H37.8528C33.5328 2.94999 31.7778 4.83999 31.6428 9.565L31.1028 36.97C31.1028 39.4 30.2928 40.48 28.1328 40.48H25.2978V2.94999H18.4128V40.48H15.5778C13.4178 40.48 12.6078 39.4 12.6078 36.97L12.0678 9.565C11.9328 4.83999 10.1778 2.94999 5.85775 2.94999H0.862754V10.375H4.91275L5.99275 32.515C6.26275 38.995 7.07275 41.425 10.7178 43.585V44.26C6.93775 46.285 5.85775 48.85 5.58775 55.465L4.64275 80.575H0.592754V88H5.72275C10.0428 88 11.7978 86.11 11.9328 81.385L12.4728 51.01C12.4728 48.58 13.2828 47.5 15.4428 47.5H18.4128V88H25.2978V47.5H28.2678C30.4278 47.5 31.2378 48.58 31.2378 51.01L31.7778 81.385C31.9128 86.11 33.6678 88 37.9878 88H43.1178V80.575H39.0678L38.1228 55.465ZM52.8831 81.25C53.1531 65.725 53.2881 49.255 53.2881 40.48V21.175H47.2131V88H57.7431L63.9531 27.925H64.4931C64.2231 43.45 64.0881 59.92 64.0881 68.695V88H70.1631V21.175H59.6331L53.4231 81.25H52.8831ZM89.8172 20.095C85.9022 20.095 84.0122 22.66 83.2022 27.115H82.6622V21.175H77.6672V103.525H84.6872V101.5C84.6872 96.37 84.4172 91.375 84.0122 86.38C85.2272 88.27 86.8472 89.08 89.1422 89.08C94.4072 89.08 98.7272 85.03 98.7272 70.855V38.32C98.7272 24.145 95.0822 20.095 89.8172 20.095ZM91.7072 75.58C91.7072 80.17 90.7622 82.33 88.1972 82.33C85.6322 82.33 84.6872 80.17 84.6872 75.58V33.595C84.6872 29.005 85.6322 26.845 88.1972 26.845C90.7622 26.845 91.7072 29.005 91.7072 33.595V75.58ZM127.216 81.25C125.866 81.25 125.461 80.845 125.461 79.495L125.596 34.27C125.596 24.415 122.221 20.095 115.471 20.095C107.776 20.095 104.131 25.495 103.996 41.56L111.016 42.235C111.016 29.41 112.096 26.845 115.201 26.845C117.631 26.845 118.576 28.735 118.576 33.325V39.13C118.576 42.1 118.171 43.99 116.146 45.475L112.501 48.175C106.966 52.225 104.671 57.49 104.671 70.18C104.671 85.03 107.776 89.08 113.581 89.08C117.361 89.08 119.251 86.245 120.061 82.195H120.601C120.736 85.705 121.276 88 125.866 88H129.376V81.25H127.216ZM115.201 82.33C112.636 82.33 111.826 80.305 111.826 75.58V67.48C111.826 58.975 112.771 56.005 116.011 53.575L117.091 52.765C117.766 52.225 118.306 51.685 118.711 51.145L118.576 75.58C118.576 80.305 117.766 82.33 115.201 82.33ZM152.202 20.365C152.337 16.18 152.472 11.86 152.472 7.675V0.249995H145.722V7.675C145.722 11.86 145.857 16.18 145.992 20.365H145.047C136.002 20.365 132.627 25.495 132.627 37.24V72.07C132.627 83.68 135.597 88.81 144.507 88.81H145.992C145.857 91.645 145.722 94.48 145.722 97.45V103.525H152.472V97.45C152.472 94.48 152.337 91.645 152.202 88.81H153.147C162.192 88.81 165.567 83.68 165.567 71.935V37.105C165.567 25.495 162.597 20.365 153.687 20.365H152.202ZM139.377 33.865C139.377 29.275 140.862 26.98 144.777 26.98H145.722V82.195H144.777C140.862 82.195 139.377 79.9 139.377 75.31V33.865ZM158.817 75.31C158.817 79.9 157.332 82.195 153.417 82.195H152.472V26.98H153.417C157.332 26.98 158.817 29.275 158.817 33.865V75.31Z" fill="black"/>
</svg>
