<svg width="370" height="89" viewBox="0 0 370 89" fill="none" xmlns="http://www.w3.org/2000/svg">
<path d="M91.7544 68.4823C100.747 68.4823 105.392 63.2448 106.973 55.7345L105.886 55.4381C105.392 57.118 104.601 57.7109 103.218 57.7109C101.439 57.7109 100.352 55.4381 99.2647 50.5959C96.6954 39.0339 91.0627 33.5988 74.7574 33.5988V33.3024C77.8208 31.8201 79.5007 28.6578 80.8842 20.5546C81.4771 17.0959 82.2677 15.2183 83.9476 15.2183C87.2087 15.2183 87.5051 21.7404 94.8178 21.7404C101.142 21.7404 104.799 16.9971 104.799 11.2655C104.799 5.2375 101.043 0.790599 93.5332 0.790599C84.9358 0.790599 80.7854 7.2139 78.809 20.5546C77.4255 29.1519 75.2515 32.5118 69.4211 32.5118H66.4565V12.1549C66.4565 7.01625 67.0494 4.54576 69.0258 3.45874C70.014 2.96464 71.0022 2.767 71.5951 2.66818V2.07526H35.7235V2.66818C36.3164 2.767 37.3046 2.96464 38.2928 3.45874C40.2692 4.54576 40.8621 7.01625 40.8621 12.1549V32.5118H37.8975C32.0671 32.5118 29.8931 29.1519 28.5096 20.5546C26.5332 7.2139 22.3828 0.790599 13.7854 0.790599C6.2751 0.790599 2.51994 5.2375 2.51994 11.2655C2.51994 16.9971 6.17628 21.7404 12.5008 21.7404C19.8134 21.7404 20.1099 15.2183 23.371 15.2183C25.0509 15.2183 25.8415 17.0959 26.4344 20.5546C27.8179 28.6578 29.4978 31.8201 32.5612 33.3024V33.5988C16.2559 33.5988 10.6232 39.0339 8.05386 50.5959C6.96684 55.4381 5.87982 57.7109 4.10106 57.7109C2.71758 57.7109 1.92702 57.118 1.43292 55.4381L0.345896 55.7345C1.92702 63.2448 6.57156 68.4823 15.5642 68.4823C26.7308 68.4823 30.9801 61.3673 32.5612 52.0782C33.1541 48.5207 33.7471 44.1726 34.0435 41.9985C34.9329 36.7611 36.0199 34.8835 39.0833 34.8835H40.8621V56.9204C40.8621 62.059 40.2692 64.5295 38.2928 65.6165C37.3046 66.1106 36.4152 66.3083 35.8223 66.4071V67H71.4963V66.4071C70.9034 66.3083 70.014 66.1106 69.0258 65.6165C67.0494 64.5295 66.4565 62.059 66.4565 56.9204V34.8835H68.2352C71.2987 34.8835 72.3857 36.7611 73.2751 41.9985C73.5715 44.1726 74.1644 48.5207 74.7574 52.0782C76.3385 61.3673 80.5877 68.4823 91.7544 68.4823ZM135.637 67V66.6047C135.044 66.5059 134.451 66.3083 133.957 65.913C133.265 65.4189 133.067 64.7271 132.969 63.2448C132.87 62.4543 132.87 61.1696 132.771 58.5015L140.676 34.3894V54.0546C140.676 59.7861 140.578 62.1578 140.479 63.2448C140.38 64.7271 140.182 65.4189 139.491 65.913C138.997 66.3083 138.404 66.5059 137.811 66.6047V67H169.235V66.6047C168.05 66.5059 167.358 66.4071 166.666 66.1106C165.579 65.6165 164.986 64.9248 164.69 63.3437C164.393 61.6637 164.196 58.6003 164.196 54.0546V34.2906C164.196 29.7449 164.393 26.6814 164.69 25.0015C164.986 23.4204 165.579 22.7286 166.666 22.2345C167.358 21.9381 168.05 21.8393 169.235 21.7404V21.3452H137.811V21.7404C138.404 21.8393 138.997 22.0369 139.491 22.4322C140.182 22.9263 140.38 23.618 140.479 25.1003C140.578 25.7921 140.578 27.0767 140.676 29.4484L132.771 53.5605V34.2906C132.771 28.559 132.87 26.1873 132.969 25.1003C133.067 23.618 133.265 22.9263 133.957 22.4322C134.451 22.0369 135.044 21.8393 135.637 21.7404V21.3452H104.212V21.7404C105.398 21.8393 106.089 21.9381 106.781 22.2345C107.868 22.7286 108.461 23.4204 108.758 25.0015C109.054 26.6814 109.252 29.7449 109.252 34.2906V54.0546C109.252 58.6003 109.054 61.6637 108.758 63.3437C108.461 64.9248 107.868 65.6165 106.781 66.1106C106.089 66.4071 105.398 66.5059 104.212 66.6047V67H135.637ZM203.585 46.149C203.585 63.9366 202.894 66.2094 200.226 66.2094C198.743 66.2094 197.656 64.9248 197.162 63.0472C196.273 59.9838 196.174 57.3156 196.174 52.177V39.9233C196.174 32.7095 196.569 25.0015 200.72 25.0015C203.289 25.0015 203.585 27.8673 203.585 46.149ZM202.004 88.0487V87.5546C201.115 87.4557 200.226 87.2581 199.534 86.9616C197.953 86.2699 196.964 85.0841 196.569 83.0088C196.075 80.4395 196.174 76.7832 196.174 75.0044V65.8142H196.47C198.249 67.2965 200.127 67.8894 205.661 67.8894C216.728 67.8894 227.5 59.1932 227.5 43.7773C227.5 29.2508 219.1 20.4558 208.329 20.4558C201.313 20.4558 197.261 24.2109 196.174 28.4602H195.976L196.075 22.2345C196.075 21.5428 195.68 21.3452 195.285 21.3452H166.528V21.7404C167.417 21.8393 169.394 22.1357 170.678 23.2227C171.765 24.1121 172.259 24.9027 172.457 26.5826C172.655 28.1637 172.655 31.6224 172.655 33.4012V75.0044C172.655 76.7832 172.754 80.4395 172.259 83.0088C171.864 85.0841 170.876 86.2699 169.295 86.9616C168.603 87.2581 167.714 87.4557 166.824 87.5546V88.0487H202.004ZM286.641 63.6401V63.146C285.554 63.7389 284.565 63.8378 283.478 63.8378C282.292 63.8378 281.205 63.4425 280.613 62.4543C279.921 61.2684 279.921 59.9838 279.921 55.5369V34.4882C279.921 28.7567 275.375 20.357 254.425 20.357C247.508 20.357 240.59 21.8393 236.539 25.1991C234.167 27.1755 232.784 29.7449 232.784 33.1047C232.784 37.9469 236.638 40.5162 242.468 40.5162C248.694 40.5162 252.35 37.6505 252.35 31.2272C252.35 27.472 251.065 24.705 251.065 23.0251C251.065 22.0369 252.646 21.5428 254.623 21.5428C256.896 21.5428 257.785 22.2345 257.785 27.8673V34.7847C257.785 40.5162 254.228 41.8009 241.677 44.0738C237.428 44.8643 234.365 45.9513 232.487 47.7301C230.214 49.8053 229.523 52.5723 229.523 55.9322C229.523 63.9366 235.748 67.8894 245.136 67.8894C252.745 67.8894 257.192 65.4189 258.576 60.5767H258.773C259.07 62.7507 259.663 64.5295 260.651 65.5177C262.331 67.1976 264.406 67.8894 269.94 67.8894C279.526 67.8894 285.257 65.2212 286.641 63.6401ZM257.686 59.4897C257.686 60.972 256.896 62.7507 255.315 62.7507C253.239 62.7507 252.35 60.2802 252.35 52.9676C252.35 48.8171 252.548 46.6431 252.943 44.9631C253.338 43.2832 254.03 42.3938 255.018 41.7021C256.402 40.7139 256.797 40.6151 257.686 39.6269V59.4897ZM309.398 44.1726C309.398 26.385 309.991 22.1357 312.263 22.1357C313.647 22.1357 314.536 23.4204 315.03 25.298C315.92 28.3614 315.92 31.0295 315.92 36.1682V52.177C315.92 57.3156 315.821 59.9838 314.932 63.0472C314.438 64.9248 313.548 66.2094 312.165 66.2094C309.892 66.2094 309.398 61.7625 309.398 44.1726ZM345.961 44.1726C345.961 61.7625 345.467 66.2094 343.194 66.2094C341.811 66.2094 340.921 64.9248 340.427 63.0472C339.538 59.9838 339.439 57.3156 339.439 52.177V36.1682C339.439 31.0295 339.439 28.3614 340.328 25.298C340.822 23.4204 341.712 22.1357 343.095 22.1357C345.368 22.1357 345.961 26.385 345.961 44.1726ZM316.019 22.531H315.722C313.943 21.0487 312.165 20.4558 306.828 20.4558C296.057 20.4558 285.483 28.7567 285.483 44.1726C285.483 59.3909 296.057 67.8894 306.73 67.8894C312.066 67.8894 313.845 67.2965 315.623 65.8142H315.92V75.0044C315.92 76.7832 316.019 80.4395 315.525 83.0088C315.129 85.0841 314.141 86.2699 312.56 86.9616C311.868 87.2581 310.979 87.4557 310.089 87.5546V88.0487H345.269V87.5546C344.38 87.4557 343.491 87.2581 342.799 86.9616C341.218 86.2699 340.23 85.0841 339.834 83.0088C339.34 80.4395 339.439 76.6844 339.439 74.9056V65.8142H339.735C341.514 67.2965 343.293 67.8894 348.629 67.8894C359.302 67.8894 369.876 59.3909 369.876 44.1726C369.876 28.7567 359.302 20.4558 348.53 20.4558C343.194 20.4558 341.415 21.0487 339.637 22.531H339.34V5.43514C339.34 4.74339 338.945 4.54576 338.55 4.54576H309.793V4.94104C310.682 5.03986 312.659 5.33632 313.943 6.42334C315.03 7.31272 315.525 8.10328 315.722 9.78321C315.92 11.3643 315.821 14.823 315.92 16.6018L316.019 22.531Z" fill="black"/>
</svg>
