<svg width="310" height="92" viewBox="0 0 310 92" fill="none" xmlns="http://www.w3.org/2000/svg">
<path d="M54.4574 41.2576H47.2348V72H38.3454V41.2576H30.7061L11.631 72H0.519249L23.2057 36.4425L2.2786 4.58891H12.7884L30.7061 33.8498H38.3454V4.58891H47.2348V33.8498H54.55L72.4676 4.58891H82.9312L62.0041 36.3962L84.6905 72H73.6251L54.4574 41.2576ZM124.276 21.9047H132.841V72H124.276V35.4702L101.173 72H92.6076V21.9047H101.173V58.4807L124.276 21.9047ZM188.909 47.5079C188.909 55.1318 187.165 61.2741 183.677 65.9349C180.19 70.5956 175.467 72.926 169.51 72.926C163.429 72.926 158.645 70.9969 155.157 67.1386V91.2603H146.592V21.9047H154.417L154.833 27.4605C158.321 23.1393 163.167 20.9787 169.371 20.9787C175.39 20.9787 180.143 23.2473 183.631 27.7846C187.15 32.3219 188.909 38.634 188.909 46.7208V47.5079ZM180.344 46.5356C180.344 40.8872 179.14 36.4271 176.733 33.1553C174.325 29.8835 171.022 28.2476 166.825 28.2476C161.639 28.2476 157.75 30.5471 155.157 35.1461V59.0826C157.719 63.6508 161.639 65.9349 166.917 65.9349C171.022 65.9349 174.279 64.3144 176.686 61.0735C179.125 57.8017 180.344 52.9557 180.344 46.5356ZM230.763 72C230.269 71.0123 229.868 69.2529 229.56 66.7219C225.578 70.858 220.825 72.926 215.3 72.926C210.361 72.926 206.302 71.537 203.123 68.7591C199.975 65.9503 198.4 62.4007 198.4 58.1104C198.4 52.894 200.376 48.8506 204.327 45.9801C208.308 43.0787 213.895 41.628 221.087 41.628H229.421V37.6926C229.421 34.6986 228.526 32.3219 226.735 30.5625C224.945 28.7723 222.306 27.8772 218.818 27.8772C215.762 27.8772 213.201 28.6489 211.133 30.1922C209.065 31.7355 208.031 33.6028 208.031 35.7943H199.419C199.419 33.2942 200.299 30.8866 202.058 28.5717C203.848 26.2259 206.256 24.3739 209.281 23.0158C212.336 21.6577 215.685 20.9787 219.328 20.9787C225.099 20.9787 229.621 22.4294 232.893 25.3308C236.165 28.2013 237.862 32.1676 237.986 37.2296V60.2864C237.986 64.8854 238.572 68.543 239.745 71.2592V72H230.763ZM216.55 65.4719C219.235 65.4719 221.781 64.7774 224.189 63.3884C226.596 61.9995 228.34 60.1938 229.421 57.9715V47.6931H222.707C212.213 47.6931 206.966 50.7643 206.966 56.9066C206.966 59.5919 207.861 61.6908 209.651 63.2032C211.441 64.7157 213.741 65.4719 216.55 65.4719ZM249.561 47.8783C249.561 39.5137 251.181 32.9392 254.422 28.155C257.663 23.3708 262.108 20.9787 267.756 20.9787C270.38 20.9787 272.679 21.4262 274.655 22.3214V0.885H283.22V22.5992C285.381 21.5188 287.912 20.9787 290.813 20.9787C296.492 20.9787 300.952 23.3708 304.193 28.155C307.434 32.9392 309.055 39.8377 309.055 48.8506C309.055 56.2275 307.434 62.0921 304.193 66.4441C300.983 70.7962 296.554 72.9723 290.906 72.9723C287.912 72.9723 285.35 72.4784 283.22 71.4907V91.2603H274.655V71.6296C272.617 72.5247 270.287 72.9723 267.663 72.9723C262.046 72.9723 257.617 70.7962 254.376 66.4441C251.166 62.0921 249.561 56.1349 249.561 48.5728V47.8783ZM300.489 47.8783C300.489 41.5817 299.409 36.7049 297.248 33.2479C295.088 29.76 292.109 28.0161 288.313 28.0161C286.368 28.0161 284.671 28.3248 283.22 28.9421V65.1941C284.609 65.7188 286.337 65.9812 288.405 65.9812C292.233 65.9812 295.196 64.4996 297.295 61.5365C299.424 58.5733 300.489 54.0206 300.489 47.8783ZM258.126 48.8506C258.126 54.4682 259.129 58.7277 261.135 61.6291C263.142 64.5305 266.028 65.9812 269.793 65.9812C271.583 65.9812 273.204 65.7034 274.655 65.1478V28.8032C273.358 28.2785 271.769 28.0161 269.886 28.0161C266.12 28.0161 263.219 29.6983 261.182 33.0627C259.145 36.4271 258.126 41.6897 258.126 48.8506Z" fill="black"/>
</svg>
