<svg width="438" height="103" viewBox="0 0 438 103" fill="none" xmlns="http://www.w3.org/2000/svg">
<path d="M1.51721 0.00396506H71.4237L72.5806 28.209H70.5423C70.2853 23.4347 69.055 19.0644 66.8515 15.098C64.6479 11.1317 61.6181 7.97335 57.7619 5.62293C53.9058 3.23579 49.4437 2.04222 44.3756 2.04222V76.9617H57.3212V79H15.6197V76.9617H28.5654V2.04222C23.5707 2.04222 19.127 3.23579 15.2341 5.62293C11.3412 7.97335 8.29302 11.1501 6.08951 15.1531C3.88599 19.1562 2.6557 23.5081 2.39862 28.209H0.360367L1.51721 0.00396506ZM128.164 71.6733H130.203C130.019 74.4277 128.991 76.723 127.118 78.5593C125.281 80.3588 122.802 81.2586 119.681 81.2586C116.559 81.2586 113.841 80.3956 111.528 78.6695C109.214 76.9067 107.69 74.5746 106.955 71.6733C106.294 73.0321 105.34 74.4277 104.091 75.86C102.842 77.2923 101.116 78.5593 98.9126 79.6611C96.6724 80.7261 94.0098 81.2586 90.9249 81.2586C85.7466 81.2586 81.7803 79.8447 79.0259 77.0168C76.2715 74.189 74.8943 70.9021 74.8943 67.1561C74.8943 63.5203 75.8308 60.619 77.7038 58.4522C79.6135 56.2487 81.7803 54.6512 84.2041 53.6596C86.6647 52.7047 89.6946 51.7866 93.2936 50.9052C96.2684 50.2441 98.4719 49.6932 99.9042 49.2525C101.373 48.8118 102.714 48.0773 103.926 47.049C105.174 45.984 105.799 44.5884 105.799 42.8623V35.756C105.799 33.4423 105.174 31.0919 103.926 28.7048C102.714 26.2809 100.069 25.069 95.9929 25.069C93.6058 25.069 91.7328 25.6198 90.374 26.7216C89.0151 27.7866 88.3357 28.9251 88.3357 30.137C88.3357 30.5777 88.3908 30.9634 88.501 31.2939C88.6479 31.6244 88.8682 31.9733 89.162 32.3406C89.4926 32.7445 89.7864 33.0567 90.0435 33.2771C90.3373 33.4974 90.5576 33.6994 90.7045 33.883C92.3571 35.2786 93.1835 36.9679 93.1835 38.9511C93.1835 40.3099 92.8346 41.5402 92.1368 42.642C91.439 43.707 90.4842 44.5517 89.2722 45.176C88.0603 45.7636 86.7382 46.0574 85.3059 46.0574C82.9188 46.0574 80.9907 45.3046 79.5217 43.7988C78.0894 42.2564 77.3732 40.3283 77.3732 38.0146C77.3732 35.4806 78.1261 33.0751 79.6318 30.7981C81.1376 28.4844 83.4329 26.6114 86.5178 25.1791C89.6028 23.7468 93.3671 23.0307 97.8108 23.0307C101.63 23.0307 105.229 23.7101 108.608 25.069C112.024 26.4278 114.778 28.5395 116.871 31.4041C118.965 34.2319 120.011 37.7208 120.011 41.8708V71.6733C120.011 75.4927 121.297 77.4025 123.867 77.4025C125.043 77.4025 126.034 76.8699 126.842 75.8049C127.65 74.7031 128.091 73.3259 128.164 71.6733ZM105.799 47.9855C104.33 49.4178 102.236 50.6848 99.5186 51.7866C96.8376 52.8883 95.0197 53.7147 94.0649 54.2655C93.11 54.7797 92.1919 56.0283 91.3105 58.0115C90.4658 59.9947 90.0435 63.0796 90.0435 67.2663C90.0435 70.7552 90.4474 73.4545 91.2554 75.3642C92.1001 77.3106 93.6425 78.2839 95.8828 78.2839C97.3885 78.2839 98.9126 77.6963 100.455 76.521C102.034 75.3458 103.32 73.6932 104.311 71.5631C105.303 69.3963 105.799 66.9358 105.799 64.1814V47.9855ZM165.679 102.688H131.414V100.65H140.89V27.3276H131.414V25.2893H155.102V30.9083C156.131 28.5211 157.691 26.6114 159.785 25.1791C161.878 23.7468 164.228 23.0307 166.836 23.0307C170.508 23.0307 174.052 24.3528 177.468 26.997C180.92 29.6413 183.693 33.2036 185.786 37.6841C187.88 42.1646 188.926 46.9756 188.926 52.1171C188.926 57.2954 187.88 62.1247 185.786 66.6052C183.693 71.0857 180.92 74.6481 177.468 77.2923C174.052 79.9365 170.508 81.2586 166.836 81.2586C164.228 81.2586 161.878 80.5425 159.785 79.1102C157.691 77.6779 156.131 75.7498 155.102 73.3259V100.65H165.679V102.688ZM155.102 41.0995V63.1898C155.102 66.238 155.543 68.9373 156.424 71.2877C157.306 73.6014 158.463 75.4009 159.895 76.6863C161.327 77.935 162.815 78.5593 164.357 78.5593C167.001 78.5593 168.948 77.3106 170.196 74.8133C171.482 72.316 172.29 69.2678 172.62 65.6687C172.914 62.0329 173.061 57.5157 173.061 52.1171C173.061 46.7552 172.896 42.2747 172.565 38.6757C172.271 35.0399 171.482 31.9733 170.196 29.476C168.948 26.9787 167.001 25.73 164.357 25.73C161.933 25.73 159.785 27.1439 157.912 29.9718C156.039 32.7996 155.102 36.5089 155.102 41.0995ZM247.925 71.6733H249.964C249.78 74.4277 248.752 76.723 246.879 78.5593C245.042 80.3588 242.563 81.2586 239.442 81.2586C236.32 81.2586 233.603 80.3956 231.289 78.6695C228.975 76.9067 227.451 74.5746 226.717 71.6733C226.055 73.0321 225.101 74.4277 223.852 75.86C222.603 77.2923 220.877 78.5593 218.674 79.6611C216.433 80.7261 213.771 81.2586 210.686 81.2586C205.508 81.2586 201.541 79.8447 198.787 77.0168C196.033 74.189 194.655 70.9021 194.655 67.1561C194.655 63.5203 195.592 60.619 197.465 58.4522C199.375 56.2487 201.541 54.6512 203.965 53.6596C206.426 52.7047 209.456 51.7866 213.055 50.9052C216.029 50.2441 218.233 49.6932 219.665 49.2525C221.134 48.8118 222.475 48.0773 223.687 47.049C224.935 45.984 225.56 44.5884 225.56 42.8623V35.756C225.56 33.4423 224.935 31.0919 223.687 28.7048C222.475 26.2809 219.831 25.069 215.754 25.069C213.367 25.069 211.494 25.6198 210.135 26.7216C208.776 27.7866 208.097 28.9251 208.097 30.137C208.097 30.5777 208.152 30.9634 208.262 31.2939C208.409 31.6244 208.629 31.9733 208.923 32.3406C209.254 32.7445 209.547 33.0567 209.805 33.2771C210.098 33.4974 210.319 33.6994 210.466 33.883C212.118 35.2786 212.945 36.9679 212.945 38.9511C212.945 40.3099 212.596 41.5402 211.898 42.642C211.2 43.707 210.245 44.5517 209.033 45.176C207.821 45.7636 206.499 46.0574 205.067 46.0574C202.68 46.0574 200.752 45.3046 199.283 43.7988C197.85 42.2564 197.134 40.3283 197.134 38.0146C197.134 35.4806 197.887 33.0751 199.393 30.7981C200.899 28.4844 203.194 26.6114 206.279 25.1791C209.364 23.7468 213.128 23.0307 217.572 23.0307C221.391 23.0307 224.99 23.7101 228.369 25.069C231.785 26.4278 234.539 28.5395 236.632 31.4041C238.726 34.2319 239.772 37.7208 239.772 41.8708V71.6733C239.772 75.4927 241.058 77.4025 243.628 77.4025C244.804 77.4025 245.795 76.8699 246.603 75.8049C247.411 74.7031 247.852 73.3259 247.925 71.6733ZM225.56 47.9855C224.091 49.4178 221.997 50.6848 219.28 51.7866C216.599 52.8883 214.781 53.7147 213.826 54.2655C212.871 54.7797 211.953 56.0283 211.072 58.0115C210.227 59.9947 209.805 63.0796 209.805 67.2663C209.805 70.7552 210.209 73.4545 211.016 75.3642C211.861 77.3106 213.404 78.2839 215.644 78.2839C217.15 78.2839 218.674 77.6963 220.216 76.521C221.795 75.3458 223.081 73.6932 224.072 71.5631C225.064 69.3963 225.56 66.9358 225.56 64.1814V47.9855ZM274.863 49.6382H280.152C282.355 49.6382 284.008 49.3444 285.11 48.7567C286.248 48.2059 287.13 46.9205 287.754 44.9006C288.415 42.8807 288.892 39.7223 289.186 35.4255C289.443 31.9366 290.343 28.9986 291.885 26.6114C293.465 24.2243 296.439 23.0307 300.81 23.0307C304.482 23.0307 307.237 23.9856 309.073 25.8953C310.946 27.7683 311.882 30.0085 311.882 32.616C311.882 35.0766 311.093 37.0047 309.514 38.4002C307.934 39.7958 306.117 40.4936 304.06 40.4936C302.077 40.4936 300.24 39.8325 298.551 38.5104C296.898 37.1883 296.072 35.3704 296.072 33.0567C296.072 31.7346 296.366 30.541 296.954 29.476C297.394 28.7415 297.927 28.1539 298.551 27.7132C299.139 27.2357 299.433 26.8685 299.433 26.6114C299.433 26.0238 298.955 25.73 298 25.73C293.85 25.73 291.555 29.2005 291.114 36.1416C290.894 40.4385 290.472 43.6152 289.847 45.6718C289.26 47.7284 287.754 49.3627 285.33 50.5746C295.687 50.6481 301.489 54.5226 302.738 62.1982C302.885 63.5203 302.958 65.8891 302.958 69.3045C302.958 72.0957 303.215 74.2624 303.729 75.8049C304.207 77.3106 305.253 78.0635 306.869 78.0635C309.477 78.0635 310.836 75.9334 310.946 71.6733H313.205C313.021 78.0635 309.752 81.2586 303.399 81.2586C294.071 81.2586 289.223 75.6396 288.856 64.4017C288.709 60.5088 288.231 57.6443 287.423 55.808C286.615 53.935 285.587 52.7782 284.338 52.3375C283.127 51.8968 281.437 51.6764 279.27 51.6764H274.863V76.9617H284.338V79H251.176V76.9617H260.651V27.3276H251.176V25.2893H284.338V27.3276H274.863V49.6382ZM368.788 71.6733H370.826C370.643 74.4277 369.614 76.723 367.742 78.5593C365.905 80.3588 363.426 81.2586 360.305 81.2586C357.183 81.2586 354.465 80.3956 352.152 78.6695C349.838 76.9067 348.314 74.5746 347.579 71.6733C346.918 73.0321 345.963 74.4277 344.715 75.86C343.466 77.2923 341.74 78.5593 339.537 79.6611C337.296 80.7261 334.634 81.2586 331.549 81.2586C326.371 81.2586 322.404 79.8447 319.65 77.0168C316.895 74.189 315.518 70.9021 315.518 67.1561C315.518 63.5203 316.455 60.619 318.328 58.4522C320.237 56.2487 322.404 54.6512 324.828 53.6596C327.289 52.7047 330.318 51.7866 333.918 50.9052C336.892 50.2441 339.096 49.6932 340.528 49.2525C341.997 48.8118 343.338 48.0773 344.55 47.049C345.798 45.984 346.422 44.5884 346.422 42.8623V35.756C346.422 33.4423 345.798 31.0919 344.55 28.7048C343.338 26.2809 340.693 25.069 336.617 25.069C334.23 25.069 332.357 25.6198 330.998 26.7216C329.639 27.7866 328.96 28.9251 328.96 30.137C328.96 30.5777 329.015 30.9634 329.125 31.2939C329.272 31.6244 329.492 31.9733 329.786 32.3406C330.116 32.7445 330.41 33.0567 330.667 33.2771C330.961 33.4974 331.182 33.6994 331.328 33.883C332.981 35.2786 333.807 36.9679 333.807 38.9511C333.807 40.3099 333.458 41.5402 332.761 42.642C332.063 43.707 331.108 44.5517 329.896 45.176C328.684 45.7636 327.362 46.0574 325.93 46.0574C323.543 46.0574 321.615 45.3046 320.146 43.7988C318.713 42.2564 317.997 40.3283 317.997 38.0146C317.997 35.4806 318.75 33.0751 320.256 30.7981C321.761 28.4844 324.057 26.6114 327.142 25.1791C330.227 23.7468 333.991 23.0307 338.435 23.0307C342.254 23.0307 345.853 23.7101 349.232 25.069C352.647 26.4278 355.402 28.5395 357.495 31.4041C359.588 34.2319 360.635 37.7208 360.635 41.8708V71.6733C360.635 75.4927 361.921 77.4025 364.491 77.4025C365.667 77.4025 366.658 76.8699 367.466 75.8049C368.274 74.7031 368.715 73.3259 368.788 71.6733ZM346.422 47.9855C344.953 49.4178 342.86 50.6848 340.142 51.7866C337.462 52.8883 335.644 53.7147 334.689 54.2655C333.734 54.7797 332.816 56.0283 331.934 58.0115C331.09 59.9947 330.667 63.0796 330.667 67.2663C330.667 70.7552 331.071 73.4545 331.879 75.3642C332.724 77.3106 334.266 78.2839 336.507 78.2839C338.012 78.2839 339.537 77.6963 341.079 76.521C342.658 75.3458 343.944 73.6932 344.935 71.5631C345.927 69.3963 346.422 66.9358 346.422 64.1814V47.9855ZM372.038 79V76.9617H381.513V27.3276H372.038V25.2893H402.006V27.3276H395.726V49.6382H413.74V27.3276H407.46V25.2893H437.483V27.3276H428.008V76.9617H437.483V79H407.46V76.9617H413.74V51.6764H395.726V76.9617H402.006V79H372.038Z" fill="black"/>
</svg>
