<svg width="232" height="120" viewBox="0 0 232 120" fill="none" xmlns="http://www.w3.org/2000/svg">
<path d="M0.416875 101H4.09688L7.77688 58.12H16.4169L20.0969 101H23.9369L14.8169 0.199991H9.53688L0.416875 101ZM10.4969 25.32C10.9769 19.4 11.6169 12.04 11.9369 4.51999H12.4169C12.7369 12.36 13.2169 19.4 13.6969 25.32L16.0969 54.6H8.09688L10.4969 25.32ZM44.1181 59.4H33.0781V22.6H29.5581V101H33.0781V62.76H44.1181V101H47.6381V22.6H44.1181V59.4ZM64.9094 101.96C70.5094 101.96 74.0294 98.12 74.0294 80.2V43.4C74.0294 25.48 70.8294 21.64 65.2294 21.64C59.7894 21.64 56.1094 25.48 56.1094 43.4V80.2C56.1094 98.12 59.4694 101.96 64.9094 101.96ZM65.0694 98.6C61.8694 98.6 59.6294 96.52 59.6294 78.6V45C59.6294 27.08 61.8694 25 65.0694 25C68.2694 25 70.5094 27.08 70.5094 45V78.6C70.5094 96.52 68.2694 98.6 65.0694 98.6ZM91.9669 21.64C89.0869 21.64 86.6869 22.92 85.4069 28.52H84.9269V22.6H82.5269V119.4H86.0469V115.88C86.0469 107.88 85.8869 103.4 85.5669 96.36C86.8469 100.84 88.9269 101.96 91.4869 101.96C96.7669 101.96 100.447 98.12 100.447 80.2V43.4C100.447 25.48 97.2469 21.64 91.9669 21.64ZM96.9269 78.6C96.9269 96.52 94.6869 98.6 91.4869 98.6C88.4469 98.6 86.0469 96.52 86.0469 78.6V45C86.0469 27.08 88.4469 25 91.6469 25C94.8469 25 96.9269 27.08 96.9269 45V78.6ZM122.853 70.44C123.493 97.16 120.613 98.6 117.413 98.6C114.213 98.6 111.973 96.52 111.973 78.6V59.88H126.373V43.4C126.373 25.48 123.173 21.64 117.573 21.64C112.133 21.64 108.453 25.48 108.453 43.4V80.2C108.453 98.12 111.813 101.96 117.253 101.96C119.333 101.96 120.933 101.48 122.533 99.88C125.573 96.68 126.693 90.12 126.373 70.92L122.853 70.44ZM117.413 25C120.613 25 122.853 27.08 122.853 45V56.52H111.973V45C111.973 27.08 114.213 25 117.413 25ZM154.391 97.64C152.151 97.64 151.671 96.68 151.351 90.6L150.391 74.12C149.911 66.28 148.951 62.92 145.111 61.32V60.84C149.111 59.4 150.071 55.88 150.391 48.04L151.031 33.32C151.351 26.6 151.831 25.96 153.751 25.96H154.871V22.6H153.591C149.751 22.6 147.831 23.88 147.511 31.88L146.871 47.56C146.551 57.48 145.431 59.4 141.271 59.4H138.391V22.6H134.871V101H138.391V62.76H141.271C145.431 62.76 146.391 64.68 146.871 74.6L147.831 92.04C148.311 99.56 149.751 101 153.591 101H155.511V97.64H154.391ZM168.507 101.96C169.947 101.96 171.867 101.64 173.467 100.04C176.507 97 177.947 90.6 177.467 67.56L173.947 67.08C174.747 97.32 171.707 98.6 168.507 98.6C165.307 98.6 163.067 96.52 163.067 78.6V45C163.067 27.08 165.307 25 168.507 25C172.187 25 174.267 26.92 173.947 56.52L177.467 56.04C177.467 32.2 176.827 26.76 173.467 23.4C172.027 21.96 170.267 21.64 168.667 21.64C163.227 21.64 159.547 25.48 159.547 43.4V80.2C159.547 98.12 162.907 101.96 168.507 101.96ZM189.484 97.64H189.004C189.324 81.32 189.324 69.96 189.324 56.84V22.6H185.964V101H192.044L202.124 25.96H202.604C202.284 42.28 202.284 53.64 202.284 66.76V101H205.644V22.6H199.564L189.484 97.64ZM231.198 22.6H224.798C217.278 22.6 213.758 26.44 213.758 39.72V44.04C213.758 57.48 216.478 59.88 221.118 61.16V61.64C217.438 63.24 216.478 66.6 215.998 74.12L215.038 90.6C214.718 96.68 214.238 97.64 211.998 97.64H210.078V101H212.318C216.478 101 218.078 99.72 218.558 92.04L219.518 74.6C219.998 64.68 220.958 62.76 225.118 62.76H227.678V101H231.198V22.6ZM217.278 40.68C217.278 27.72 219.518 25.96 225.118 25.96H227.678V59.4H225.118C219.518 59.4 217.278 57.64 217.278 43.08V40.68Z" fill="black"/>
</svg>
