<svg width="292" height="155" viewBox="0 0 292 155" fill="none" xmlns="http://www.w3.org/2000/svg">
<path d="M13.6279 0.478779H15.3782L28.5055 123H26.7552L23.2545 89.7442H5.75152L2.25091 123H0.500606L13.6279 0.478779ZM14.503 7.47999L5.75152 87.9939H23.2545L14.503 7.47999ZM58.2948 28.4836V123H56.5445V75.7418H40.7918V123H39.0415V28.4836H40.7918V73.9915H56.5445V28.4836H58.2948ZM91.6258 113.373C91.6258 116.874 90.6923 119.674 88.8253 121.775C86.9583 123.758 84.6829 124.75 81.9991 124.75C79.3153 124.75 77.0399 123.758 75.1729 121.775C73.3059 119.674 72.3724 116.874 72.3724 113.373V38.1103C72.3724 34.6097 73.3059 31.8675 75.1729 29.8839C77.0399 27.7835 79.3153 26.7333 81.9991 26.7333C84.6829 26.7333 86.9583 27.7835 88.8253 29.8839C90.6923 31.8675 91.6258 34.6097 91.6258 38.1103V113.373ZM89.8755 38.1103C89.8755 35.0764 89.117 32.7427 87.6001 31.1091C86.0831 29.3588 84.2161 28.4836 81.9991 28.4836C79.782 28.4836 77.9151 29.3588 76.3981 31.1091C74.8812 32.7427 74.1227 35.0764 74.1227 38.1103V113.373C74.1227 116.407 74.8812 118.799 76.3981 120.55C77.9151 122.183 79.782 123 81.9991 123C84.2161 123 86.0831 122.183 87.6001 120.55C89.117 118.799 89.8755 116.407 89.8755 113.373V38.1103ZM123.206 37.2351C123.206 34.5514 122.448 32.451 120.931 30.9341C119.531 29.3004 117.956 28.4836 116.205 28.4836C114.572 28.4836 113.23 29.0671 112.18 30.2339C111.129 31.2841 110.254 32.451 109.554 33.7345C108.737 35.2515 108.037 37.0018 107.454 38.9855V112.498C108.037 114.482 108.737 116.232 109.554 117.749C110.254 119.033 111.129 120.258 112.18 121.425C113.23 122.475 114.572 123 116.205 123C117.956 123 119.531 122.242 120.931 120.725C122.448 119.091 123.206 116.932 123.206 114.248V37.2351ZM124.957 114.248C124.957 117.282 124.023 119.791 122.156 121.775C120.406 123.758 118.422 124.75 116.205 124.75C114.688 124.75 113.346 124.342 112.18 123.525C111.129 122.708 110.254 121.833 109.554 120.9C108.737 119.733 108.037 118.391 107.454 116.874V154.505H105.703V28.4836H107.454V34.6097C108.037 33.2095 108.737 31.9259 109.554 30.759C110.254 29.8255 111.129 28.9504 112.18 28.1336C113.23 27.2001 114.572 26.7333 116.205 26.7333C118.422 26.7333 120.406 27.7252 122.156 29.7088C124.023 31.6925 124.957 34.2013 124.957 37.2351V114.248ZM158.288 75.7418H140.785V113.373C140.785 116.407 141.543 118.799 143.06 120.55C144.577 122.183 146.444 123 148.661 123C150.878 123 152.745 122.183 154.262 120.55C155.779 118.799 156.537 116.407 156.537 113.373V89.7442H158.288V113.373C158.288 116.874 157.354 119.674 155.487 121.775C153.62 123.758 151.345 124.75 148.661 124.75C145.977 124.75 143.702 123.758 141.835 121.775C139.968 119.674 139.034 116.874 139.034 113.373V38.1103C139.034 34.6097 139.968 31.8675 141.835 29.8839C143.702 27.7835 145.977 26.7333 148.661 26.7333C151.345 26.7333 153.62 27.7835 155.487 29.8839C157.354 31.8675 158.288 34.6097 158.288 38.1103V75.7418ZM140.785 73.9915H156.537V38.1103C156.537 35.0764 155.779 32.7427 154.262 31.1091C152.745 29.3588 150.878 28.4836 148.661 28.4836C146.444 28.4836 144.577 29.3588 143.06 31.1091C141.543 32.7427 140.785 35.0764 140.785 38.1103V73.9915ZM189.868 63.4897C189.868 65.4734 189.635 67.107 189.168 68.3905C188.701 69.6741 188.176 70.7243 187.593 71.5411C187.01 72.4746 186.309 73.1747 185.493 73.6415V74.3416C186.426 74.6916 187.301 75.2751 188.118 76.0919C188.701 76.792 189.285 77.8422 189.868 79.2424C190.452 80.526 190.744 82.2763 190.744 84.4933V112.498C190.744 115.182 191.444 117.341 192.844 118.974C194.361 120.491 195.994 121.25 197.745 121.25V123C195.528 123 193.486 122.008 191.619 120.024C189.868 118.041 188.993 115.532 188.993 112.498V84.4933C188.993 80.9927 188.351 78.5423 187.068 77.1421C185.784 75.6251 183.801 74.8667 181.117 74.8667H174.116V123H172.365V28.4836H174.116V73.1164H180.242C182.925 73.1164 184.909 72.4162 186.193 71.016C187.476 69.4991 188.118 66.9903 188.118 63.4897V38.9855C188.118 35.9516 188.993 33.4428 190.744 31.4592C192.61 29.4755 194.653 28.4836 196.87 28.4836V30.2339C195.119 30.2339 193.486 31.0507 191.969 32.6844C190.568 34.2013 189.868 36.3017 189.868 38.9855V63.4897ZM208.301 113.373C208.301 116.407 209.06 118.799 210.577 120.55C212.094 122.183 213.961 123 216.178 123C218.395 123 220.262 122.183 221.779 120.55C223.295 118.799 224.054 116.407 224.054 113.373V87.9939H225.804V113.373C225.804 116.874 224.871 119.674 223.004 121.775C221.137 123.758 218.861 124.75 216.178 124.75C213.494 124.75 211.218 123.758 209.351 121.775C207.484 119.674 206.551 116.874 206.551 113.373V38.1103C206.551 34.6097 207.484 31.8675 209.351 29.8839C211.218 27.7835 213.494 26.7333 216.178 26.7333C218.861 26.7333 221.137 27.7835 223.004 29.8839C224.871 31.8675 225.804 34.6097 225.804 38.1103V61.7394H224.054V38.1103C224.054 35.0764 223.295 32.7427 221.779 31.1091C220.262 29.3588 218.395 28.4836 216.178 28.4836C213.961 28.4836 212.094 29.3588 210.577 31.1091C209.06 32.7427 208.301 35.0764 208.301 38.1103V113.373ZM258.11 28.4836V123H256.359V37.2351L240.607 123H238.856V28.4836H240.607V114.248L256.359 28.4836H258.11ZM289.69 30.2339H281.814C279.597 30.2339 277.73 31.1091 276.213 32.8594C274.696 34.493 273.938 36.8267 273.938 39.8606V67.8654C273.938 71.3661 274.579 73.8748 275.863 75.3918C277.147 76.792 279.13 77.4921 281.814 77.4921H289.69V30.2339ZM291.441 28.4836V123H289.69V79.2424H281.814C279.13 79.2424 277.147 80.0009 275.863 81.5178C274.579 82.9181 273.938 85.3685 273.938 88.8691V112.323C273.938 115.474 273.004 118.041 271.137 120.024C269.387 122.008 267.403 123 265.186 123V121.25C266.936 121.25 268.512 120.433 269.912 118.799C271.429 117.166 272.187 115.007 272.187 112.323V88.8691C272.187 86.652 272.421 84.9017 272.887 83.6182C273.471 82.2179 274.113 81.1678 274.813 80.4676C275.513 79.6508 276.388 79.0674 277.438 78.7173V78.0172C276.388 77.6671 275.513 77.0837 274.813 76.2669C274.113 75.5668 273.471 74.5749 272.887 73.2914C272.421 71.8912 272.187 70.0825 272.187 67.8654V39.8606C272.187 36.36 273.121 33.6179 274.988 31.6342C276.855 29.5338 279.13 28.4836 281.814 28.4836H291.441Z" fill="black"/>
</svg>
