<svg width="467" height="80" viewBox="0 0 467 80" fill="none" xmlns="http://www.w3.org/2000/svg">
<path d="M59.2293 38.8743L54.9777 0.26268H3.17745V22.3884H8.38351L5.69371 38.8743H0.487659V61H32.1578V38.8743H32.7652V61H64.4354V38.8743H59.2293ZM32.7652 31.9329H32.1578V22.3884H32.7652V31.9329ZM117.812 29.7637V11.9763H91.9549V29.7637H98.636V30.371H84.6665V29.7637H91.3476V11.9763H65.4908V29.7637H69.3954V43.2126H65.4908V61H91.3476V43.2126H84.6665V42.6053H98.636V43.2126H91.9549V61H117.812V43.2126H113.907V29.7637H117.812ZM143.18 11.1086C123.918 11.1086 118.018 20.7398 118.018 35.9242C118.018 51.7159 123.918 61.8677 143.18 61.8677C162.182 61.8677 168.777 51.7159 168.777 36.4448C168.777 20.7398 163.224 11.1086 143.18 11.1086ZM143.094 44.7745V28.2018H143.701V44.7745H143.094ZM203.92 61.5206C207.651 61 220.406 58.5705 220.406 36.7918C220.406 21.8678 215.46 12.9308 200.97 11.2822C199.756 11.1086 197.933 11.1086 195.591 11.1086C185.352 11.1086 168.866 11.9763 168.866 11.9763V29.7637H172.771V61.8677H168.866V79.655H200.97V62.475H194.636V61.8677H197.586C199.756 61.8677 201.925 61.7809 203.92 61.5206ZM194.723 44.7745V28.2018H195.33V44.7745H194.723ZM246.992 47.8113H246.384V38.2669H270.332V36.5315C270.332 20.5663 264.432 11.1086 246.124 11.1086C226.601 11.1086 221.308 21.6075 221.308 36.7051C221.308 51.9762 226.948 61.8677 245.603 61.8677C255.842 61.8677 264.779 60.2191 268.77 58.397V38.8743H246.992V47.8113ZM246.384 20.7398H246.992V29.4166H246.384V20.7398ZM318.963 11.9763H297.011V22.3884H296.404V11.9763H270.547V29.7637H274.452V43.2126H270.547V61H296.404V50.5879H297.011V61H318.963V47.1172L308.117 36.5315L318.963 25.8591V11.9763ZM344.182 39.8287V44.7745H343.574V28.2018H344.182V33.1476H361.535V11.8895C361.535 11.8895 352.685 11.1086 342.967 11.1086C323.618 11.1086 318.498 21.8678 318.498 36.2712C318.498 51.9762 324.919 61.8677 343.921 61.8677C351.991 61.8677 358.151 61.5206 361.535 61.0868V39.8287H344.182ZM414.709 29.7637V11.9763H393.885V20.6531L381.564 33.2344L381.217 32.8873L393.278 20.6531V11.9763H362.822V29.7637H366.64V43.2126H362.822V61H383.647V52.3232L395.881 39.7419L396.228 40.089L384.254 52.3232V61H414.709V43.2126H410.805V29.7637H414.709ZM417.432 47.1172V61H439.818V50.5879H440.425V61H466.022V43.2126H462.117V29.7637H466.022V11.9763C458.993 11.4557 452.746 11.1086 442.16 11.1086C425.328 11.1086 415.696 15.6205 415.696 29.2431C415.696 36.7918 419.08 40.9567 421.423 42.8656L417.432 47.1172ZM431.488 29.7637V29.1563H440.425V29.7637H431.488Z" fill="black"/>
</svg>
