<?xml version="1.0" standalone="no"?>
<!DOCTYPE svg PUBLIC "-//W3C//DTD SVG 20010904//EN"
 "http://www.w3.org/TR/2001/REC-SVG-20010904/DTD/svg10.dtd">
<svg version="1.0" xmlns="http://www.w3.org/2000/svg"
 width="512.000000pt" height="512.000000pt" viewBox="0 0 512.000000 512.000000"
 preserveAspectRatio="xMidYMid meet">
<metadata>
Created by potrace 1.14, written by Peter Selinger 2001-2017
</metadata>
<g transform="translate(0.000000,512.000000) scale(0.100000,-0.100000)"
fill="#000000" stroke="none">
<path d="M0 2560 l0 -2560 2560 0 2560 0 0 2560 0 2560 -2560 0 -2560 0 0
-2560z m2580 715 l0 -195 -65 0 c-36 0 -65 -3 -65 -7 0 -12 203 -443 209 -443
3 0 42 71 86 158 91 180 97 213 49 263 -22 23 -36 29 -71 29 l-43 0 0 195 0
195 420 0 420 0 0 -195 c0 -189 -1 -195 -20 -195 -45 0 -93 -71 -341 -500
-348 -602 -454 -758 -602 -879 l-62 -51 -262 0 -263 0 0 173 0 172 85 22 c47
12 106 31 131 42 l46 21 -85 162 c-46 90 -158 307 -248 482 -177 344 -185 356
-261 356 l-38 0 0 195 0 195 490 0 490 0 0 -195z"/>
</g>
</svg>
