<svg width="40" height="36" viewBox="0 0 40 36" fill="none" xmlns="http://www.w3.org/2000/svg">
<path d="M40 5.86439C38.529 6.51742 36.9488 6.95865 35.2876 7.15809C37.0017 6.13053 38.2841 4.51326 38.8954 2.60806C37.285 3.56641 35.5225 4.24098 33.6845 4.60245C32.4485 3.28026 30.8113 2.4039 29.0273 2.10941C27.2432 1.81493 25.412 2.1188 23.8179 2.97385C22.2239 3.8289 20.9562 5.18728 20.2117 6.83811C19.4672 8.48894 19.2875 10.3399 19.7005 12.1035C16.4374 11.9393 13.2452 11.0896 10.3311 9.60944C7.41693 8.12927 4.84602 6.05175 2.78517 3.51171C2.08051 4.72952 1.67533 6.14148 1.67533 7.64522C1.67454 8.99892 2.00728 10.3319 2.64402 11.5259C3.28076 12.7198 4.20182 13.7379 5.32546 14.4897C4.02233 14.4481 2.74795 14.0954 1.60839 13.4607V13.5666C1.60825 15.4652 2.26378 17.3054 3.46372 18.775C4.66367 20.2445 6.33413 21.2528 8.19167 21.6289C6.9828 21.9567 5.71538 22.005 4.48516 21.7701C5.00924 23.4038 6.03012 24.8323 7.40486 25.8558C8.7796 26.8793 10.4394 27.4465 12.1519 27.4779C9.24484 29.7643 5.65469 31.0045 1.95895 30.999C1.30429 30.9992 0.650183 30.9609 0 30.8843C3.75139 33.3008 8.11828 34.5833 12.5782 34.5783C27.6755 34.5783 35.9288 22.0507 35.9288 11.1857C35.9288 10.8327 35.92 10.4762 35.9042 10.1232C37.5095 8.96006 38.8953 7.51972 39.9965 5.86968L40 5.86439V5.86439Z" fill="black"/>
</svg>
