<svg width="422" height="422" viewBox="0 0 422 422" fill="none" xmlns="http://www.w3.org/2000/svg">
    <path fill-rule="evenodd" clip-rule="evenodd" d="M385.79 222.214C343.837 238.651 320.804 203.064 308.685 172.131L246.393 196.538C148.752 234.794 91.9586 89.9337 186.516 52.8851C195.472 49.4852 205.056 48.0589 214.611 48.704C224.165 49.349 233.465 52.0502 241.871 56.6222C294.631 35.9502 312.376 62.3487 334.362 118.464L354.521 169.915C359.698 183.128 368.124 189.688 381.735 184.355C393.352 179.804 394.626 166.825 393.366 149.854C396.288 150.251 417.113 153.245 420.04 153.747C420.863 171.069 428.055 205.654 385.79 222.214ZM275.893 115.947C259.915 122.207 268.442 147.913 286.881 140.689C302.28 134.512 291.933 109.662 275.768 115.996L275.893 115.947ZM249.418 213.426C262.935 208.13 301.147 189.572 301.147 189.572L331.599 267.294L294.444 282.497L263.09 229.981L143.823 274.021L164.851 336.859L121.466 354.503C121.466 354.503 67.9635 236.289 58.4747 212.071C40.8857 167.179 50.0763 134.244 92.3846 115.228C102.985 110.465 116.266 102.823 125.427 98.696C105.082 166.34 172.582 243.532 249.387 213.439L249.418 213.426ZM186.996 274.176L201.775 321.065L177.078 331.387L162.079 283.938L186.996 274.176ZM282.205 287.938L257.496 298.229L233.714 255.871L255.516 247.329L282.205 287.938Z" fill="#4048FF"/>
</svg>
