<svg width="409" height="91" viewBox="0 0 409 91" fill="none" xmlns="http://www.w3.org/2000/svg">
<path d="M10.2079 43.8022L11.1904 49.8204C11.5589 49.8204 14.7522 49.6976 17.5771 49.6976C30.2275 49.6976 39.6847 52.154 39.6847 63.085C39.6847 67.6293 37.7195 71.8052 34.2806 71.8052C28.1396 71.8052 21.016 66.8924 21.016 61.734C21.016 59.5232 22.6127 55.8386 23.8409 53.6278L19.1737 51.0486C9.83939 59.2776 0.0137939 71.4367 0.0137939 76.2267C0.0137939 84.21 10.4535 90.5967 24.3322 90.5967C43.9834 90.5967 65.354 74.3844 65.354 56.944C65.354 47.364 57.862 39.6264 44.8431 38.8894C54.3002 34.0995 62.5292 26.4846 62.5292 19.2382C62.5292 7.9388 56.511 0.446777 39.1934 0.446777C32.8067 0.446777 14.875 7.57033 3.20711 15.7993L2.59301 19.7295C6.15479 25.1336 12.7871 34.4679 17.0858 41.3458C13.7696 42.2056 12.173 43.0653 10.2079 43.8022ZM24.2093 20.4664C25.1919 20.2208 28.0168 19.6067 29.9819 19.6067C34.649 19.6067 37.7195 21.2034 37.7195 27.9585C37.7195 30.9061 36.2457 35.4505 34.5262 38.1525C30.9644 38.6438 28.3852 39.0123 24.455 39.872C24.2093 33.2397 24.3322 28.8182 24.2093 20.4664Z" fill="currentColor"/>
<path d="M106.67 39.872V77.5777L100.406 85.9295L102.125 89H119.197C123.373 89 127.303 88.3859 129.76 85.9295C135.778 80.157 138.357 76.718 141.428 72.2965L140.199 68.6119H127.549C129.514 67.0152 131.725 63.8219 131.725 58.5406V37.4156C135.164 32.8713 139.217 28.0813 141.428 24.2739L139.954 20.8349C124.478 19.9752 102.002 19.6067 99.0547 19.6067C96.4755 19.6067 94.3875 19.6067 91.0714 21.9403C86.2814 25.7477 83.2109 28.4497 76.2102 36.5559L77.684 39.872H90.2116C89.1063 54.6104 88.4922 60.3829 80.5089 60.3829C78.0525 60.3829 76.7014 59.4004 75.5961 58.4178L71.7887 59.5232C66.9987 75.4898 65.2792 81.6308 65.2792 84.0872C65.2792 86.5436 69.8235 90.4738 77.3155 90.4738C88.2465 90.4738 91.9311 82.9818 95.4929 71.3139C98.0721 62.9622 98.9319 48.9607 99.1775 39.872H106.67Z" fill="currentColor"/>
<path d="M177.729 18.2557C172.57 18.2557 158.446 26.4846 149.848 32.0115C144.69 38.3982 142.234 48.9607 142.234 56.8212C142.234 76.718 154.147 90.9651 171.219 90.9651C175.886 90.9651 191.239 82.7362 199.591 77.2093C204.749 70.8226 207.205 60.2601 207.205 52.3996C207.205 32.5028 195.292 18.2557 177.729 18.2557ZM180.553 71.6824C179.448 72.0508 179.08 72.2965 176.992 72.2965C171.465 72.2965 166.92 64.9273 166.92 50.3117C166.92 43.8022 168.149 38.8894 169.254 36.5559C169.868 36.433 170.482 36.1874 172.447 36.1874C178.834 36.1874 182.519 43.311 182.519 57.6809C182.519 64.0675 181.536 68.6119 180.553 71.6824Z" fill="currentColor"/>
<path d="M255.792 50.5573C257.389 46.1358 262.179 35.4505 266.232 26.1162L265.249 22.8C259.231 19.9752 252.722 18.747 245.844 18.747C235.65 21.6946 226.807 26.1162 217.841 32.0115C212.682 38.3982 210.84 49.3291 210.84 57.1896C210.84 77.0865 221.648 90.4738 238.106 90.4738C251.493 90.4738 260.214 80.4026 265.863 71.928L263.53 68.4891C259.108 70.3314 254.318 71.6824 249.774 71.6824C241.299 71.6824 234.299 67.2609 234.299 48.1009C234.299 43.4338 235.65 37.0471 238.597 32.5028C239.948 32.5028 242.528 32.7484 243.633 33.3625C245.598 34.4679 248.3 40.8546 251.371 50.1889L255.792 50.5573Z" fill="currentColor"/>
<path d="M264.273 35.082C267.59 43.1881 273.608 52.3996 275.941 56.6983L280.24 56.4527C280.854 50.1889 281.223 44.5392 281.468 39.1351H289.82V77.5777L283.556 85.9295L285.276 89H302.348C306.524 89 310.454 88.3859 312.91 85.9295C318.928 80.157 321.508 76.718 324.578 72.2965L323.35 68.6119H310.699C312.665 67.0152 314.875 63.8219 314.875 58.5406V39.1351H320.034C321.63 39.1351 323.104 45.8902 326.42 56.0842L330.473 56.5755C336.492 45.5217 342.019 27.3444 343.247 20.9577L340.79 18.2557L328.017 21.5718C302.839 19.6067 287.609 17.8872 284.416 17.8872C282.451 17.8872 281.345 18.1329 280.609 18.5013C280.609 18.5013 265.993 29.1867 265.01 30.1692C264.273 30.9061 263.782 31.8887 263.782 32.8713C263.782 33.6082 264.028 34.3451 264.273 35.082Z" fill="currentColor"/>
<path d="M341.579 40.3633H347.106V77.5777L340.719 85.9295L342.439 89H374.74C390.339 89 408.025 76.8408 408.025 61.4883C408.025 51.9084 402.007 42.2056 389.356 42.2056C387.022 42.2056 378.916 45.0304 372.161 47.364V35.6961C376.951 30.9061 379.285 27.7128 382.11 23.6598L380.881 19.9752H362.581C358.405 19.9752 354.352 20.5893 351.896 23.0457C345.878 28.8182 343.176 32.8713 339.86 37.2928L341.579 40.3633ZM373.758 53.9963C380.759 53.9963 383.461 58.1722 383.461 62.5937C383.461 66.6468 381.864 71.5596 381.004 72.7878H372.161V53.9963H373.758Z" fill="currentColor"/>
</svg>
